Lexend-Thin.ufo
<glyph name="parenleft" format="2">
  <advance width="335"/>
  <unicode hex="0028"/>
  <outline>
    <contour>
      <point x="60" y="258" type="qcurve"/>
      <point x="60" y="397"/>
      <point x="189" y="626"/>
      <point x="311" y="702" type="qcurve"/>
      <point x="325" y="685" type="line"/>
      <point x="204" y="606"/>
      <point x="83" y="390"/>
      <point x="83" y="258" type="qcurve"/>
      <point x="83" y="128"/>
      <point x="199" y="-86"/>
      <point x="325" y="-169" type="qcurve"/>
      <point x="310" y="-186" type="line"/>
      <point x="188" y="-110"/>
      <point x="60" y="118"/>
    </contour>
  </outline>
</glyph>
<glyph name="parenright" format="2">
  <advance width="335"/>
  <unicode hex="0029"/>
  <outline>
    <contour>
      <point x="275" y="258" type="qcurve"/>
      <point x="275" y="119"/>
      <point x="146" y="-110"/>
      <point x="24" y="-186" type="qcurve"/>
      <point x="10" y="-169" type="line"/>
      <point x="131" y="-90"/>
      <point x="252" y="126"/>
      <point x="252" y="258" type="qcurve"/>
      <point x="252" y="388"/>
      <point x="136" y="602"/>
      <point x="10" y="685" type="qcurve"/>
      <point x="25" y="702" type="line"/>
      <point x="147" y="626"/>
      <point x="275" y="398"/>
    </contour>
  </outline>
</glyph>
<glyph name="comma" format="2">
  <advance width="216"/>
  <unicode hex="002C"/>
  <outline>
    <contour>
      <point x="104" y="54" type="qcurve"/>
      <point x="126" y="54"/>
      <point x="150" y="23"/>
      <point x="150" y="-7" type="qcurve"/>
      <point x="150" y="-41"/>
      <point x="121" y="-89"/>
      <point x="86" y="-122" type="qcurve"/>
      <point x="77" y="-110" type="line"/>
      <point x="96" y="-89"/>
      <point x="122" y="-49"/>
      <point x="122" y="-36" type="qcurve"/>
      <point x="122" y="-20"/>
      <point x="107" y="-8"/>
      <point x="93" y="-3" type="qcurve"/>
      <point x="85" y="0"/>
      <point x="74" y="15"/>
      <point x="74" y="26" type="qcurve"/>
      <point x="74" y="38"/>
      <point x="89" y="54"/>
    </contour>
  </outline>
</glyph>
<glyph name="two" format="2">
  <advance width="548"/>
  <unicode hex="0032"/>
  <outline>
    <contour>
      <point x="94" y="22" type="line"/>
      <point x="506" y="22" type="line"/>
      <point x="506" y="0" type="line"/>
      <point x="78" y="0" type="line"/>
      <point x="72" y="13" type="line"/>
      <point x="362" y="323" type="line"/>
      <point x="393" y="356"/>
      <point x="471" y="470"/>
      <point x="471" y="535" type="qcurve"/>
      <point x="471" y="600"/>
      <point x="364" y="688"/>
      <point x="283" y="688" type="qcurve"/>
      <point x="223" y="688"/>
      <point x="106" y="613"/>
      <point x="77" y="514" type="qcurve"/>
      <point x="56" y="524" type="line"/>
      <point x="85" y="622"/>
      <point x="206" y="710"/>
      <point x="285" y="710" type="qcurve"/>
      <point x="373" y="710"/>
      <point x="494" y="612"/>
      <point x="494" y="536" type="qcurve"/>
      <point x="494" y="470"/>
      <point x="424" y="356"/>
      <point x="385" y="314" type="qcurve"/>
      <point x="94" y="4" type="line"/>
    </contour>
  </outline>
</glyph>
<glyph name="three" format="2">
  <advance width="529"/>
  <unicode hex="0033"/>
  <outline>
    <contour>
      <point x="20" y="138" type="qcurve"/>
      <point x="40" y="150" type="line"/>
      <point x="90" y="68"/>
      <point x="202" y="12"/>
      <point x="266" y="12" type="qcurve"/>
      <point x="354" y="12"/>
      <point x="470" y="136"/>
      <point x="470" y="222" type="qcurve"/>
      <point x="470" y="308"/>
      <point x="359" y="423"/>
      <point x="280" y="423" type="qcurve"/>
      <point x="248" y="423"/>
      <point x="179" y="404"/>
      <point x="141" y="361" type="qcurve"/>
      <point x="127" y="383" type="line"/>
      <point x="444" y="687" type="line"/>
      <point x="444" y="678" type="line"/>
      <point x="89" y="678" type="line"/>
      <point x="89" y="700" type="line"/>
      <point x="452" y="700" type="line"/>
      <point x="465" y="676" type="line"/>
      <point x="175" y="400" type="line"/>
      <point x="165" y="406" type="line"/>
      <point x="191" y="425"/>
      <point x="242" y="445"/>
      <point x="280" y="445" type="qcurve"/>
      <point x="373" y="445"/>
      <point x="493" y="320"/>
      <point x="493" y="222" type="qcurve"/>
      <point x="493" y="126"/>
      <point x="362" y="-10"/>
      <point x="264" y="-10" type="qcurve"/>
      <point x="190" y="-10"/>
      <point x="68" y="57"/>
    </contour>
  </outline>
</glyph>
<glyph name="five" format="2">
  <advance width="568"/>
  <unicode hex="0035"/>
  <outline>
    <contour>
      <point x="508" y="237" type="qcurve"/>
      <point x="508" y="132"/>
      <point x="364" y="-10"/>
      <point x="257" y="-10" type="qcurve"/>
      <point x="188" y="-10"/>
      <point x="77" y="55"/>
      <point x="39" y="115" type="qcurve"/>
      <point x="58" y="133" type="line"/>
      <point x="93" y="73"/>
      <point x="202" y="12"/>
      <point x="258" y="12" type="qcurve"/>
      <point x="354" y="12"/>
      <point x="485" y="144"/>
      <point x="485" y="239" type="qcurve"/>
      <point x="485" y="322"/>
      <point x="370" y="442"/>
      <point x="281" y="442" type="qcurve"/>
      <point x="227" y="442"/>
      <point x="116" y="396"/>
      <point x="78" y="361" type="qcurve"/>
      <point x="65" y="377" type="line"/>
      <point x="111" y="700" type="line"/>
      <point x="487" y="700" type="line"/>
      <point x="487" y="678" type="line"/>
      <point x="116" y="678" type="line"/>
      <point x="131" y="690" type="line"/>
      <point x="87" y="379" type="line"/>
      <point x="77" y="387" type="line"/>
      <point x="120" y="422"/>
      <point x="223" y="464"/>
      <point x="282" y="464" type="qcurve"/>
      <point x="378" y="464"/>
      <point x="508" y="337"/>
    </contour>
  </outline>
</glyph>
<glyph name="eight" format="2">
  <advance width="580"/>
  <unicode hex="0038"/>
  <outline>
    <contour>
      <point x="495" y="530" type="qcurve"/>
      <point x="495" y="477"/>
      <point x="416" y="386"/>
      <point x="347" y="374" type="qcurve"/>
      <point x="351" y="386" type="line"/>
      <point x="428" y="367"/>
      <point x="526" y="267"/>
      <point x="526" y="193" type="qcurve"/>
      <point x="526" y="109"/>
      <point x="389" y="-3"/>
      <point x="290" y="-3" type="qcurve"/>
      <point x="192" y="-3"/>
      <point x="55" y="110"/>
      <point x="55" y="193" type="qcurve"/>
      <point x="55" y="266"/>
      <point x="147" y="367"/>
      <point x="229" y="386" type="qcurve"/>
      <point x="233" y="374" type="line"/>
      <point x="165" y="383"/>
      <point x="86" y="477"/>
      <point x="86" y="530" type="qcurve"/>
      <point x="86" y="610"/>
      <point x="205" y="710"/>
      <point x="290" y="710" type="qcurve"/>
      <point x="376" y="710"/>
      <point x="495" y="610"/>
    </contour>
    <contour>
      <point x="290" y="688" type="qcurve"/>
      <point x="212" y="688"/>
      <point x="109" y="600"/>
      <point x="109" y="537" type="qcurve"/>
      <point x="109" y="473"/>
      <point x="212" y="388"/>
      <point x="290" y="388" type="qcurve"/>
      <point x="369" y="388"/>
      <point x="472" y="471"/>
      <point x="472" y="537" type="qcurve"/>
      <point x="472" y="600"/>
      <point x="369" y="688"/>
    </contour>
    <contour>
      <point x="78" y="191" type="qcurve"/>
      <point x="78" y="124"/>
      <point x="203" y="19"/>
      <point x="290" y="19" type="qcurve"/>
      <point x="378" y="19"/>
      <point x="503" y="123"/>
      <point x="503" y="191" type="qcurve"/>
      <point x="503" y="269"/>
      <point x="382" y="368"/>
      <point x="290" y="368" type="qcurve"/>
      <point x="199" y="368"/>
      <point x="78" y="269"/>
    </contour>
  </outline>
</glyph>
<glyph name="nine" format="2">
  <advance width="548"/>
  <unicode hex="0039"/>
  <outline>
    <contour>
      <point x="47" y="478" type="qcurve"/>
      <point x="47" y="575"/>
      <point x="179" y="710"/>
      <point x="275" y="710" type="qcurve"/>
      <point x="369" y="710"/>
      <point x="502" y="579"/>
      <point x="502" y="476" type="qcurve"/>
      <point x="502" y="407"/>
      <point x="442" y="269"/>
      <point x="403" y="199" type="qcurve"/>
      <point x="292" y="0" type="line"/>
      <point x="270" y="0" type="line"/>
      <point x="268" y="5" type="line"/>
      <point x="478" y="384" type="line"/>
      <point x="481" y="387" type="line"/>
      <point x="443" y="314"/>
      <point x="339" y="245"/>
      <point x="275" y="245" type="qcurve"/>
      <point x="179" y="245"/>
      <point x="47" y="379"/>
    </contour>
    <contour>
      <point x="478" y="479" type="qcurve"/>
      <point x="478" y="567"/>
      <point x="359" y="688"/>
      <point x="272" y="688" type="qcurve"/>
      <point x="188" y="688"/>
      <point x="70" y="566"/>
      <point x="70" y="477" type="qcurve"/>
      <point x="70" y="389"/>
      <point x="188" y="267"/>
      <point x="272" y="267" type="qcurve"/>
      <point x="359" y="267"/>
      <point x="478" y="390"/>
    </contour>
  </outline>
</glyph>
<glyph name="colon" format="2">
  <advance width="208"/>
  <unicode hex="003A"/>
  <outline>
    <contour>
      <point x="134" y="26" type="qcurve"/>
      <point x="134" y="13"/>
      <point x="118" y="-5"/>
      <point x="104" y="-5" type="qcurve"/>
      <point x="90" y="-5"/>
      <point x="74" y="11"/>
      <point x="74" y="26" type="qcurve"/>
      <point x="74" y="40"/>
      <point x="90" y="57"/>
      <point x="104" y="57" type="qcurve"/>
      <point x="118" y="57"/>
      <point x="134" y="41"/>
    </contour>
    <contour>
      <point x="134" y="489" type="qcurve"/>
      <point x="134" y="476"/>
      <point x="118" y="458"/>
      <point x="104" y="458" type="qcurve"/>
      <point x="90" y="458"/>
      <point x="74" y="474"/>
      <point x="74" y="489" type="qcurve"/>
      <point x="74" y="503"/>
      <point x="90" y="520"/>
      <point x="104" y="520" type="qcurve"/>
      <point x="118" y="520"/>
      <point x="134" y="504"/>
    </contour>
  </outline>
</glyph>
<glyph name="semicolon" format="2">
  <advance width="218"/>
  <unicode hex="003B"/>
  <outline>
    <contour>
      <point x="78" y="54" type="qcurve"/>
      <point x="100" y="54"/>
      <point x="124" y="23"/>
      <point x="124" y="-7" type="qcurve"/>
      <point x="124" y="-41"/>
      <point x="95" y="-89"/>
      <point x="60" y="-122" type="qcurve"/>
      <point x="51" y="-110" type="line"/>
      <point x="70" y="-89"/>
      <point x="96" y="-49"/>
      <point x="96" y="-36" type="qcurve"/>
      <point x="96" y="-20"/>
      <point x="81" y="-8"/>
      <point x="67" y="-3" type="qcurve"/>
      <point x="59" y="0"/>
      <point x="48" y="15"/>
      <point x="48" y="26" type="qcurve"/>
      <point x="48" y="38"/>
      <point x="63" y="54"/>
    </contour>
    <contour>
      <point x="120" y="489" type="qcurve"/>
      <point x="120" y="476"/>
      <point x="104" y="458"/>
      <point x="90" y="458" type="qcurve"/>
      <point x="76" y="458"/>
      <point x="60" y="474"/>
      <point x="60" y="489" type="qcurve"/>
      <point x="60" y="503"/>
      <point x="76" y="520"/>
      <point x="90" y="520" type="qcurve"/>
      <point x="104" y="520"/>
      <point x="120" y="504"/>
    </contour>
  </outline>
</glyph>
<glyph name="B" format="2">
  <advance width="648"/>
  <unicode hex="0042"/>
  <outline>
    <contour>
      <point x="110" y="700" type="line"/>
      <point x="378" y="700" type="line"/>
      <point x="461" y="700"/>
      <point x="560" y="601"/>
      <point x="560" y="531" type="qcurve"/>
      <point x="560" y="459"/>
      <point x="451" y="359"/>
      <point x="365" y="359" type="qcurve"/>
      <point x="368" y="375" type="line"/>
      <point x="481" y="375"/>
      <point x="597" y="270"/>
      <point x="597" y="192" type="qcurve"/>
      <point x="597" y="111"/>
      <point x="492" y="0"/>
      <point x="371" y="0" type="qcurve"/>
      <point x="110" y="0" type="line"/>
    </contour>
    <contour>
      <point x="537" y="532" type="qcurve"/>
      <point x="537" y="593"/>
      <point x="450" y="678"/>
      <point x="375" y="678" type="qcurve"/>
      <point x="124" y="678" type="line"/>
      <point x="131" y="691" type="line"/>
      <point x="131" y="364" type="line"/>
      <point x="125" y="378" type="line"/>
      <point x="372" y="378" type="line"/>
      <point x="440" y="378"/>
      <point x="537" y="468"/>
    </contour>
    <contour>
      <point x="574" y="188" type="qcurve"/>
      <point x="574" y="262"/>
      <point x="471" y="356"/>
      <point x="377" y="356" type="qcurve"/>
      <point x="125" y="356" type="line"/>
      <point x="131" y="370" type="line"/>
      <point x="131" y="13" type="line"/>
      <point x="122" y="22" type="line"/>
      <point x="372" y="22" type="line"/>
      <point x="481" y="22"/>
      <point x="574" y="118"/>
    </contour>
  </outline>
</glyph>
<glyph name="D" format="2">
  <advance width="737"/>
  <unicode hex="0044"/>
  <outline>
    <contour>
      <point x="110" y="700" type="line"/>
      <point x="357" y="700" type="line"/>
      <point x="485" y="700"/>
      <point x="682" y="502"/>
      <point x="682" y="350" type="qcurve"/>
      <point x="682" y="199"/>
      <point x="485" y="0"/>
      <point x="357" y="0" type="qcurve"/>
      <point x="110" y="0" type="line"/>
    </contour>
    <contour>
      <point x="122" y="22" type="line"/>
      <point x="352" y="22" type="line"/>
      <point x="473" y="22"/>
      <point x="659" y="211"/>
      <point x="659" y="350" type="qcurve"/>
      <point x="659" y="490"/>
      <point x="473" y="678"/>
      <point x="352" y="678" type="qcurve"/>
      <point x="121" y="678" type="line"/>
      <point x="132" y="689" type="line"/>
      <point x="132" y="13" type="line"/>
    </contour>
  </outline>
</glyph>
<glyph name="O" format="2">
  <advance width="798"/>
  <unicode hex="004F"/>
  <outline>
    <contour>
      <point x="399" y="710" type="qcurve"/>
      <point x="550" y="710"/>
      <point x="743" y="508"/>
      <point x="743" y="349" type="qcurve"/>
      <point x="743" y="191"/>
      <point x="550" y="-10"/>
      <point x="399" y="-10" type="qcurve"/>
      <point x="248" y="-10"/>
      <point x="55" y="191"/>
      <point x="55" y="349" type="qcurve"/>
      <point x="55" y="507"/>
      <point x="248" y="710"/>
    </contour>
    <contour>
      <point x="399" y="12" type="qcurve"/>
      <point x="539" y="12"/>
      <point x="720" y="202"/>
      <point x="720" y="349" type="qcurve"/>
      <point x="720" y="496"/>
      <point x="539" y="688"/>
      <point x="399" y="688" type="qcurve"/>
      <point x="260" y="688"/>
      <point x="78" y="496"/>
      <point x="78" y="349" type="qcurve"/>
      <point x="78" y="202"/>
      <point x="260" y="12"/>
    </contour>
  </outline>
</glyph>
<glyph name="V" format="2">
  <advance width="604"/>
  <unicode hex="0056"/>
  <outline>
    <contour>
      <point x="288" y="0" type="line"/>
      <point x="20" y="700" type="line"/>
      <point x="46" y="700" type="line"/>
      <point x="235" y="201" type="line"/>
      <point x="261" y="133"/>
      <point x="304" y="18"/>
      <point x="308" y="8" type="qcurve"/>
      <point x="295" y="8" type="line"/>
      <point x="298" y="18"/>
      <point x="343" y="129"/>
      <point x="370" y="202" type="qcurve"/>
      <point x="558" y="700" type="line"/>
      <point x="584" y="700" type="line"/>
      <point x="315" y="0" type="line"/>
    </contour>
  </outline>
</glyph>
<glyph name="asciicircum" format="2">
  <advance width="584"/>
  <unicode hex="005E"/>
  <outline>
    <contour>
      <point x="77" y="368" type="line"/>
      <point x="50" y="368" type="line"/>
      <point x="281" y="727" type="line"/>
      <point x="303" y="727" type="line"/>
      <point x="534" y="368" type="line"/>
      <point x="507" y="368" type="line"/>
      <point x="288" y="708" type="line"/>
      <point x="296" y="708" type="line"/>
    </contour>
  </outline>
</glyph>
<glyph name="underscore" format="2">
  <advance width="696"/>
  <unicode hex="005F"/>
  <outline>
    <contour>
      <point x="640" y="-105" type="line"/>
      <point x="56" y="-105" type="line"/>
      <point x="56" y="-82" type="line"/>
      <point x="640" y="-82" type="line"/>
    </contour>
  </outline>
</glyph>
<glyph name="grave" format="2">
  <advance width="243"/>
  <unicode hex="0060"/>
  <outline>
    <contour>
      <point x="205" y="612" type="line"/>
      <point x="195" y="597" type="line"/>
      <point x="51" y="701" type="line"/>
      <point x="65" y="722" type="line"/>
    </contour>
  </outline>
</glyph>
<glyph name="i" format="2">
  <advance width="162"/>
  <unicode hex="0069"/>
  <outline>
    <contour>
      <point x="92" y="525" type="line"/>
      <point x="92" y="0" type="line"/>
      <point x="70" y="0" type="line"/>
      <point x="70" y="525" type="line"/>
    </contour>
    <contour>
      <point x="110" y="698" type="qcurve"/>
      <point x="110" y="685"/>
      <point x="96" y="669"/>
      <point x="82" y="669" type="qcurve"/>
      <point x="68" y="669"/>
      <point x="54" y="685"/>
      <point x="54" y="698" type="qcurve"/>
      <point x="54" y="710"/>
      <point x="68" y="727"/>
      <point x="82" y="727" type="qcurve"/>
      <point x="95" y="727"/>
      <point x="110" y="711"/>
    </contour>
  </outline>
</glyph>
<glyph name="j" format="2">
  <advance width="162"/>
  <unicode hex="006A"/>
  <outline>
    <contour>
      <point x="92" y="525" type="line"/>
      <point x="92" y="-60" type="line"/>
      <point x="92" y="-125"/>
      <point x="26" y="-194"/>
      <point x="-34" y="-194" type="qcurve"/>
      <point x="-42" y="-173" type="line"/>
      <point x="20" y="-173"/>
      <point x="70" y="-108"/>
      <point x="70" y="-56" type="qcurve"/>
      <point x="70" y="525" type="line"/>
    </contour>
    <contour>
      <point x="119" y="695" type="qcurve"/>
      <point x="119" y="682"/>
      <point x="105" y="666"/>
      <point x="91" y="666" type="qcurve"/>
      <point x="77" y="666"/>
      <point x="63" y="682"/>
      <point x="63" y="695" type="qcurve"/>
      <point x="63" y="707"/>
      <point x="77" y="724"/>
      <point x="91" y="724" type="qcurve"/>
      <point x="104" y="724"/>
      <point x="119" y="708"/>
    </contour>
  </outline>
</glyph>
<glyph name="k" format="2">
  <advance width="483"/>
  <unicode hex="006B"/>
  <outline>
    <contour>
      <point x="99" y="0" type="line"/>
      <point x="77" y="0" type="line"/>
      <point x="77" y="740" type="line"/>
      <point x="99" y="740" type="line"/>
    </contour>
    <contour>
      <point x="408" y="525" type="line"/>
      <point x="440" y="525" type="line"/>
      <point x="91" y="179" type="line"/>
      <point x="91" y="211" type="line"/>
    </contour>
    <contour>
      <point x="474" y="0" type="line"/>
      <point x="443" y="0" type="line"/>
      <point x="190" y="291" type="line"/>
      <point x="207" y="307" type="line"/>
    </contour>
  </outline>
</glyph>
<glyph name="l" format="2">
  <advance width="166"/>
  <unicode hex="006C"/>
  <outline>
    <contour>
      <point x="94" y="0" type="line"/>
      <point x="72" y="0" type="line"/>
      <point x="72" y="740" type="line"/>
      <point x="94" y="740" type="line"/>
    </contour>
  </outline>
</glyph>
<glyph name="m" format="2">
  <advance width="877"/>
  <unicode hex="006D"/>
  <outline>
    <contour>
      <point x="276" y="530" type="qcurve"/>
      <point x="340" y="530"/>
      <point x="431" y="470"/>
      <point x="447" y="395" type="qcurve"/>
      <point x="435" y="389" type="line"/>
      <point x="441" y="406" type="line"/>
      <point x="467" y="467"/>
      <point x="574" y="530"/>
      <point x="636" y="530" type="qcurve"/>
      <point x="721" y="530"/>
      <point x="814" y="434"/>
      <point x="814" y="328" type="qcurve"/>
      <point x="814" y="0" type="line"/>
      <point x="792" y="0" type="line"/>
      <point x="792" y="328" type="line"/>
      <point x="792" y="423"/>
      <point x="710" y="508"/>
      <point x="634" y="508" type="qcurve"/>
      <point x="556" y="508"/>
      <point x="454" y="412"/>
      <point x="454" y="364" type="qcurve"/>
      <point x="454" y="0" type="line"/>
      <point x="432" y="0" type="line"/>
      <point x="432" y="328" type="line"/>
      <point x="432" y="423"/>
      <point x="350" y="508"/>
      <point x="274" y="508" type="qcurve"/>
      <point x="192" y="508"/>
      <point x="87" y="407"/>
      <point x="87" y="376" type="qcurve"/>
      <point x="87" y="0" type="line"/>
      <point x="65" y="0" type="line"/>
      <point x="65" y="525" type="line"/>
      <point x="85" y="525" type="line"/>
      <point x="88" y="393" type="line"/>
      <point x="73" y="396" type="line"/>
      <point x="110" y="468"/>
      <point x="214" y="530"/>
    </contour>
  </outline>
</glyph>
<glyph name="o" format="2">
  <advance width="615"/>
  <unicode hex="006F"/>
  <outline>
    <contour>
      <point x="308" y="530" type="qcurve"/>
      <point x="427" y="530"/>
      <point x="575" y="380"/>
      <point x="575" y="263" type="qcurve"/>
      <point x="575" y="144"/>
      <point x="427" y="-10"/>
      <point x="308" y="-10" type="qcurve"/>
      <point x="190" y="-10"/>
      <point x="40" y="144"/>
      <point x="40" y="263" type="qcurve"/>
      <point x="40" y="380"/>
      <point x="190" y="530"/>
    </contour>
    <contour>
      <point x="308" y="12" type="qcurve"/>
      <point x="414" y="12"/>
      <point x="553" y="153"/>
      <point x="553" y="263" type="qcurve"/>
      <point x="553" y="369"/>
      <point x="414" y="508"/>
      <point x="308" y="508" type="qcurve"/>
      <point x="201" y="508"/>
      <point x="62" y="369"/>
      <point x="62" y="263" type="qcurve"/>
      <point x="62" y="153"/>
      <point x="201" y="12"/>
    </contour>
  </outline>
</glyph>
<glyph name="u" format="2">
  <advance width="538"/>
  <unicode hex="0075"/>
  <outline>
    <contour>
      <point x="265" y="12" type="qcurve"/>
      <point x="338" y="12"/>
      <point x="444" y="117"/>
      <point x="444" y="149" type="qcurve"/>
      <point x="444" y="525" type="line"/>
      <point x="466" y="525" type="line"/>
      <point x="466" y="0" type="line"/>
      <point x="446" y="0" type="line"/>
      <point x="444" y="121" type="line"/>
      <point x="453" y="123" type="line"/>
      <point x="435" y="69"/>
      <point x="330" y="-10"/>
      <point x="263" y="-10" type="qcurve"/>
      <point x="172" y="-10"/>
      <point x="73" y="88"/>
      <point x="73" y="197" type="qcurve"/>
      <point x="73" y="525" type="line"/>
      <point x="95" y="525" type="line"/>
      <point x="95" y="197" type="line"/>
      <point x="95" y="99"/>
      <point x="183" y="12"/>
    </contour>
  </outline>
</glyph>
<glyph name="z" format="2">
  <advance width="429"/>
  <unicode hex="007A"/>
  <outline>
    <contour>
      <point x="47" y="22" type="line"/>
      <point x="394" y="22" type="line"/>
      <point x="394" y="0" type="line"/>
      <point x="35" y="0" type="line"/>
      <point x="35" y="26" type="line"/>
      <point x="361" y="521" type="line"/>
      <point x="359" y="503" type="line"/>
      <point x="35" y="503" type="line"/>
      <point x="35" y="525" type="line"/>
      <point x="373" y="525" type="line"/>
      <point x="373" y="497" type="line"/>
      <point x="51" y="10" type="line"/>
    </contour>
  </outline>
</glyph>
<glyph name="exclamdown" format="2">
  <advance width="254"/>
  <unicode hex="00A1"/>
  <outline>
    <contour>
      <point x="118" y="289" type="qcurve"/>
      <point x="134" y="289" type="line"/>
      <point x="138" y="195"/>
      <point x="137" y="-7"/>
      <point x="137" y="-100" type="qcurve"/>
      <point x="137" y="-170" type="line"/>
      <point x="115" y="-170" type="line"/>
      <point x="115" y="-100" type="line"/>
      <point x="115" y="-7"/>
      <point x="114" y="195"/>
    </contour>
    <contour>
      <point x="98" y="502" type="qcurve"/>
      <point x="98" y="517"/>
      <point x="114" y="538"/>
      <point x="129" y="538" type="qcurve"/>
      <point x="144" y="538"/>
      <point x="160" y="519"/>
      <point x="160" y="502" type="qcurve"/>
      <point x="160" y="486"/>
      <point x="143" y="466"/>
      <point x="129" y="466" type="qcurve"/>
      <point x="113" y="466"/>
      <point x="98" y="485"/>
    </contour>
  </outline>
</glyph>
<glyph name="cent" format="2">
  <advance width="550"/>
  <unicode hex="00A2"/>
  <outline>
    <contour>
      <point x="305" y="77" type="line"/>
      <point x="305" y="0" type="line"/>
      <point x="283" y="0" type="line"/>
      <point x="283" y="78" type="line"/>
      <point x="283" y="111" type="line"/>
      <point x="283" y="579" type="line"/>
      <point x="283" y="606" type="line"/>
      <point x="283" y="700" type="line"/>
      <point x="305" y="700" type="line"/>
      <point x="305" y="605" type="line"/>
      <point x="305" y="579" type="line"/>
      <point x="305" y="111" type="line"/>
    </contour>
    <contour>
      <point x="312" y="595" type="qcurve"/>
      <point x="205" y="595"/>
      <point x="67" y="458"/>
      <point x="66" y="351" type="qcurve"/>
      <point x="67" y="241"/>
      <point x="205" y="100"/>
      <point x="312" y="100" type="qcurve"/>
      <point x="367" y="100"/>
      <point x="459" y="143"/>
      <point x="492" y="181" type="qcurve"/>
      <point x="508" y="166" type="line"/>
      <point x="472" y="126"/>
      <point x="373" y="78"/>
      <point x="312" y="78" type="qcurve"/>
      <point x="194" y="78"/>
      <point x="44" y="232"/>
      <point x="44" y="351" type="qcurve"/>
      <point x="44" y="468"/>
      <point x="194" y="617"/>
      <point x="312" y="617" type="qcurve"/>
      <point x="374" y="617"/>
      <point x="475" y="571"/>
      <point x="510" y="531" type="qcurve"/>
      <point x="494" y="514" type="line"/>
      <point x="461" y="552"/>
      <point x="368" y="595"/>
    </contour>
  </outline>
</glyph>
<glyph name="guillemotleft" format="2">
  <advance width="481"/>
  <unicode hex="00AB"/>
  <outline>
    <contour>
      <point x="238" y="261" type="line"/>
      <point x="238" y="281" type="line"/>
      <point x="409" y="86" type="line"/>
      <point x="390" y="73" type="line"/>
      <point x="221" y="268" type="line"/>
      <point x="221" y="274" type="line"/>
      <point x="390" y="457" type="line"/>
      <point x="409" y="444" type="line"/>
    </contour>
    <contour>
      <point x="55" y="261" type="line"/>
      <point x="55" y="281" type="line"/>
      <point x="226" y="86" type="line"/>
      <point x="207" y="73" type="line"/>
      <point x="38" y="268" type="line"/>
      <point x="38" y="274" type="line"/>
      <point x="207" y="457" type="line"/>
      <point x="226" y="444" type="line"/>
    </contour>
  </outline>
</glyph>
<glyph name="uni00AD" format="2">
  <advance width="394"/>
  <unicode hex="00AD"/>
  <outline>
    <contour>
      <point x="334" y="263" type="line"/>
      <point x="60" y="263" type="line"/>
      <point x="60" y="285" type="line"/>
      <point x="334" y="285" type="line"/>
    </contour>
  </outline>
</glyph>
<glyph name="registered" format="2">
  <advance width="525"/>
  <unicode hex="00AE"/>
  <outline>
    <contour>
      <point x="490" y="483" type="qcurve"/>
      <point x="490" y="389"/>
      <point x="355" y="257"/>
      <point x="259" y="257" type="qcurve"/>
      <point x="164" y="257"/>
      <point x="28" y="389"/>
      <point x="28" y="483" type="qcurve"/>
      <point x="28" y="577"/>
      <point x="165" y="709"/>
      <point x="259" y="709" type="qcurve"/>
      <point x="355" y="709"/>
      <point x="490" y="577"/>
    </contour>
    <contour>
      <point x="345" y="532" type="qcurve"/>
      <point x="345" y="502"/>
      <point x="301" y="464"/>
      <point x="268" y="464" type="qcurve"/>
      <point x="204" y="464" type="line"/>
      <point x="211" y="469" type="line"/>
      <point x="211" y="367" type="line"/>
      <point x="191" y="367" type="line"/>
      <point x="191" y="606" type="line"/>
      <point x="268" y="606" type="line"/>
      <point x="303" y="606"/>
      <point x="345" y="565"/>
    </contour>
    <contour>
      <point x="204" y="484" type="line"/>
      <point x="263" y="484" type="line"/>
      <point x="290" y="484"/>
      <point x="324" y="512"/>
      <point x="324" y="533" type="qcurve"/>
      <point x="324" y="558"/>
      <point x="295" y="586"/>
      <point x="265" y="586" type="qcurve"/>
      <point x="200" y="586" type="line"/>
      <point x="211" y="594" type="line"/>
      <point x="211" y="478" type="line"/>
    </contour>
    <contour>
      <point x="48" y="483" type="qcurve"/>
      <point x="48" y="397"/>
      <point x="173" y="277"/>
      <point x="259" y="277" type="qcurve"/>
      <point x="346" y="277"/>
      <point x="470" y="397"/>
      <point x="470" y="483" type="qcurve"/>
      <point x="470" y="570"/>
      <point x="346" y="689"/>
      <point x="259" y="689" type="qcurve"/>
      <point x="173" y="689"/>
      <point x="48" y="570"/>
    </contour>
    <contour>
      <point x="314" y="367" type="line"/>
      <point x="273" y="471" type="line"/>
      <point x="292" y="479" type="line"/>
      <point x="337" y="367" type="line"/>
    </contour>
  </outline>
</glyph>
<glyph name="degree" format="2">
  <advance width="532"/>
  <unicode hex="00B0"/>
  <outline>
    <contour>
      <point x="422" y="554" type="qcurve"/>
      <point x="422" y="489"/>
      <point x="332" y="399"/>
      <point x="266" y="399" type="qcurve"/>
      <point x="200" y="399"/>
      <point x="110" y="489"/>
      <point x="110" y="553" type="qcurve"/>
      <point x="110" y="619"/>
      <point x="199" y="709"/>
      <point x="266" y="709" type="qcurve"/>
      <point x="333" y="709"/>
      <point x="422" y="619"/>
    </contour>
    <contour>
      <point x="132" y="553" type="qcurve"/>
      <point x="132" y="499"/>
      <point x="211" y="421"/>
      <point x="266" y="421" type="qcurve"/>
      <point x="321" y="421"/>
      <point x="400" y="500"/>
      <point x="400" y="554" type="qcurve"/>
      <point x="400" y="608"/>
      <point x="320" y="687"/>
      <point x="266" y="687" type="qcurve"/>
      <point x="211" y="687"/>
      <point x="132" y="608"/>
    </contour>
  </outline>
</glyph>
<glyph name="uni00B5" format="2">
  <advance width="549"/>
  <unicode hex="00B5"/>
  <outline>
    <contour>
      <point x="447" y="525" type="line"/>
      <point x="469" y="525" type="line"/>
      <point x="469" y="0" type="line"/>
      <point x="449" y="0" type="line"/>
      <point x="443" y="140" type="line"/>
      <point x="463" y="140" type="line"/>
      <point x="433" y="57"/>
      <point x="326" y="-10"/>
      <point x="263" y="-10" type="qcurve"/>
      <point x="192" y="-10"/>
      <point x="89" y="56"/>
      <point x="78" y="149" type="qcurve"/>
      <point x="95" y="103" type="line"/>
      <point x="95" y="-157" type="line"/>
      <point x="73" y="-157" type="line"/>
      <point x="73" y="525" type="line"/>
      <point x="95" y="525" type="line"/>
      <point x="95" y="174" type="line"/>
      <point x="95" y="99"/>
      <point x="177" y="12"/>
      <point x="263" y="12" type="qcurve"/>
      <point x="341" y="12"/>
      <point x="447" y="122"/>
      <point x="447" y="192" type="qcurve"/>
    </contour>
  </outline>
</glyph>
<glyph name="paragraph" format="2">
  <advance width="594"/>
  <unicode hex="00B6"/>
  <outline>
    <contour>
      <point x="482" y="0" type="line"/>
      <point x="460" y="0" type="line"/>
      <point x="460" y="690" type="line"/>
      <point x="471" y="678" type="line"/>
      <point x="331" y="678" type="line"/>
      <point x="342" y="690" type="line"/>
      <point x="342" y="0" type="line"/>
      <point x="320" y="0" type="line"/>
      <point x="320" y="291" type="line"/>
      <point x="331" y="279" type="line"/>
      <point x="266" y="279" type="line"/>
      <point x="185" y="279"/>
      <point x="78" y="396"/>
      <point x="78" y="486" type="qcurve"/>
      <point x="78" y="583"/>
      <point x="201" y="700"/>
      <point x="303" y="700" type="qcurve"/>
      <point x="482" y="700" type="line"/>
    </contour>
  </outline>
</glyph>
<glyph name="periodcentered" format="2">
  <advance width="228"/>
  <unicode hex="00B7"/>
  <outline>
    <contour>
      <point x="144" y="290" type="qcurve"/>
      <point x="144" y="277"/>
      <point x="128" y="259"/>
      <point x="114" y="259" type="qcurve"/>
      <point x="100" y="259"/>
      <point x="84" y="275"/>
      <point x="84" y="290" type="qcurve"/>
      <point x="84" y="304"/>
      <point x="100" y="321"/>
      <point x="114" y="321" type="qcurve"/>
      <point x="128" y="321"/>
      <point x="144" y="305"/>
    </contour>
  </outline>
</glyph>
<glyph name="ordmasculine" format="2">
  <advance width="360"/>
  <unicode hex="00BA"/>
  <outline>
    <contour>
      <point x="180" y="731" type="qcurve"/>
      <point x="240" y="731"/>
      <point x="320" y="633"/>
      <point x="320" y="561" type="qcurve"/>
      <point x="320" y="489"/>
      <point x="240" y="392"/>
      <point x="180" y="392" type="qcurve"/>
      <point x="121" y="392"/>
      <point x="40" y="489"/>
      <point x="40" y="561" type="qcurve"/>
      <point x="40" y="633"/>
      <point x="121" y="731"/>
    </contour>
    <contour>
      <point x="179" y="412" type="qcurve"/>
      <point x="231" y="412"/>
      <point x="300" y="498"/>
      <point x="300" y="561" type="qcurve"/>
      <point x="300" y="625"/>
      <point x="230" y="711"/>
      <point x="179" y="711" type="qcurve"/>
      <point x="128" y="711"/>
      <point x="60" y="625"/>
      <point x="60" y="561" type="qcurve"/>
      <point x="60" y="498"/>
      <point x="128" y="412"/>
    </contour>
  </outline>
</glyph>
<glyph name="guillemotright" format="2">
  <advance width="497"/>
  <unicode hex="00BB"/>
  <outline>
    <contour>
      <point x="440" y="260" type="line"/>
      <point x="440" y="240" type="line"/>
      <point x="269" y="435" type="line"/>
      <point x="288" y="448" type="line"/>
      <point x="457" y="253" type="line"/>
      <point x="457" y="247" type="line"/>
      <point x="288" y="64" type="line"/>
      <point x="269" y="77" type="line"/>
    </contour>
    <contour>
      <point x="224" y="260" type="line"/>
      <point x="224" y="240" type="line"/>
      <point x="53" y="435" type="line"/>
      <point x="72" y="448" type="line"/>
      <point x="241" y="253" type="line"/>
      <point x="241" y="247" type="line"/>
      <point x="72" y="64" type="line"/>
      <point x="53" y="77" type="line"/>
    </contour>
  </outline>
</glyph>
<glyph name="onequarter" format="2">
  <advance width="817"/>
  <unicode hex="00BC"/>
  <outline>
    <contour>
      <point x="208" y="704" type="line"/>
      <point x="208" y="359" type="line"/>
      <point x="203" y="359"/>
      <point x="191" y="359"/>
      <point x="186" y="359" type="qcurve"/>
      <point x="186" y="678" type="line"/>
      <point x="192" y="678" type="line"/>
      <point x="92" y="622" type="line"/>
      <point x="82" y="639" type="line"/>
      <point x="194" y="704" type="line"/>
    </contour>
    <contour>
      <point x="164" y="0" type="line"/>
      <point x="137" y="0" type="line"/>
      <point x="396" y="388" type="line"/>
      <point x="605" y="700" type="line"/>
      <point x="632" y="700" type="line"/>
      <point x="416" y="377" type="line"/>
    </contour>
    <contour>
      <point x="657" y="0" type="line"/>
      <point x="635" y="0" type="line"/>
      <point x="635" y="90" type="line"/>
      <point x="635" y="102" type="line"/>
      <point x="635" y="344" type="line"/>
      <point x="647" y="334" type="line"/>
      <point x="461" y="94" type="line"/>
      <point x="461" y="107" type="line"/>
      <point x="718" y="107" type="line"/>
      <point x="718" y="85" type="line"/>
      <point x="439" y="85" type="line"/>
      <point x="436" y="99" type="line"/>
      <point x="635" y="356" type="line"/>
      <point x="657" y="356" type="line"/>
    </contour>
  </outline>
</glyph>
<glyph name="onehalf" format="2">
  <advance width="803"/>
  <unicode hex="00BD"/>
  <outline>
    <contour>
      <point x="208" y="704" type="line"/>
      <point x="208" y="359" type="line"/>
      <point x="203" y="359"/>
      <point x="191" y="359"/>
      <point x="186" y="359" type="qcurve"/>
      <point x="186" y="678" type="line"/>
      <point x="192" y="678" type="line"/>
      <point x="92" y="622" type="line"/>
      <point x="82" y="639" type="line"/>
      <point x="194" y="704" type="line"/>
    </contour>
    <contour>
      <point x="163" y="0" type="line"/>
      <point x="136" y="0" type="line"/>
      <point x="395" y="388" type="line"/>
      <point x="604" y="700" type="line"/>
      <point x="631" y="700" type="line"/>
      <point x="415" y="377" type="line"/>
    </contour>
    <contour>
      <point x="752" y="0" type="line"/>
      <point x="532" y="0" type="line"/>
      <point x="529" y="26" type="line"/>
      <point x="603" y="111" type="line"/>
      <point x="623" y="134"/>
      <point x="653" y="166"/>
      <point x="664" y="179" type="qcurve"/>
      <point x="689" y="208"/>
      <point x="717" y="255"/>
      <point x="717" y="276" type="qcurve"/>
      <point x="717" y="305"/>
      <point x="674" y="339"/>
      <point x="645" y="339" type="qcurve"/>
      <point x="616" y="339"/>
      <point x="570" y="309"/>
      <point x="550" y="275" type="qcurve"/>
      <point x="531" y="288" type="line"/>
      <point x="549" y="320"/>
      <point x="607" y="361"/>
      <point x="645" y="361" type="qcurve"/>
      <point x="684" y="361"/>
      <point x="739" y="314"/>
      <point x="739" y="277" type="qcurve"/>
      <point x="739" y="235"/>
      <point x="673" y="155"/>
      <point x="614" y="89" type="qcurve"/>
      <point x="546" y="13" type="line"/>
      <point x="547" y="22" type="line"/>
      <point x="752" y="22" type="line"/>
    </contour>
  </outline>
</glyph>
<glyph name="questiondown" format="2">
  <advance width="438"/>
  <unicode hex="00BF"/>
  <outline>
    <contour>
      <point x="252" y="388" type="line"/>
      <point x="254" y="219" type="line"/>
      <point x="161" y="197"/>
      <point x="63" y="86"/>
      <point x="63" y="12" type="qcurve"/>
      <point x="63" y="-53"/>
      <point x="156" y="-154"/>
      <point x="237" y="-154" type="qcurve"/>
      <point x="295" y="-154"/>
      <point x="394" y="-90"/>
      <point x="420" y="-13" type="qcurve"/>
      <point x="438" y="-25" type="line"/>
      <point x="415" y="-98"/>
      <point x="307" y="-176"/>
      <point x="238" y="-176" type="qcurve"/>
      <point x="150" y="-176"/>
      <point x="40" y="-67"/>
      <point x="40" y="12" type="qcurve"/>
      <point x="40" y="95"/>
      <point x="153" y="219"/>
      <point x="248" y="238" type="qcurve"/>
      <point x="230" y="228" type="line"/>
      <point x="232" y="388" type="line"/>
    </contour>
    <contour>
      <point x="212" y="514" type="qcurve"/>
      <point x="212" y="526"/>
      <point x="225" y="544"/>
      <point x="238" y="544" type="qcurve"/>
      <point x="251" y="544"/>
      <point x="264" y="528"/>
      <point x="264" y="514" type="qcurve"/>
      <point x="264" y="501"/>
      <point x="250" y="484"/>
      <point x="238" y="484" type="qcurve"/>
      <point x="224" y="484"/>
      <point x="212" y="500"/>
    </contour>
  </outline>
</glyph>
<glyph name="Atilde" format="2">
  <advance width="611"/>
  <unicode hex="00C3"/>
  <outline>
    <contour>
      <point x="304" y="682" type="qcurve"/>
      <point x="305" y="682" type="line"/>
      <point x="302" y="672"/>
      <point x="262" y="570"/>
      <point x="237" y="503" type="qcurve"/>
      <point x="46" y="0" type="line"/>
      <point x="20" y="0" type="line"/>
      <point x="289" y="700" type="line"/>
      <point x="322" y="700" type="line"/>
      <point x="591" y="0" type="line"/>
      <point x="565" y="0" type="line"/>
      <point x="372" y="504" type="line"/>
      <point x="348" y="568"/>
      <point x="308" y="672"/>
    </contour>
    <contour>
      <point x="299" y="230" type="line"/>
      <point x="120" y="230" type="line"/>
      <point x="128" y="253" type="line"/>
      <point x="299" y="253" type="line"/>
    </contour>
    <contour>
      <point x="493" y="230" type="line"/>
      <point x="299" y="230" type="line"/>
      <point x="299" y="253" type="line"/>
      <point x="485" y="253" type="line"/>
    </contour>
    <contour>
      <point x="195" y="771" type="qcurve"/>
      <point x="173" y="771" type="line"/>
      <point x="173" y="802"/>
      <point x="208" y="838"/>
      <point x="230" y="838" type="qcurve"/>
      <point x="254" y="838"/>
      <point x="296" y="818"/>
      <point x="314" y="809" type="qcurve"/>
      <point x="321" y="806"/>
      <point x="351" y="792"/>
      <point x="364" y="792" type="qcurve"/>
      <point x="383" y="792"/>
      <point x="415" y="813"/>
      <point x="416" y="837" type="qcurve"/>
      <point x="438" y="837" type="line"/>
      <point x="438" y="805"/>
      <point x="395" y="770"/>
      <point x="366" y="770" type="qcurve"/>
      <point x="342" y="770"/>
      <point x="301" y="790"/>
      <point x="284" y="798" type="qcurve"/>
      <point x="278" y="801"/>
      <point x="247" y="816"/>
      <point x="232" y="816" type="qcurve"/>
      <point x="218" y="816"/>
      <point x="195" y="793"/>
    </contour>
  </outline>
</glyph>
<glyph name="Ccedilla" format="2">
  <advance width="690"/>
  <unicode hex="00C7"/>
  <outline>
    <contour>
      <point x="624" y="99" type="qcurve"/>
      <point x="639" y="81" type="line"/>
      <point x="594" y="38"/>
      <point x="471" y="-10"/>
      <point x="399" y="-10" type="qcurve"/>
      <point x="248" y="-10"/>
      <point x="55" y="189"/>
      <point x="55" y="346" type="qcurve"/>
      <point x="55" y="505"/>
      <point x="248" y="710"/>
      <point x="399" y="710" type="qcurve"/>
      <point x="478" y="710"/>
      <point x="608" y="647"/>
      <point x="655" y="594" type="qcurve"/>
      <point x="637" y="578" type="line"/>
      <point x="593" y="628"/>
      <point x="472" y="688"/>
      <point x="399" y="688" type="qcurve"/>
      <point x="260" y="688"/>
      <point x="78" y="494"/>
      <point x="78" y="346" type="qcurve"/>
      <point x="78" y="200"/>
      <point x="260" y="12"/>
      <point x="399" y="12" type="qcurve"/>
      <point x="467" y="12"/>
      <point x="582" y="58"/>
    </contour>
    <contour>
      <point x="359" y="-76" type="line"/>
      <point x="341" y="-73" type="line"/>
      <point x="395" y="5" type="line"/>
      <point x="417" y="5" type="line"/>
    </contour>
    <contour>
      <point x="474" y="-134" type="qcurve"/>
      <point x="474" y="-152"/>
      <point x="456" y="-188"/>
      <point x="434" y="-197" type="qcurve"/>
      <point x="412" y="-206"/>
      <point x="364" y="-216"/>
      <point x="328" y="-222" type="qcurve"/>
      <point x="324" y="-205" type="line"/>
      <point x="369" y="-198"/>
      <point x="454" y="-174"/>
      <point x="454" y="-133" type="qcurve"/>
      <point x="454" y="-111"/>
      <point x="412" y="-83"/>
      <point x="354" y="-83" type="qcurve"/>
      <point x="341" y="-75" type="line"/>
      <point x="341" y="-73" type="line"/>
      <point x="360" y="-66" type="line"/>
      <point x="423" y="-67"/>
      <point x="474" y="-103"/>
    </contour>
  </outline>
</glyph>
<glyph name="Idieresis" format="2">
  <advance width="386"/>
  <unicode hex="00CF"/>
  <outline>
    <contour>
      <point x="204" y="700" type="qcurve"/>
      <point x="204" y="0" type="line"/>
      <point x="182" y="0" type="line"/>
      <point x="182" y="700" type="line"/>
      <point x="210" y="700"/>
      <point x="176" y="700"/>
    </contour>
    <contour>
      <point x="336" y="700" type="line"/>
      <point x="336" y="678" type="line"/>
      <point x="50" y="678" type="line"/>
      <point x="50" y="700" type="line"/>
    </contour>
    <contour>
      <point x="336" y="22" type="line"/>
      <point x="336" y="0" type="line"/>
      <point x="50" y="0" type="line"/>
      <point x="50" y="22" type="line"/>
    </contour>
    <contour>
      <point x="145" y="797" type="qcurve"/>
      <point x="145" y="785"/>
      <point x="132" y="770"/>
      <point x="118" y="770" type="qcurve"/>
      <point x="106" y="770"/>
      <point x="91" y="785"/>
      <point x="91" y="797" type="qcurve"/>
      <point x="91" y="808"/>
      <point x="105" y="824"/>
      <point x="118" y="824" type="qcurve"/>
      <point x="132" y="824"/>
      <point x="145" y="809"/>
    </contour>
    <contour>
      <point x="295" y="797" type="qcurve"/>
      <point x="295" y="785"/>
      <point x="282" y="770"/>
      <point x="268" y="770" type="qcurve"/>
      <point x="256" y="770"/>
      <point x="241" y="785"/>
      <point x="241" y="797" type="qcurve"/>
      <point x="241" y="808"/>
      <point x="255" y="824"/>
      <point x="268" y="824" type="qcurve"/>
      <point x="282" y="824"/>
      <point x="295" y="809"/>
    </contour>
  </outline>
</glyph>
<glyph name="Ntilde" format="2">
  <advance width="730"/>
  <unicode hex="00D1"/>
  <outline>
    <contour>
      <point x="598" y="241" type="qcurve"/>
      <point x="598" y="700" type="line"/>
      <point x="620" y="700" type="line"/>
      <point x="620" y="0" type="line"/>
      <point x="600" y="0" type="line"/>
      <point x="115" y="686" type="line"/>
      <point x="130" y="686" type="line"/>
      <point x="131" y="661"/>
      <point x="133" y="525"/>
      <point x="132" y="470" type="qcurve"/>
      <point x="132" y="0" type="line"/>
      <point x="110" y="0" type="line"/>
      <point x="110" y="700" type="line"/>
      <point x="132" y="700" type="line"/>
      <point x="605" y="31" type="line"/>
      <point x="601" y="31" type="line"/>
      <point x="601" y="75"/>
      <point x="599" y="177"/>
    </contour>
    <contour>
      <point x="260" y="771" type="qcurve"/>
      <point x="238" y="771" type="line"/>
      <point x="238" y="802"/>
      <point x="273" y="838"/>
      <point x="295" y="838" type="qcurve"/>
      <point x="319" y="838"/>
      <point x="361" y="818"/>
      <point x="379" y="809" type="qcurve"/>
      <point x="386" y="806"/>
      <point x="416" y="792"/>
      <point x="429" y="792" type="qcurve"/>
      <point x="448" y="792"/>
      <point x="480" y="813"/>
      <point x="481" y="837" type="qcurve"/>
      <point x="503" y="837" type="line"/>
      <point x="503" y="805"/>
      <point x="460" y="770"/>
      <point x="431" y="770" type="qcurve"/>
      <point x="407" y="770"/>
      <point x="366" y="790"/>
      <point x="349" y="798" type="qcurve"/>
      <point x="343" y="801"/>
      <point x="312" y="816"/>
      <point x="297" y="816" type="qcurve"/>
      <point x="283" y="816"/>
      <point x="260" y="793"/>
    </contour>
  </outline>
</glyph>
<glyph name="Ocircumflex" format="2">
  <advance width="798"/>
  <unicode hex="00D4"/>
  <outline>
    <contour>
      <point x="399" y="710" type="qcurve"/>
      <point x="550" y="710"/>
      <point x="743" y="508"/>
      <point x="743" y="349" type="qcurve"/>
      <point x="743" y="191"/>
      <point x="550" y="-10"/>
      <point x="399" y="-10" type="qcurve"/>
      <point x="248" y="-10"/>
      <point x="55" y="191"/>
      <point x="55" y="349" type="qcurve"/>
      <point x="55" y="507"/>
      <point x="248" y="710"/>
    </contour>
    <contour>
      <point x="399" y="12" type="qcurve"/>
      <point x="539" y="12"/>
      <point x="720" y="202"/>
      <point x="720" y="349" type="qcurve"/>
      <point x="720" y="496"/>
      <point x="539" y="688"/>
      <point x="399" y="688" type="qcurve"/>
      <point x="260" y="688"/>
      <point x="78" y="496"/>
      <point x="78" y="349" type="qcurve"/>
      <point x="78" y="202"/>
      <point x="260" y="12"/>
    </contour>
    <contour>
      <point x="512" y="770" type="line"/>
      <point x="396" y="862" type="line"/>
      <point x="411" y="862" type="line"/>
      <point x="294" y="770" type="line"/>
      <point x="282" y="783" type="line"/>
      <point x="389" y="875" type="line"/>
      <point x="417" y="875" type="line"/>
      <point x="524" y="783" type="line"/>
    </contour>
  </outline>
</glyph>
<glyph name="Otilde" format="2">
  <advance width="798"/>
  <unicode hex="00D5"/>
  <outline>
    <contour>
      <point x="399" y="710" type="qcurve"/>
      <point x="550" y="710"/>
      <point x="743" y="508"/>
      <point x="743" y="349" type="qcurve"/>
      <point x="743" y="191"/>
      <point x="550" y="-10"/>
      <point x="399" y="-10" type="qcurve"/>
      <point x="248" y="-10"/>
      <point x="55" y="191"/>
      <point x="55" y="349" type="qcurve"/>
      <point x="55" y="507"/>
      <point x="248" y="710"/>
    </contour>
    <contour>
      <point x="399" y="12" type="qcurve"/>
      <point x="539" y="12"/>
      <point x="720" y="202"/>
      <point x="720" y="349" type="qcurve"/>
      <point x="720" y="496"/>
      <point x="539" y="688"/>
      <point x="399" y="688" type="qcurve"/>
      <point x="260" y="688"/>
      <point x="78" y="496"/>
      <point x="78" y="349" type="qcurve"/>
      <point x="78" y="202"/>
      <point x="260" y="12"/>
    </contour>
    <contour>
      <point x="292" y="771" type="qcurve"/>
      <point x="270" y="771" type="line"/>
      <point x="270" y="802"/>
      <point x="306" y="838"/>
      <point x="328" y="838" type="qcurve"/>
      <point x="352" y="838"/>
      <point x="394" y="818"/>
      <point x="412" y="809" type="qcurve"/>
      <point x="418" y="806"/>
      <point x="448" y="792"/>
      <point x="462" y="792" type="qcurve"/>
      <point x="480" y="792"/>
      <point x="512" y="813"/>
      <point x="514" y="837" type="qcurve"/>
      <point x="536" y="837" type="line"/>
      <point x="536" y="805"/>
      <point x="492" y="770"/>
      <point x="464" y="770" type="qcurve"/>
      <point x="440" y="770"/>
      <point x="398" y="790"/>
      <point x="382" y="798" type="qcurve"/>
      <point x="376" y="801"/>
      <point x="344" y="816"/>
      <point x="330" y="816" type="qcurve"/>
      <point x="316" y="816"/>
      <point x="292" y="793"/>
    </contour>
  </outline>
</glyph>
<glyph name="Odieresis" format="2">
  <advance width="798"/>
  <unicode hex="00D6"/>
  <outline>
    <contour>
      <point x="399" y="710" type="qcurve"/>
      <point x="550" y="710"/>
      <point x="743" y="508"/>
      <point x="743" y="349" type="qcurve"/>
      <point x="743" y="191"/>
      <point x="550" y="-10"/>
      <point x="399" y="-10" type="qcurve"/>
      <point x="248" y="-10"/>
      <point x="55" y="191"/>
      <point x="55" y="349" type="qcurve"/>
      <point x="55" y="507"/>
      <point x="248" y="710"/>
    </contour>
    <contour>
      <point x="399" y="12" type="qcurve"/>
      <point x="539" y="12"/>
      <point x="720" y="202"/>
      <point x="720" y="349" type="qcurve"/>
      <point x="720" y="496"/>
      <point x="539" y="688"/>
      <point x="399" y="688" type="qcurve"/>
      <point x="260" y="688"/>
      <point x="78" y="496"/>
      <point x="78" y="349" type="qcurve"/>
      <point x="78" y="202"/>
      <point x="260" y="12"/>
    </contour>
    <contour>
      <point x="355" y="797" type="qcurve"/>
      <point x="355" y="785"/>
      <point x="342" y="770"/>
      <point x="328" y="770" type="qcurve"/>
      <point x="316" y="770"/>
      <point x="301" y="785"/>
      <point x="301" y="797" type="qcurve"/>
      <point x="301" y="808"/>
      <point x="315" y="824"/>
      <point x="328" y="824" type="qcurve"/>
      <point x="342" y="824"/>
      <point x="355" y="809"/>
    </contour>
    <contour>
      <point x="505" y="797" type="qcurve"/>
      <point x="505" y="785"/>
      <point x="492" y="770"/>
      <point x="478" y="770" type="qcurve"/>
      <point x="466" y="770"/>
      <point x="451" y="785"/>
      <point x="451" y="797" type="qcurve"/>
      <point x="451" y="808"/>
      <point x="465" y="824"/>
      <point x="478" y="824" type="qcurve"/>
      <point x="492" y="824"/>
      <point x="505" y="809"/>
    </contour>
  </outline>
</glyph>
<glyph name="multiply" format="2">
  <advance width="444"/>
  <unicode hex="00D7"/>
  <outline>
    <contour>
      <point x="404" y="123" type="line"/>
      <point x="387" y="108" type="line"/>
      <point x="49" y="445" type="line"/>
      <point x="66" y="460" type="line"/>
    </contour>
    <contour>
      <point x="57" y="108" type="line"/>
      <point x="40" y="123" type="line"/>
      <point x="378" y="460" type="line"/>
      <point x="395" y="445" type="line"/>
    </contour>
  </outline>
</glyph>
<glyph name="Udieresis" format="2">
  <advance width="744"/>
  <unicode hex="00DC"/>
  <outline>
    <contour>
      <point x="612" y="700" type="line"/>
      <point x="634" y="700" type="line"/>
      <point x="634" y="269" type="line"/>
      <point x="634" y="149"/>
      <point x="484" y="-6"/>
      <point x="368" y="-6" type="qcurve"/>
      <point x="255" y="-6"/>
      <point x="111" y="149"/>
      <point x="110" y="269" type="qcurve"/>
      <point x="110" y="700" type="line"/>
      <point x="132" y="700" type="line"/>
      <point x="132" y="278" type="line"/>
      <point x="132" y="163"/>
      <point x="263" y="16"/>
      <point x="368" y="16" type="qcurve"/>
      <point x="476" y="16"/>
      <point x="612" y="163"/>
      <point x="612" y="278" type="qcurve"/>
    </contour>
    <contour>
      <point x="324" y="797" type="qcurve"/>
      <point x="324" y="785"/>
      <point x="311" y="770"/>
      <point x="297" y="770" type="qcurve"/>
      <point x="285" y="770"/>
      <point x="270" y="785"/>
      <point x="270" y="797" type="qcurve"/>
      <point x="270" y="808"/>
      <point x="284" y="824"/>
      <point x="297" y="824" type="qcurve"/>
      <point x="311" y="824"/>
      <point x="324" y="809"/>
    </contour>
    <contour>
      <point x="474" y="797" type="qcurve"/>
      <point x="474" y="785"/>
      <point x="461" y="770"/>
      <point x="447" y="770" type="qcurve"/>
      <point x="435" y="770"/>
      <point x="420" y="785"/>
      <point x="420" y="797" type="qcurve"/>
      <point x="420" y="808"/>
      <point x="434" y="824"/>
      <point x="447" y="824" type="qcurve"/>
      <point x="461" y="824"/>
      <point x="474" y="809"/>
    </contour>
  </outline>
</glyph>
<glyph name="atilde" format="2">
  <advance width="602"/>
  <unicode hex="00E3"/>
  <outline>
    <contour>
      <point x="512" y="525" type="line"/>
      <point x="532" y="525" type="line"/>
      <point x="532" y="0" type="line"/>
      <point x="510" y="0" type="line"/>
      <point x="510" y="172" type="line"/>
      <point x="519" y="175" type="line"/>
      <point x="501" y="94"/>
      <point x="377" y="-10"/>
      <point x="294" y="-10" type="qcurve"/>
      <point x="184" y="-10"/>
      <point x="40" y="141"/>
      <point x="40" y="258" type="qcurve"/>
      <point x="40" y="376"/>
      <point x="187" y="530"/>
      <point x="290" y="530" type="qcurve"/>
      <point x="374" y="530"/>
      <point x="502" y="430"/>
      <point x="516" y="350" type="qcurve"/>
      <point x="510" y="353" type="line"/>
    </contour>
    <contour>
      <point x="63" y="258" type="qcurve"/>
      <point x="63" y="152"/>
      <point x="191" y="12"/>
      <point x="294" y="12" type="qcurve"/>
      <point x="386" y="12"/>
      <point x="511" y="150"/>
      <point x="511" y="260" type="qcurve"/>
      <point x="511" y="368"/>
      <point x="386" y="508"/>
      <point x="292" y="508" type="qcurve"/>
      <point x="191" y="508"/>
      <point x="63" y="367"/>
    </contour>
    <contour>
      <point x="180" y="601" type="qcurve"/>
      <point x="160" y="604" type="line"/>
      <point x="160" y="634"/>
      <point x="198" y="676"/>
      <point x="222" y="676" type="qcurve"/>
      <point x="243" y="676"/>
      <point x="281" y="653"/>
      <point x="299" y="640" type="qcurve"/>
      <point x="306" y="635"/>
      <point x="338" y="615"/>
      <point x="352" y="615" type="qcurve"/>
      <point x="367" y="615"/>
      <point x="391" y="640"/>
      <point x="392" y="670" type="qcurve"/>
      <point x="412" y="667" type="line"/>
      <point x="412" y="634"/>
      <point x="375" y="595"/>
      <point x="353" y="595" type="qcurve"/>
      <point x="330" y="595"/>
      <point x="292" y="619"/>
      <point x="275" y="631" type="qcurve"/>
      <point x="267" y="636"/>
      <point x="238" y="656"/>
      <point x="222" y="656" type="qcurve"/>
      <point x="207" y="656"/>
      <point x="180" y="627"/>
    </contour>
  </outline>
</glyph>
<glyph name="adieresis" format="2">
  <advance width="602"/>
  <unicode hex="00E4"/>
  <outline>
    <contour>
      <point x="512" y="525" type="line"/>
      <point x="532" y="525" type="line"/>
      <point x="532" y="0" type="line"/>
      <point x="510" y="0" type="line"/>
      <point x="510" y="172" type="line"/>
      <point x="519" y="175" type="line"/>
      <point x="501" y="94"/>
      <point x="377" y="-10"/>
      <point x="294" y="-10" type="qcurve"/>
      <point x="184" y="-10"/>
      <point x="40" y="141"/>
      <point x="40" y="258" type="qcurve"/>
      <point x="40" y="376"/>
      <point x="187" y="530"/>
      <point x="290" y="530" type="qcurve"/>
      <point x="374" y="530"/>
      <point x="502" y="430"/>
      <point x="516" y="350" type="qcurve"/>
      <point x="510" y="353" type="line"/>
    </contour>
    <contour>
      <point x="63" y="258" type="qcurve"/>
      <point x="63" y="152"/>
      <point x="191" y="12"/>
      <point x="294" y="12" type="qcurve"/>
      <point x="386" y="12"/>
      <point x="511" y="150"/>
      <point x="511" y="260" type="qcurve"/>
      <point x="511" y="368"/>
      <point x="386" y="508"/>
      <point x="292" y="508" type="qcurve"/>
      <point x="191" y="508"/>
      <point x="63" y="367"/>
    </contour>
    <contour>
      <point x="241" y="632" type="qcurve"/>
      <point x="241" y="620"/>
      <point x="228" y="605"/>
      <point x="214" y="605" type="qcurve"/>
      <point x="202" y="605"/>
      <point x="187" y="620"/>
      <point x="187" y="632" type="qcurve"/>
      <point x="187" y="643"/>
      <point x="201" y="659"/>
      <point x="214" y="659" type="qcurve"/>
      <point x="228" y="659"/>
      <point x="241" y="644"/>
    </contour>
    <contour>
      <point x="391" y="632" type="qcurve"/>
      <point x="391" y="620"/>
      <point x="378" y="605"/>
      <point x="364" y="605" type="qcurve"/>
      <point x="352" y="605"/>
      <point x="337" y="620"/>
      <point x="337" y="632" type="qcurve"/>
      <point x="337" y="643"/>
      <point x="351" y="659"/>
      <point x="364" y="659" type="qcurve"/>
      <point x="378" y="659"/>
      <point x="391" y="644"/>
    </contour>
  </outline>
</glyph>
<glyph name="aring" format="2">
  <advance width="602"/>
  <unicode hex="00E5"/>
  <outline>
    <contour>
      <point x="512" y="525" type="line"/>
      <point x="532" y="525" type="line"/>
      <point x="532" y="0" type="line"/>
      <point x="510" y="0" type="line"/>
      <point x="510" y="172" type="line"/>
      <point x="519" y="175" type="line"/>
      <point x="501" y="94"/>
      <point x="377" y="-10"/>
      <point x="294" y="-10" type="qcurve"/>
      <point x="184" y="-10"/>
      <point x="40" y="141"/>
      <point x="40" y="258" type="qcurve"/>
      <point x="40" y="376"/>
      <point x="187" y="530"/>
      <point x="290" y="530" type="qcurve"/>
      <point x="374" y="530"/>
      <point x="502" y="430"/>
      <point x="516" y="350" type="qcurve"/>
      <point x="510" y="353" type="line"/>
    </contour>
    <contour>
      <point x="63" y="258" type="qcurve"/>
      <point x="63" y="152"/>
      <point x="191" y="12"/>
      <point x="294" y="12" type="qcurve"/>
      <point x="386" y="12"/>
      <point x="511" y="150"/>
      <point x="511" y="260" type="qcurve"/>
      <point x="511" y="368"/>
      <point x="386" y="508"/>
      <point x="292" y="508" type="qcurve"/>
      <point x="191" y="508"/>
      <point x="63" y="367"/>
    </contour>
    <contour>
      <point x="378" y="683" type="qcurve"/>
      <point x="378" y="648"/>
      <point x="323" y="595"/>
      <point x="286" y="595" type="qcurve"/>
      <point x="249" y="595"/>
      <point x="194" y="647"/>
      <point x="194" y="683" type="qcurve"/>
      <point x="194" y="720"/>
      <point x="248" y="773"/>
      <point x="286" y="773" type="qcurve"/>
      <point x="324" y="773"/>
      <point x="378" y="720"/>
    </contour>
    <contour>
      <point x="215" y="683" type="qcurve"/>
      <point x="215" y="656"/>
      <point x="257" y="615"/>
      <point x="286" y="615" type="qcurve"/>
      <point x="316" y="615"/>
      <point x="357" y="656"/>
      <point x="357" y="683" type="qcurve"/>
      <point x="357" y="715"/>
      <point x="316" y="753"/>
      <point x="286" y="753" type="qcurve"/>
      <point x="255" y="753"/>
      <point x="215" y="714"/>
    </contour>
  </outline>
</glyph>
<glyph name="iacute" format="2">
  <advance width="182"/>
  <unicode hex="00ED"/>
  <outline>
    <contour>
      <point x="92" y="525" type="line"/>
      <point x="92" y="0" type="line"/>
      <point x="70" y="0" type="line"/>
      <point x="70" y="525" type="line"/>
    </contour>
    <contour>
      <point x="177" y="729" type="line"/>
      <point x="33" y="625" type="line"/>
      <point x="23" y="640" type="line"/>
      <point x="163" y="750" type="line"/>
    </contour>
  </outline>
</glyph>
<glyph name="idieresis" format="2">
  <advance width="182"/>
  <unicode hex="00EF"/>
  <outline>
    <contour>
      <point x="92" y="525" type="line"/>
      <point x="92" y="0" type="line"/>
      <point x="70" y="0" type="line"/>
      <point x="70" y="525" type="line"/>
    </contour>
    <contour>
      <point x="36" y="632" type="qcurve"/>
      <point x="36" y="620"/>
      <point x="23" y="605"/>
      <point x="9" y="605" type="qcurve"/>
      <point x="-3" y="605"/>
      <point x="-18" y="620"/>
      <point x="-18" y="632" type="qcurve"/>
      <point x="-18" y="643"/>
      <point x="-4" y="659"/>
      <point x="9" y="659" type="qcurve"/>
      <point x="23" y="659"/>
      <point x="36" y="644"/>
    </contour>
    <contour>
      <point x="186" y="632" type="qcurve"/>
      <point x="186" y="620"/>
      <point x="173" y="605"/>
      <point x="159" y="605" type="qcurve"/>
      <point x="147" y="605"/>
      <point x="132" y="620"/>
      <point x="132" y="632" type="qcurve"/>
      <point x="132" y="643"/>
      <point x="146" y="659"/>
      <point x="159" y="659" type="qcurve"/>
      <point x="173" y="659"/>
      <point x="186" y="644"/>
    </contour>
  </outline>
</glyph>
<glyph name="ntilde" format="2">
  <advance width="541"/>
  <unicode hex="00F1"/>
  <outline>
    <contour>
      <point x="288" y="530" type="qcurve"/>
      <point x="376" y="530"/>
      <point x="473" y="434"/>
      <point x="473" y="328" type="qcurve"/>
      <point x="473" y="0" type="line"/>
      <point x="451" y="0" type="line"/>
      <point x="451" y="328" type="line"/>
      <point x="451" y="423"/>
      <point x="365" y="508"/>
      <point x="286" y="508" type="qcurve"/>
      <point x="201" y="508"/>
      <point x="92" y="407"/>
      <point x="92" y="376" type="qcurve"/>
      <point x="92" y="0" type="line"/>
      <point x="84" y="0"/>
      <point x="77" y="0"/>
      <point x="70" y="0" type="qcurve"/>
      <point x="70" y="525" type="line"/>
      <point x="90" y="525" type="line"/>
      <point x="92" y="404" type="line"/>
      <point x="83" y="401" type="line"/>
      <point x="99" y="453"/>
      <point x="215" y="530"/>
    </contour>
    <contour>
      <point x="166" y="601" type="qcurve"/>
      <point x="146" y="604" type="line"/>
      <point x="146" y="634"/>
      <point x="184" y="676"/>
      <point x="208" y="676" type="qcurve"/>
      <point x="228" y="676"/>
      <point x="266" y="653"/>
      <point x="284" y="640" type="qcurve"/>
      <point x="292" y="635"/>
      <point x="324" y="615"/>
      <point x="338" y="615" type="qcurve"/>
      <point x="352" y="615"/>
      <point x="376" y="640"/>
      <point x="378" y="670" type="qcurve"/>
      <point x="398" y="667" type="line"/>
      <point x="398" y="634"/>
      <point x="360" y="595"/>
      <point x="338" y="595" type="qcurve"/>
      <point x="316" y="595"/>
      <point x="278" y="619"/>
      <point x="260" y="631" type="qcurve"/>
      <point x="252" y="636"/>
      <point x="224" y="656"/>
      <point x="208" y="656" type="qcurve"/>
      <point x="192" y="656"/>
      <point x="166" y="627"/>
    </contour>
  </outline>
</glyph>
<glyph name="ocircumflex" format="2">
  <advance width="615"/>
  <unicode hex="00F4"/>
  <outline>
    <contour>
      <point x="308" y="530" type="qcurve"/>
      <point x="427" y="530"/>
      <point x="575" y="380"/>
      <point x="575" y="263" type="qcurve"/>
      <point x="575" y="144"/>
      <point x="427" y="-10"/>
      <point x="308" y="-10" type="qcurve"/>
      <point x="190" y="-10"/>
      <point x="40" y="144"/>
      <point x="40" y="263" type="qcurve"/>
      <point x="40" y="380"/>
      <point x="190" y="530"/>
    </contour>
    <contour>
      <point x="308" y="12" type="qcurve"/>
      <point x="414" y="12"/>
      <point x="553" y="153"/>
      <point x="553" y="263" type="qcurve"/>
      <point x="553" y="369"/>
      <point x="414" y="508"/>
      <point x="308" y="508" type="qcurve"/>
      <point x="201" y="508"/>
      <point x="62" y="369"/>
      <point x="62" y="263" type="qcurve"/>
      <point x="62" y="153"/>
      <point x="201" y="12"/>
    </contour>
    <contour>
      <point x="416" y="620" type="line"/>
      <point x="300" y="712" type="line"/>
      <point x="315" y="712" type="line"/>
      <point x="198" y="620" type="line"/>
      <point x="186" y="633" type="line"/>
      <point x="293" y="725" type="line"/>
      <point x="321" y="725" type="line"/>
      <point x="428" y="633" type="line"/>
    </contour>
  </outline>
</glyph>
<glyph name="divide" format="2">
  <advance width="588"/>
  <unicode hex="00F7"/>
  <outline>
    <contour>
      <point x="530" y="286" type="line"/>
      <point x="56" y="286" type="line"/>
      <point x="56" y="308" type="line"/>
      <point x="530" y="308" type="line"/>
    </contour>
    <contour>
      <point x="321" y="148" type="qcurve"/>
      <point x="321" y="137"/>
      <point x="306" y="119"/>
      <point x="293" y="119" type="qcurve"/>
      <point x="280" y="119"/>
      <point x="265" y="136"/>
      <point x="265" y="148" type="qcurve"/>
      <point x="265" y="158"/>
      <point x="280" y="177"/>
      <point x="293" y="177" type="qcurve"/>
      <point x="306" y="177"/>
      <point x="321" y="158"/>
    </contour>
    <contour>
      <point x="321" y="446" type="qcurve"/>
      <point x="321" y="435"/>
      <point x="306" y="417"/>
      <point x="293" y="417" type="qcurve"/>
      <point x="280" y="417"/>
      <point x="265" y="434"/>
      <point x="265" y="446" type="qcurve"/>
      <point x="265" y="456"/>
      <point x="280" y="475"/>
      <point x="293" y="475" type="qcurve"/>
      <point x="306" y="475"/>
      <point x="321" y="456"/>
    </contour>
  </outline>
</glyph>
<glyph name="ugrave" format="2">
  <advance width="538"/>
  <unicode hex="00F9"/>
  <outline>
    <contour>
      <point x="265" y="12" type="qcurve"/>
      <point x="338" y="12"/>
      <point x="444" y="117"/>
      <point x="444" y="149" type="qcurve"/>
      <point x="444" y="525" type="line"/>
      <point x="466" y="525" type="line"/>
      <point x="466" y="0" type="line"/>
      <point x="446" y="0" type="line"/>
      <point x="444" y="121" type="line"/>
      <point x="453" y="123" type="line"/>
      <point x="435" y="69"/>
      <point x="330" y="-10"/>
      <point x="263" y="-10" type="qcurve"/>
      <point x="172" y="-10"/>
      <point x="73" y="88"/>
      <point x="73" y="197" type="qcurve"/>
      <point x="73" y="525" type="line"/>
      <point x="95" y="525" type="line"/>
      <point x="95" y="197" type="line"/>
      <point x="95" y="99"/>
      <point x="183" y="12"/>
    </contour>
    <contour>
      <point x="320" y="634" type="line"/>
      <point x="310" y="619" type="line"/>
      <point x="166" y="723" type="line"/>
      <point x="180" y="744" type="line"/>
    </contour>
  </outline>
</glyph>
<glyph name="udieresis" format="2">
  <advance width="538"/>
  <unicode hex="00FC"/>
  <outline>
    <contour>
      <point x="265" y="12" type="qcurve"/>
      <point x="338" y="12"/>
      <point x="444" y="117"/>
      <point x="444" y="149" type="qcurve"/>
      <point x="444" y="525" type="line"/>
      <point x="466" y="525" type="line"/>
      <point x="466" y="0" type="line"/>
      <point x="446" y="0" type="line"/>
      <point x="444" y="121" type="line"/>
      <point x="453" y="123" type="line"/>
      <point x="435" y="69"/>
      <point x="330" y="-10"/>
      <point x="263" y="-10" type="qcurve"/>
      <point x="172" y="-10"/>
      <point x="73" y="88"/>
      <point x="73" y="197" type="qcurve"/>
      <point x="73" y="525" type="line"/>
      <point x="95" y="525" type="line"/>
      <point x="95" y="197" type="line"/>
      <point x="95" y="99"/>
      <point x="183" y="12"/>
    </contour>
    <contour>
      <point x="214" y="632" type="qcurve"/>
      <point x="214" y="620"/>
      <point x="201" y="605"/>
      <point x="187" y="605" type="qcurve"/>
      <point x="175" y="605"/>
      <point x="160" y="620"/>
      <point x="160" y="632" type="qcurve"/>
      <point x="160" y="643"/>
      <point x="174" y="659"/>
      <point x="187" y="659" type="qcurve"/>
      <point x="201" y="659"/>
      <point x="214" y="644"/>
    </contour>
    <contour>
      <point x="364" y="632" type="qcurve"/>
      <point x="364" y="620"/>
      <point x="351" y="605"/>
      <point x="337" y="605" type="qcurve"/>
      <point x="325" y="605"/>
      <point x="310" y="620"/>
      <point x="310" y="632" type="qcurve"/>
      <point x="310" y="643"/>
      <point x="324" y="659"/>
      <point x="337" y="659" type="qcurve"/>
      <point x="351" y="659"/>
      <point x="364" y="644"/>
    </contour>
  </outline>
</glyph>
<glyph name="ydieresis" format="2">
  <advance width="501"/>
  <unicode hex="00FF"/>
  <outline>
    <contour>
      <point x="268" y="22" type="qcurve"/>
      <point x="257" y="-8" type="line"/>
      <point x="15" y="525" type="line"/>
      <point x="40" y="525" type="line"/>
      <point x="237" y="90" type="line"/>
      <point x="241" y="82"/>
      <point x="263" y="32"/>
    </contour>
    <contour>
      <point x="182" y="-230" type="line"/>
      <point x="157" y="-230" type="line"/>
      <point x="237" y="-29" type="line"/>
      <point x="255" y="16" type="line"/>
      <point x="257" y="20"/>
      <point x="259" y="24"/>
      <point x="261" y="28" type="qcurve"/>
      <point x="461" y="525" type="line"/>
      <point x="486" y="525" type="line"/>
      <point x="269" y="-13" type="line"/>
    </contour>
    <contour>
      <point x="195" y="632" type="qcurve"/>
      <point x="195" y="620"/>
      <point x="182" y="605"/>
      <point x="168" y="605" type="qcurve"/>
      <point x="156" y="605"/>
      <point x="141" y="620"/>
      <point x="141" y="632" type="qcurve"/>
      <point x="141" y="643"/>
      <point x="155" y="659"/>
      <point x="168" y="659" type="qcurve"/>
      <point x="182" y="659"/>
      <point x="195" y="644"/>
    </contour>
    <contour>
      <point x="345" y="632" type="qcurve"/>
      <point x="345" y="620"/>
      <point x="332" y="605"/>
      <point x="318" y="605" type="qcurve"/>
      <point x="306" y="605"/>
      <point x="291" y="620"/>
      <point x="291" y="632" type="qcurve"/>
      <point x="291" y="643"/>
      <point x="305" y="659"/>
      <point x="318" y="659" type="qcurve"/>
      <point x="332" y="659"/>
      <point x="345" y="644"/>
    </contour>
  </outline>
</glyph>
<glyph name="Abreve" format="2">
  <advance width="611"/>
  <unicode hex="0102"/>
  <outline>
    <contour>
      <point x="304" y="682" type="qcurve"/>
      <point x="305" y="682" type="line"/>
      <point x="302" y="672"/>
      <point x="262" y="570"/>
      <point x="237" y="503" type="qcurve"/>
      <point x="46" y="0" type="line"/>
      <point x="20" y="0" type="line"/>
      <point x="289" y="700" type="line"/>
      <point x="322" y="700" type="line"/>
      <point x="591" y="0" type="line"/>
      <point x="565" y="0" type="line"/>
      <point x="372" y="504" type="line"/>
      <point x="348" y="568"/>
      <point x="308" y="672"/>
    </contour>
    <contour>
      <point x="299" y="230" type="line"/>
      <point x="120" y="230" type="line"/>
      <point x="128" y="253" type="line"/>
      <point x="299" y="253" type="line"/>
    </contour>
    <contour>
      <point x="493" y="230" type="line"/>
      <point x="299" y="230" type="line"/>
      <point x="299" y="253" type="line"/>
      <point x="485" y="253" type="line"/>
    </contour>
    <contour>
      <point x="306" y="787" type="qcurve"/>
      <point x="254" y="787"/>
      <point x="186" y="851"/>
      <point x="174" y="907" type="qcurve"/>
      <point x="196" y="909" type="line"/>
      <point x="206" y="861"/>
      <point x="266" y="808"/>
      <point x="306" y="808" type="qcurve"/>
      <point x="344" y="808"/>
      <point x="406" y="861"/>
      <point x="416" y="909" type="qcurve"/>
      <point x="438" y="907" type="line"/>
      <point x="426" y="851"/>
      <point x="356" y="787"/>
    </contour>
  </outline>
</glyph>
<glyph name="abreve" format="2">
  <advance width="602"/>
  <unicode hex="0103"/>
  <outline>
    <contour>
      <point x="512" y="525" type="line"/>
      <point x="532" y="525" type="line"/>
      <point x="532" y="0" type="line"/>
      <point x="510" y="0" type="line"/>
      <point x="510" y="172" type="line"/>
      <point x="519" y="175" type="line"/>
      <point x="501" y="94"/>
      <point x="377" y="-10"/>
      <point x="294" y="-10" type="qcurve"/>
      <point x="184" y="-10"/>
      <point x="40" y="141"/>
      <point x="40" y="258" type="qcurve"/>
      <point x="40" y="376"/>
      <point x="187" y="530"/>
      <point x="290" y="530" type="qcurve"/>
      <point x="374" y="530"/>
      <point x="502" y="430"/>
      <point x="516" y="350" type="qcurve"/>
      <point x="510" y="353" type="line"/>
    </contour>
    <contour>
      <point x="63" y="258" type="qcurve"/>
      <point x="63" y="152"/>
      <point x="191" y="12"/>
      <point x="294" y="12" type="qcurve"/>
      <point x="386" y="12"/>
      <point x="511" y="150"/>
      <point x="511" y="260" type="qcurve"/>
      <point x="511" y="368"/>
      <point x="386" y="508"/>
      <point x="292" y="508" type="qcurve"/>
      <point x="191" y="508"/>
      <point x="63" y="367"/>
    </contour>
    <contour>
      <point x="341" y="612" type="qcurve"/>
      <point x="290" y="612"/>
      <point x="221" y="676"/>
      <point x="209" y="732" type="qcurve"/>
      <point x="231" y="734" type="line"/>
      <point x="241" y="686"/>
      <point x="301" y="633"/>
      <point x="341" y="633" type="qcurve"/>
      <point x="380" y="633"/>
      <point x="442" y="686"/>
      <point x="451" y="734" type="qcurve"/>
      <point x="473" y="732" type="line"/>
      <point x="462" y="676"/>
      <point x="391" y="612"/>
    </contour>
  </outline>
</glyph>
<glyph name="cdotaccent" format="2">
  <advance width="526"/>
  <unicode hex="010B"/>
  <outline>
    <contour>
      <point x="306" y="508" type="qcurve"/>
      <point x="200" y="508"/>
      <point x="63" y="370"/>
      <point x="62" y="263" type="qcurve"/>
      <point x="63" y="153"/>
      <point x="200" y="12"/>
      <point x="306" y="12" type="qcurve"/>
      <point x="362" y="12"/>
      <point x="455" y="55"/>
      <point x="488" y="93" type="qcurve"/>
      <point x="504" y="77" type="line"/>
      <point x="468" y="37"/>
      <point x="368" y="-10"/>
      <point x="306" y="-10" type="qcurve"/>
      <point x="189" y="-10"/>
      <point x="40" y="144"/>
      <point x="40" y="263" type="qcurve"/>
      <point x="40" y="380"/>
      <point x="189" y="530"/>
      <point x="306" y="530" type="qcurve"/>
      <point x="369" y="530"/>
      <point x="471" y="483"/>
      <point x="506" y="443" type="qcurve"/>
      <point x="490" y="426" type="line"/>
      <point x="457" y="464"/>
      <point x="363" y="508"/>
    </contour>
    <contour>
      <point x="317" y="624" type="qcurve"/>
      <point x="317" y="611"/>
      <point x="303" y="595"/>
      <point x="289" y="595" type="qcurve"/>
      <point x="275" y="595"/>
      <point x="261" y="611"/>
      <point x="261" y="624" type="qcurve"/>
      <point x="261" y="636"/>
      <point x="275" y="653"/>
      <point x="289" y="653" type="qcurve"/>
      <point x="302" y="653"/>
      <point x="317" y="637"/>
    </contour>
  </outline>
</glyph>
<glyph name="Ecaron" format="2">
  <advance width="566"/>
  <unicode hex="011A"/>
  <outline>
    <contour>
      <point x="132" y="0" type="line"/>
      <point x="110" y="0" type="line"/>
      <point x="110" y="700" type="line"/>
      <point x="132" y="700" type="line"/>
    </contour>
    <contour>
      <point x="495" y="0" type="line"/>
      <point x="124" y="0" type="line"/>
      <point x="124" y="22" type="line"/>
      <point x="495" y="22" type="line"/>
    </contour>
    <contour>
      <point x="443" y="351" type="line"/>
      <point x="123" y="351" type="line"/>
      <point x="123" y="373" type="line"/>
      <point x="443" y="373" type="line"/>
    </contour>
    <contour>
      <point x="501" y="678" type="line"/>
      <point x="123" y="678" type="line"/>
      <point x="123" y="700" type="line"/>
      <point x="501" y="700" type="line"/>
    </contour>
    <contour>
      <point x="414" y="850" type="line"/>
      <point x="298" y="758" type="line"/>
      <point x="314" y="758" type="line"/>
      <point x="196" y="850" type="line"/>
      <point x="184" y="837" type="line"/>
      <point x="292" y="745" type="line"/>
      <point x="320" y="745" type="line"/>
      <point x="426" y="837" type="line"/>
    </contour>
  </outline>
</glyph>
<glyph name="Gbreve" format="2">
  <advance width="767"/>
  <unicode hex="011E"/>
  <outline>
    <contour>
      <point x="55" y="346" type="qcurve"/>
      <point x="55" y="505"/>
      <point x="248" y="710"/>
      <point x="399" y="710" type="qcurve"/>
      <point x="484" y="710"/>
      <point x="620" y="639"/>
      <point x="668" y="580" type="qcurve"/>
      <point x="651" y="564" type="line"/>
      <point x="608" y="621"/>
      <point x="478" y="688"/>
      <point x="399" y="688" type="qcurve"/>
      <point x="260" y="688"/>
      <point x="78" y="494"/>
      <point x="78" y="346" type="qcurve"/>
      <point x="78" y="200"/>
      <point x="261" y="12"/>
      <point x="400" y="12" type="qcurve"/>
      <point x="544" y="12"/>
      <point x="699" y="184"/>
      <point x="699" y="322" type="qcurve"/>
      <point x="699" y="341" type="line"/>
      <point x="705" y="336" type="line"/>
      <point x="409" y="336" type="line"/>
      <point x="409" y="358" type="line"/>
      <point x="722" y="358" type="line"/>
      <point x="722" y="352"/>
      <point x="722" y="345"/>
      <point x="722" y="339" type="qcurve"/>
      <point x="722" y="168"/>
      <point x="549" y="-10"/>
      <point x="400" y="-10" type="qcurve"/>
      <point x="249" y="-10"/>
      <point x="55" y="189"/>
    </contour>
    <contour>
      <point x="407" y="787" type="qcurve"/>
      <point x="356" y="787"/>
      <point x="287" y="851"/>
      <point x="275" y="907" type="qcurve"/>
      <point x="297" y="909" type="line"/>
      <point x="307" y="861"/>
      <point x="367" y="808"/>
      <point x="407" y="808" type="qcurve"/>
      <point x="446" y="808"/>
      <point x="508" y="861"/>
      <point x="517" y="909" type="qcurve"/>
      <point x="539" y="907" type="line"/>
      <point x="528" y="851"/>
      <point x="457" y="787"/>
    </contour>
  </outline>
</glyph>
<glyph name="hcircumflex" format="2">
  <advance width="531"/>
  <unicode hex="0125"/>
  <outline>
    <contour>
      <point x="283" y="530" type="qcurve"/>
      <point x="371" y="530"/>
      <point x="468" y="434"/>
      <point x="468" y="328" type="qcurve"/>
      <point x="468" y="0" type="line"/>
      <point x="446" y="0" type="line"/>
      <point x="446" y="328" type="line"/>
      <point x="446" y="423"/>
      <point x="360" y="508"/>
      <point x="281" y="508" type="qcurve"/>
      <point x="196" y="508"/>
      <point x="87" y="407"/>
      <point x="87" y="376" type="qcurve"/>
      <point x="87" y="0" type="line"/>
      <point x="79" y="0"/>
      <point x="72" y="0"/>
      <point x="65" y="0" type="qcurve"/>
      <point x="65" y="740" type="line"/>
      <point x="87" y="740" type="line"/>
      <point x="87" y="404" type="line"/>
      <point x="78" y="402" type="line"/>
      <point x="95" y="454"/>
      <point x="211" y="530"/>
    </contour>
    <contour>
      <point x="184" y="795" type="line"/>
      <point x="68" y="887" type="line"/>
      <point x="83" y="887" type="line"/>
      <point x="-34" y="795" type="line"/>
      <point x="-46" y="808" type="line"/>
      <point x="61" y="900" type="line"/>
      <point x="89" y="900" type="line"/>
      <point x="196" y="808" type="line"/>
    </contour>
  </outline>
</glyph>
<glyph name="Hbar" format="2">
  <advance width="731"/>
  <unicode hex="0126"/>
  <outline>
    <contour>
      <point x="110" y="541" type="line"/>
      <point x="24" y="541" type="line"/>
      <point x="24" y="562" type="line"/>
      <point x="110" y="562" type="line"/>
      <point x="127" y="562" type="line"/>
      <point x="606" y="562" type="line"/>
      <point x="621" y="562" type="line"/>
      <point x="706" y="562" type="line"/>
      <point x="706" y="541" type="line"/>
      <point x="621" y="541" type="line"/>
      <point x="606" y="541" type="line"/>
      <point x="127" y="541" type="line"/>
    </contour>
    <contour>
      <point x="110" y="700" type="line"/>
      <point x="132" y="700" type="line"/>
      <point x="132" y="0" type="line"/>
      <point x="110" y="0" type="line"/>
    </contour>
    <contour>
      <point x="599" y="700" type="line"/>
      <point x="621" y="700" type="line"/>
      <point x="621" y="0" type="line"/>
      <point x="599" y="0" type="line"/>
    </contour>
    <contour>
      <point x="121" y="338" type="line"/>
      <point x="121" y="360" type="line"/>
      <point x="610" y="360" type="line"/>
      <point x="610" y="338" type="line"/>
    </contour>
  </outline>
</glyph>
<glyph name="hbar" format="2">
  <advance width="543"/>
  <unicode hex="0127"/>
  <outline>
    <contour>
      <point x="283" y="530" type="qcurve"/>
      <point x="371" y="530"/>
      <point x="468" y="434"/>
      <point x="468" y="328" type="qcurve"/>
      <point x="468" y="0" type="line"/>
      <point x="446" y="0" type="line"/>
      <point x="446" y="328" type="line"/>
      <point x="446" y="423"/>
      <point x="360" y="508"/>
      <point x="281" y="508" type="qcurve"/>
      <point x="196" y="508"/>
      <point x="87" y="407"/>
      <point x="87" y="376" type="qcurve"/>
      <point x="87" y="0" type="line"/>
      <point x="79" y="0"/>
      <point x="72" y="0"/>
      <point x="65" y="0" type="qcurve"/>
      <point x="65" y="740" type="line"/>
      <point x="87" y="740" type="line"/>
      <point x="87" y="404" type="line"/>
      <point x="78" y="402" type="line"/>
      <point x="95" y="454"/>
      <point x="211" y="530"/>
    </contour>
    <contour>
      <point x="270" y="613" type="line"/>
      <point x="2" y="613" type="line"/>
      <point x="2" y="634" type="line"/>
      <point x="270" y="634" type="line"/>
    </contour>
  </outline>
</glyph>
<glyph name="Itilde" format="2">
  <advance width="386"/>
  <unicode hex="0128"/>
  <outline>
    <contour>
      <point x="204" y="700" type="qcurve"/>
      <point x="204" y="0" type="line"/>
      <point x="182" y="0" type="line"/>
      <point x="182" y="700" type="line"/>
      <point x="210" y="700"/>
      <point x="176" y="700"/>
    </contour>
    <contour>
      <point x="336" y="700" type="line"/>
      <point x="336" y="678" type="line"/>
      <point x="50" y="678" type="line"/>
      <point x="50" y="700" type="line"/>
    </contour>
    <contour>
      <point x="336" y="22" type="line"/>
      <point x="336" y="0" type="line"/>
      <point x="50" y="0" type="line"/>
      <point x="50" y="22" type="line"/>
    </contour>
    <contour>
      <point x="82" y="771" type="qcurve"/>
      <point x="60" y="771" type="line"/>
      <point x="60" y="802"/>
      <point x="96" y="838"/>
      <point x="118" y="838" type="qcurve"/>
      <point x="142" y="838"/>
      <point x="184" y="818"/>
      <point x="202" y="809" type="qcurve"/>
      <point x="208" y="806"/>
      <point x="238" y="792"/>
      <point x="252" y="792" type="qcurve"/>
      <point x="270" y="792"/>
      <point x="302" y="813"/>
      <point x="304" y="837" type="qcurve"/>
      <point x="326" y="837" type="line"/>
      <point x="326" y="805"/>
      <point x="282" y="770"/>
      <point x="254" y="770" type="qcurve"/>
      <point x="230" y="770"/>
      <point x="188" y="790"/>
      <point x="172" y="798" type="qcurve"/>
      <point x="166" y="801"/>
      <point x="134" y="816"/>
      <point x="120" y="816" type="qcurve"/>
      <point x="106" y="816"/>
      <point x="82" y="793"/>
    </contour>
  </outline>
</glyph>
<glyph name="itilde" format="2">
  <advance width="182"/>
  <unicode hex="0129"/>
  <outline>
    <contour>
      <point x="92" y="525" type="line"/>
      <point x="92" y="0" type="line"/>
      <point x="70" y="0" type="line"/>
      <point x="70" y="525" type="line"/>
    </contour>
    <contour>
      <point x="-15" y="601" type="qcurve"/>
      <point x="-35" y="604" type="line"/>
      <point x="-35" y="634"/>
      <point x="3" y="676"/>
      <point x="27" y="676" type="qcurve"/>
      <point x="48" y="676"/>
      <point x="86" y="653"/>
      <point x="104" y="640" type="qcurve"/>
      <point x="111" y="635"/>
      <point x="143" y="615"/>
      <point x="157" y="615" type="qcurve"/>
      <point x="172" y="615"/>
      <point x="196" y="640"/>
      <point x="197" y="670" type="qcurve"/>
      <point x="217" y="667" type="line"/>
      <point x="217" y="634"/>
      <point x="180" y="595"/>
      <point x="158" y="595" type="qcurve"/>
      <point x="135" y="595"/>
      <point x="97" y="619"/>
      <point x="80" y="631" type="qcurve"/>
      <point x="72" y="636"/>
      <point x="43" y="656"/>
      <point x="27" y="656" type="qcurve"/>
      <point x="12" y="656"/>
      <point x="-15" y="627"/>
    </contour>
  </outline>
</glyph>
<glyph name="Ibreve" format="2">
  <advance width="386"/>
  <unicode hex="012C"/>
  <outline>
    <contour>
      <point x="204" y="700" type="qcurve"/>
      <point x="204" y="0" type="line"/>
      <point x="182" y="0" type="line"/>
      <point x="182" y="700" type="line"/>
      <point x="210" y="700"/>
      <point x="176" y="700"/>
    </contour>
    <contour>
      <point x="336" y="700" type="line"/>
      <point x="336" y="678" type="line"/>
      <point x="50" y="678" type="line"/>
      <point x="50" y="700" type="line"/>
    </contour>
    <contour>
      <point x="336" y="22" type="line"/>
      <point x="336" y="0" type="line"/>
      <point x="50" y="0" type="line"/>
      <point x="50" y="22" type="line"/>
    </contour>
    <contour>
      <point x="193" y="787" type="qcurve"/>
      <point x="142" y="787"/>
      <point x="73" y="851"/>
      <point x="61" y="907" type="qcurve"/>
      <point x="83" y="909" type="line"/>
      <point x="93" y="861"/>
      <point x="153" y="808"/>
      <point x="193" y="808" type="qcurve"/>
      <point x="232" y="808"/>
      <point x="294" y="861"/>
      <point x="303" y="909" type="qcurve"/>
      <point x="325" y="907" type="line"/>
      <point x="314" y="851"/>
      <point x="243" y="787"/>
    </contour>
  </outline>
</glyph>
<glyph name="ibreve" format="2">
  <advance width="182"/>
  <unicode hex="012D"/>
  <outline>
    <contour>
      <point x="92" y="525" type="line"/>
      <point x="92" y="0" type="line"/>
      <point x="70" y="0" type="line"/>
      <point x="70" y="525" type="line"/>
    </contour>
    <contour>
      <point x="91" y="612" type="qcurve"/>
      <point x="40" y="612"/>
      <point x="-29" y="676"/>
      <point x="-41" y="732" type="qcurve"/>
      <point x="-19" y="734" type="line"/>
      <point x="-9" y="686"/>
      <point x="51" y="633"/>
      <point x="91" y="633" type="qcurve"/>
      <point x="130" y="633"/>
      <point x="192" y="686"/>
      <point x="201" y="734" type="qcurve"/>
      <point x="223" y="732" type="line"/>
      <point x="212" y="676"/>
      <point x="141" y="612"/>
    </contour>
  </outline>
</glyph>
<glyph name="Iogonek" format="2">
  <advance width="401"/>
  <unicode hex="012E"/>
  <outline>
    <contour>
      <point x="204" y="700" type="qcurve"/>
      <point x="204" y="0" type="line"/>
      <point x="182" y="0" type="line"/>
      <point x="182" y="700" type="line"/>
      <point x="210" y="700"/>
      <point x="176" y="700"/>
    </contour>
    <contour>
      <point x="336" y="700" type="line"/>
      <point x="336" y="678" type="line"/>
      <point x="50" y="678" type="line"/>
      <point x="50" y="700" type="line"/>
    </contour>
    <contour>
      <point x="336" y="22" type="line"/>
      <point x="336" y="0" type="line"/>
      <point x="50" y="0" type="line"/>
      <point x="50" y="22" type="line"/>
    </contour>
    <contour>
      <point x="222" y="-230" type="qcurve"/>
      <point x="180" y="-230"/>
      <point x="122" y="-172"/>
      <point x="122" y="-130" type="qcurve"/>
      <point x="122" y="-70"/>
      <point x="218" y="8"/>
      <point x="277" y="18" type="qcurve"/>
      <point x="282" y="8" type="line"/>
      <point x="282" y="0" type="line"/>
      <point x="224" y="-10"/>
      <point x="144" y="-77"/>
      <point x="144" y="-130" type="qcurve"/>
      <point x="144" y="-163"/>
      <point x="189" y="-208"/>
      <point x="222" y="-208" type="qcurve"/>
      <point x="248" y="-208"/>
      <point x="286" y="-183"/>
      <point x="297" y="-163" type="qcurve"/>
      <point x="312" y="-176" type="line"/>
      <point x="300" y="-200"/>
      <point x="252" y="-230"/>
    </contour>
  </outline>
</glyph>
<glyph name="Idotaccent" format="2">
  <advance width="386"/>
  <unicode hex="0130"/>
  <outline>
    <contour>
      <point x="204" y="700" type="qcurve"/>
      <point x="204" y="0" type="line"/>
      <point x="182" y="0" type="line"/>
      <point x="182" y="700" type="line"/>
      <point x="210" y="700"/>
      <point x="176" y="700"/>
    </contour>
    <contour>
      <point x="336" y="700" type="line"/>
      <point x="336" y="678" type="line"/>
      <point x="50" y="678" type="line"/>
      <point x="50" y="700" type="line"/>
    </contour>
    <contour>
      <point x="336" y="22" type="line"/>
      <point x="336" y="0" type="line"/>
      <point x="50" y="0" type="line"/>
      <point x="50" y="22" type="line"/>
    </contour>
    <contour>
      <point x="221" y="799" type="qcurve"/>
      <point x="221" y="786"/>
      <point x="207" y="770"/>
      <point x="193" y="770" type="qcurve"/>
      <point x="179" y="770"/>
      <point x="165" y="786"/>
      <point x="165" y="799" type="qcurve"/>
      <point x="165" y="811"/>
      <point x="179" y="828"/>
      <point x="193" y="828" type="qcurve"/>
      <point x="206" y="828"/>
      <point x="221" y="812"/>
    </contour>
  </outline>
</glyph>
<glyph name="dotlessi" format="2">
  <advance width="162"/>
  <unicode hex="0131"/>
  <outline>
    <contour>
      <point x="92" y="525" type="line"/>
      <point x="92" y="0" type="line"/>
      <point x="70" y="0" type="line"/>
      <point x="70" y="525" type="line"/>
    </contour>
  </outline>
</glyph>
<glyph name="IJ" format="2">
  <advance width="905"/>
  <unicode hex="0132"/>
  <outline>
    <contour>
      <point x="204" y="700" type="qcurve"/>
      <point x="204" y="0" type="line"/>
      <point x="182" y="0" type="line"/>
      <point x="182" y="700" type="line"/>
      <point x="210" y="700"/>
      <point x="176" y="700"/>
    </contour>
    <contour>
      <point x="336" y="700" type="line"/>
      <point x="336" y="678" type="line"/>
      <point x="50" y="678" type="line"/>
      <point x="50" y="700" type="line"/>
    </contour>
    <contour>
      <point x="336" y="22" type="line"/>
      <point x="336" y="0" type="line"/>
      <point x="50" y="0" type="line"/>
      <point x="50" y="22" type="line"/>
    </contour>
    <contour>
      <point x="555" y="-10" type="qcurve"/>
      <point x="486" y="-10"/>
      <point x="390" y="60"/>
      <point x="366" y="120" type="qcurve"/>
      <point x="382" y="135" type="line"/>
      <point x="410" y="72"/>
      <point x="497" y="12"/>
      <point x="557" y="12" type="qcurve"/>
      <point x="632" y="12"/>
      <point x="727" y="107"/>
      <point x="727" y="213" type="qcurve"/>
      <point x="727" y="700" type="line"/>
      <point x="749" y="700" type="line"/>
      <point x="749" y="213" type="line"/>
      <point x="749" y="97"/>
      <point x="640" y="-10"/>
    </contour>
    <contour>
      <point x="855" y="700" type="line"/>
      <point x="855" y="678" type="line"/>
      <point x="598" y="678" type="line"/>
      <point x="598" y="700" type="line"/>
    </contour>
  </outline>
</glyph>
<glyph name="jcircumflex" format="2">
  <advance width="226"/>
  <unicode hex="0135"/>
  <outline>
    <contour>
      <point x="150" y="525" type="line"/>
      <point x="150" y="-60" type="line"/>
      <point x="150" y="-125"/>
      <point x="84" y="-194"/>
      <point x="24" y="-194" type="qcurve"/>
      <point x="16" y="-173" type="line"/>
      <point x="78" y="-173"/>
      <point x="128" y="-108"/>
      <point x="128" y="-56" type="qcurve"/>
      <point x="128" y="525" type="line"/>
    </contour>
    <contour>
      <point x="249" y="620" type="line"/>
      <point x="133" y="712" type="line"/>
      <point x="148" y="712" type="line"/>
      <point x="31" y="620" type="line"/>
      <point x="19" y="633" type="line"/>
      <point x="126" y="725" type="line"/>
      <point x="154" y="725" type="line"/>
      <point x="261" y="633" type="line"/>
    </contour>
  </outline>
</glyph>
<glyph name="uni0137" format="2">
  <advance width="483"/>
  <unicode hex="0137"/>
  <outline>
    <contour>
      <point x="99" y="0" type="line"/>
      <point x="77" y="0" type="line"/>
      <point x="77" y="740" type="line"/>
      <point x="99" y="740" type="line"/>
    </contour>
    <contour>
      <point x="408" y="525" type="line"/>
      <point x="440" y="525" type="line"/>
      <point x="91" y="179" type="line"/>
      <point x="91" y="211" type="line"/>
    </contour>
    <contour>
      <point x="474" y="0" type="line"/>
      <point x="443" y="0" type="line"/>
      <point x="190" y="291" type="line"/>
      <point x="207" y="307" type="line"/>
    </contour>
    <contour>
      <point x="260" y="-192" type="qcurve"/>
      <point x="247" y="-179" type="line"/>
      <point x="269" y="-160"/>
      <point x="281" y="-141"/>
      <point x="281" y="-132" type="qcurve"/>
      <point x="281" y="-124"/>
      <point x="275" y="-114"/>
      <point x="264" y="-109" type="qcurve"/>
      <point x="254" y="-104"/>
      <point x="244" y="-90"/>
      <point x="244" y="-80" type="qcurve"/>
      <point x="244" y="-71"/>
      <point x="258" y="-56"/>
      <point x="271" y="-56" type="qcurve"/>
      <point x="288" y="-56"/>
      <point x="307" y="-81"/>
      <point x="307" y="-102" type="qcurve"/>
      <point x="307" y="-128"/>
      <point x="289" y="-169"/>
    </contour>
  </outline>
</glyph>
<glyph name="Lacute" format="2">
  <advance width="493"/>
  <unicode hex="0139"/>
  <outline>
    <contour>
      <point x="122" y="22" type="line"/>
      <point x="483" y="22" type="line"/>
      <point x="483" y="0" type="line"/>
      <point x="110" y="0" type="line"/>
      <point x="110" y="700" type="line"/>
      <point x="132" y="700" type="line"/>
      <point x="132" y="13" type="line"/>
    </contour>
    <contour>
      <point x="248" y="869" type="line"/>
      <point x="102" y="770" type="line"/>
      <point x="92" y="785" type="line"/>
      <point x="234" y="890" type="line"/>
    </contour>
  </outline>
</glyph>
<glyph name="uni013B" format="2">
  <advance width="493"/>
  <unicode hex="013B"/>
  <outline>
    <contour>
      <point x="122" y="22" type="line"/>
      <point x="483" y="22" type="line"/>
      <point x="483" y="0" type="line"/>
      <point x="110" y="0" type="line"/>
      <point x="110" y="700" type="line"/>
      <point x="132" y="700" type="line"/>
      <point x="132" y="13" type="line"/>
    </contour>
    <contour>
      <point x="292" y="-192" type="qcurve"/>
      <point x="278" y="-179" type="line"/>
      <point x="300" y="-160"/>
      <point x="312" y="-141"/>
      <point x="312" y="-132" type="qcurve"/>
      <point x="312" y="-124"/>
      <point x="306" y="-114"/>
      <point x="296" y="-109" type="qcurve"/>
      <point x="286" y="-104"/>
      <point x="276" y="-90"/>
      <point x="276" y="-80" type="qcurve"/>
      <point x="276" y="-71"/>
      <point x="290" y="-56"/>
      <point x="302" y="-56" type="qcurve"/>
      <point x="320" y="-56"/>
      <point x="338" y="-81"/>
      <point x="338" y="-102" type="qcurve"/>
      <point x="338" y="-128"/>
      <point x="320" y="-169"/>
    </contour>
  </outline>
</glyph>
<glyph name="lcaron" format="2">
  <advance width="258"/>
  <unicode hex="013E"/>
  <outline>
    <contour>
      <point x="94" y="0" type="line"/>
      <point x="72" y="0" type="line"/>
      <point x="72" y="740" type="line"/>
      <point x="94" y="740" type="line"/>
    </contour>
    <contour>
      <point x="217" y="603" type="qcurve"/>
      <point x="204" y="616" type="line"/>
      <point x="226" y="635"/>
      <point x="238" y="654"/>
      <point x="238" y="663" type="qcurve"/>
      <point x="238" y="671"/>
      <point x="232" y="681"/>
      <point x="221" y="686" type="qcurve"/>
      <point x="211" y="691"/>
      <point x="201" y="705"/>
      <point x="201" y="715" type="qcurve"/>
      <point x="201" y="724"/>
      <point x="215" y="739"/>
      <point x="228" y="739" type="qcurve"/>
      <point x="245" y="739"/>
      <point x="264" y="714"/>
      <point x="264" y="693" type="qcurve"/>
      <point x="264" y="667"/>
      <point x="246" y="626"/>
    </contour>
  </outline>
</glyph>
<glyph name="lslash" format="2">
  <advance width="292"/>
  <unicode hex="0142"/>
  <outline>
    <contour>
      <point x="157" y="0" type="line"/>
      <point x="135" y="0" type="line"/>
      <point x="135" y="740" type="line"/>
      <point x="157" y="740" type="line"/>
    </contour>
    <contour>
      <point x="18" y="283" type="line"/>
      <point x="10" y="304" type="line"/>
      <point x="274" y="425" type="line"/>
      <point x="282" y="404" type="line"/>
    </contour>
  </outline>
</glyph>
<glyph name="uni0145" format="2">
  <advance width="730"/>
  <unicode hex="0145"/>
  <outline>
    <contour>
      <point x="598" y="241" type="qcurve"/>
      <point x="598" y="700" type="line"/>
      <point x="620" y="700" type="line"/>
      <point x="620" y="0" type="line"/>
      <point x="600" y="0" type="line"/>
      <point x="115" y="686" type="line"/>
      <point x="130" y="686" type="line"/>
      <point x="131" y="661"/>
      <point x="133" y="525"/>
      <point x="132" y="470" type="qcurve"/>
      <point x="132" y="0" type="line"/>
      <point x="110" y="0" type="line"/>
      <point x="110" y="700" type="line"/>
      <point x="132" y="700" type="line"/>
      <point x="605" y="31" type="line"/>
      <point x="601" y="31" type="line"/>
      <point x="601" y="75"/>
      <point x="599" y="177"/>
    </contour>
    <contour>
      <point x="350" y="-192" type="qcurve"/>
      <point x="336" y="-179" type="line"/>
      <point x="358" y="-160"/>
      <point x="370" y="-141"/>
      <point x="370" y="-132" type="qcurve"/>
      <point x="370" y="-124"/>
      <point x="364" y="-114"/>
      <point x="354" y="-109" type="qcurve"/>
      <point x="344" y="-104"/>
      <point x="334" y="-90"/>
      <point x="334" y="-80" type="qcurve"/>
      <point x="334" y="-71"/>
      <point x="348" y="-56"/>
      <point x="360" y="-56" type="qcurve"/>
      <point x="378" y="-56"/>
      <point x="396" y="-81"/>
      <point x="396" y="-102" type="qcurve"/>
      <point x="396" y="-128"/>
      <point x="378" y="-169"/>
    </contour>
  </outline>
</glyph>
<glyph name="uni0146" format="2">
  <advance width="541"/>
  <unicode hex="0146"/>
  <outline>
    <contour>
      <point x="288" y="530" type="qcurve"/>
      <point x="376" y="530"/>
      <point x="473" y="434"/>
      <point x="473" y="328" type="qcurve"/>
      <point x="473" y="0" type="line"/>
      <point x="451" y="0" type="line"/>
      <point x="451" y="328" type="line"/>
      <point x="451" y="423"/>
      <point x="365" y="508"/>
      <point x="286" y="508" type="qcurve"/>
      <point x="201" y="508"/>
      <point x="92" y="407"/>
      <point x="92" y="376" type="qcurve"/>
      <point x="92" y="0" type="line"/>
      <point x="84" y="0"/>
      <point x="77" y="0"/>
      <point x="70" y="0" type="qcurve"/>
      <point x="70" y="525" type="line"/>
      <point x="90" y="525" type="line"/>
      <point x="92" y="404" type="line"/>
      <point x="83" y="401" type="line"/>
      <point x="99" y="453"/>
      <point x="215" y="530"/>
    </contour>
    <contour>
      <point x="256" y="-192" type="qcurve"/>
      <point x="243" y="-179" type="line"/>
      <point x="265" y="-160"/>
      <point x="277" y="-141"/>
      <point x="277" y="-132" type="qcurve"/>
      <point x="277" y="-124"/>
      <point x="271" y="-114"/>
      <point x="260" y="-109" type="qcurve"/>
      <point x="250" y="-104"/>
      <point x="240" y="-90"/>
      <point x="240" y="-80" type="qcurve"/>
      <point x="240" y="-71"/>
      <point x="254" y="-56"/>
      <point x="267" y="-56" type="qcurve"/>
      <point x="284" y="-56"/>
      <point x="303" y="-81"/>
      <point x="303" y="-102" type="qcurve"/>
      <point x="303" y="-128"/>
      <point x="285" y="-169"/>
    </contour>
  </outline>
</glyph>
<glyph name="Ncaron" format="2">
  <advance width="730"/>
  <unicode hex="0147"/>
  <outline>
    <contour>
      <point x="598" y="241" type="qcurve"/>
      <point x="598" y="700" type="line"/>
      <point x="620" y="700" type="line"/>
      <point x="620" y="0" type="line"/>
      <point x="600" y="0" type="line"/>
      <point x="115" y="686" type="line"/>
      <point x="130" y="686" type="line"/>
      <point x="131" y="661"/>
      <point x="133" y="525"/>
      <point x="132" y="470" type="qcurve"/>
      <point x="132" y="0" type="line"/>
      <point x="110" y="0" type="line"/>
      <point x="110" y="700" type="line"/>
      <point x="132" y="700" type="line"/>
      <point x="605" y="31" type="line"/>
      <point x="601" y="31" type="line"/>
      <point x="601" y="75"/>
      <point x="599" y="177"/>
    </contour>
    <contour>
      <point x="474" y="850" type="line"/>
      <point x="358" y="758" type="line"/>
      <point x="373" y="758" type="line"/>
      <point x="256" y="850" type="line"/>
      <point x="244" y="837" type="line"/>
      <point x="351" y="745" type="line"/>
      <point x="379" y="745" type="line"/>
      <point x="486" y="837" type="line"/>
    </contour>
  </outline>
</glyph>
<glyph name="ncaron" format="2">
  <advance width="541"/>
  <unicode hex="0148"/>
  <outline>
    <contour>
      <point x="288" y="530" type="qcurve"/>
      <point x="376" y="530"/>
      <point x="473" y="434"/>
      <point x="473" y="328" type="qcurve"/>
      <point x="473" y="0" type="line"/>
      <point x="451" y="0" type="line"/>
      <point x="451" y="328" type="line"/>
      <point x="451" y="423"/>
      <point x="365" y="508"/>
      <point x="286" y="508" type="qcurve"/>
      <point x="201" y="508"/>
      <point x="92" y="407"/>
      <point x="92" y="376" type="qcurve"/>
      <point x="92" y="0" type="line"/>
      <point x="84" y="0"/>
      <point x="77" y="0"/>
      <point x="70" y="0" type="qcurve"/>
      <point x="70" y="525" type="line"/>
      <point x="90" y="525" type="line"/>
      <point x="92" y="404" type="line"/>
      <point x="83" y="401" type="line"/>
      <point x="99" y="453"/>
      <point x="215" y="530"/>
    </contour>
    <contour>
      <point x="280" y="608" type="line"/>
      <point x="264" y="608" type="line"/>
      <point x="380" y="700" type="line"/>
      <point x="392" y="687" type="line"/>
      <point x="286" y="595" type="line"/>
      <point x="258" y="595" type="line"/>
      <point x="150" y="687" type="line"/>
      <point x="162" y="700" type="line"/>
    </contour>
  </outline>
</glyph>
<glyph name="napostrophe" format="2">
  <advance width="761"/>
  <unicode hex="0149"/>
  <outline>
    <contour>
      <point x="79" y="442" type="line"/>
      <point x="117" y="700" type="line"/>
      <point x="144" y="700" type="line"/>
      <point x="97" y="442" type="line"/>
    </contour>
    <contour>
      <point x="454" y="530" type="qcurve"/>
      <point x="542" y="530"/>
      <point x="639" y="434"/>
      <point x="639" y="328" type="qcurve"/>
      <point x="639" y="0" type="line"/>
      <point x="617" y="0" type="line"/>
      <point x="617" y="328" type="line"/>
      <point x="617" y="423"/>
      <point x="531" y="508"/>
      <point x="452" y="508" type="qcurve"/>
      <point x="367" y="508"/>
      <point x="258" y="407"/>
      <point x="258" y="376" type="qcurve"/>
      <point x="258" y="0" type="line"/>
      <point x="250" y="0"/>
      <point x="243" y="0"/>
      <point x="236" y="0" type="qcurve"/>
      <point x="236" y="525" type="line"/>
      <point x="256" y="525" type="line"/>
      <point x="258" y="404" type="line"/>
      <point x="249" y="401" type="line"/>
      <point x="265" y="453"/>
      <point x="381" y="530"/>
    </contour>
  </outline>
</glyph>
<glyph name="obreve" format="2">
  <advance width="615"/>
  <unicode hex="014F"/>
  <outline>
    <contour>
      <point x="308" y="530" type="qcurve"/>
      <point x="427" y="530"/>
      <point x="575" y="380"/>
      <point x="575" y="263" type="qcurve"/>
      <point x="575" y="144"/>
      <point x="427" y="-10"/>
      <point x="308" y="-10" type="qcurve"/>
      <point x="190" y="-10"/>
      <point x="40" y="144"/>
      <point x="40" y="263" type="qcurve"/>
      <point x="40" y="380"/>
      <point x="190" y="530"/>
    </contour>
    <contour>
      <point x="308" y="12" type="qcurve"/>
      <point x="414" y="12"/>
      <point x="553" y="153"/>
      <point x="553" y="263" type="qcurve"/>
      <point x="553" y="369"/>
      <point x="414" y="508"/>
      <point x="308" y="508" type="qcurve"/>
      <point x="201" y="508"/>
      <point x="62" y="369"/>
      <point x="62" y="263" type="qcurve"/>
      <point x="62" y="153"/>
      <point x="201" y="12"/>
    </contour>
    <contour>
      <point x="307" y="612" type="qcurve"/>
      <point x="256" y="612"/>
      <point x="187" y="676"/>
      <point x="175" y="732" type="qcurve"/>
      <point x="197" y="734" type="line"/>
      <point x="207" y="686"/>
      <point x="267" y="633"/>
      <point x="307" y="633" type="qcurve"/>
      <point x="346" y="633"/>
      <point x="408" y="686"/>
      <point x="417" y="734" type="qcurve"/>
      <point x="439" y="732" type="line"/>
      <point x="428" y="676"/>
      <point x="357" y="612"/>
    </contour>
  </outline>
</glyph>
<glyph name="oe" format="2">
  <advance width="1048"/>
  <unicode hex="0153"/>
  <outline>
    <contour>
      <point x="308" y="530" type="qcurve"/>
      <point x="427" y="530"/>
      <point x="575" y="380"/>
      <point x="575" y="263" type="qcurve"/>
      <point x="575" y="144"/>
      <point x="427" y="-10"/>
      <point x="308" y="-10" type="qcurve"/>
      <point x="190" y="-10"/>
      <point x="40" y="144"/>
      <point x="40" y="263" type="qcurve"/>
      <point x="40" y="380"/>
      <point x="190" y="530"/>
    </contour>
    <contour>
      <point x="308" y="12" type="qcurve"/>
      <point x="414" y="12"/>
      <point x="553" y="153"/>
      <point x="553" y="263" type="qcurve"/>
      <point x="553" y="369"/>
      <point x="414" y="508"/>
      <point x="308" y="508" type="qcurve"/>
      <point x="201" y="508"/>
      <point x="62" y="369"/>
      <point x="62" y="263" type="qcurve"/>
      <point x="62" y="153"/>
      <point x="201" y="12"/>
    </contour>
    <contour>
      <point x="985" y="83" type="qcurve"/>
      <point x="997" y="65" type="line"/>
      <point x="960" y="31"/>
      <point x="867" y="-10"/>
      <point x="810" y="-10" type="qcurve"/>
      <point x="696" y="-10"/>
      <point x="553" y="144"/>
      <point x="553" y="263" type="qcurve"/>
      <point x="553" y="380"/>
      <point x="690" y="530"/>
      <point x="798" y="530" type="qcurve"/>
      <point x="897" y="530"/>
      <point x="1023" y="401"/>
      <point x="1023" y="291" type="qcurve"/>
      <point x="1022" y="265" type="line"/>
      <point x="565" y="265" type="line"/>
      <point x="565" y="287" type="line"/>
      <point x="1011" y="287" type="line"/>
      <point x="999" y="270" type="line"/>
      <point x="1001" y="295" type="line"/>
      <point x="1001" y="390"/>
      <point x="884" y="508"/>
      <point x="801" y="508" type="qcurve"/>
      <point x="699" y="508"/>
      <point x="576" y="370"/>
      <point x="575" y="263" type="qcurve"/>
      <point x="576" y="153"/>
      <point x="707" y="12"/>
      <point x="810" y="12" type="qcurve"/>
      <point x="862" y="12"/>
      <point x="950" y="50"/>
    </contour>
  </outline>
</glyph>
<glyph name="uni0156" format="2">
  <advance width="609"/>
  <unicode hex="0156"/>
  <outline>
    <contour>
      <point x="545" y="507" type="qcurve"/>
      <point x="545" y="411"/>
      <point x="444" y="291"/>
      <point x="361" y="291" type="qcurve"/>
      <point x="121" y="291" type="line"/>
      <point x="121" y="313" type="line"/>
      <point x="367" y="313" type="line"/>
      <point x="437" y="313"/>
      <point x="522" y="421"/>
      <point x="522" y="507" type="qcurve"/>
      <point x="522" y="582"/>
      <point x="437" y="678"/>
      <point x="367" y="678" type="qcurve"/>
      <point x="119" y="678" type="line"/>
      <point x="132" y="690" type="line"/>
      <point x="132" y="0" type="line"/>
      <point x="110" y="0" type="line"/>
      <point x="110" y="700" type="line"/>
      <point x="361" y="700" type="line"/>
      <point x="444" y="700"/>
      <point x="545" y="593"/>
    </contour>
    <contour>
      <point x="368" y="298" type="line"/>
      <point x="391" y="305" type="line"/>
      <point x="569" y="0" type="line"/>
      <point x="543" y="0" type="line"/>
    </contour>
    <contour>
      <point x="324" y="-192" type="qcurve"/>
      <point x="311" y="-179" type="line"/>
      <point x="333" y="-160"/>
      <point x="345" y="-141"/>
      <point x="345" y="-132" type="qcurve"/>
      <point x="345" y="-124"/>
      <point x="339" y="-114"/>
      <point x="328" y="-109" type="qcurve"/>
      <point x="318" y="-104"/>
      <point x="308" y="-90"/>
      <point x="308" y="-80" type="qcurve"/>
      <point x="308" y="-71"/>
      <point x="322" y="-56"/>
      <point x="335" y="-56" type="qcurve"/>
      <point x="352" y="-56"/>
      <point x="371" y="-81"/>
      <point x="371" y="-102" type="qcurve"/>
      <point x="371" y="-128"/>
      <point x="353" y="-169"/>
    </contour>
  </outline>
</glyph>
<glyph name="uni0157" format="2">
  <advance width="311"/>
  <unicode hex="0157"/>
  <outline>
    <contour>
      <point x="316" y="522" type="qcurve"/>
      <point x="309" y="499" type="line"/>
      <point x="293" y="504"/>
      <point x="264" y="508"/>
      <point x="253" y="508" type="qcurve"/>
      <point x="172" y="508"/>
      <point x="92" y="392"/>
      <point x="92" y="338" type="qcurve"/>
      <point x="92" y="0" type="line"/>
      <point x="70" y="0" type="line"/>
      <point x="70" y="525" type="line"/>
      <point x="90" y="525" type="line"/>
      <point x="91" y="398" type="line"/>
      <point x="85" y="396" type="line"/>
      <point x="95" y="445"/>
      <point x="183" y="530"/>
      <point x="258" y="530" type="qcurve"/>
      <point x="275" y="530"/>
      <point x="304" y="526"/>
    </contour>
    <contour>
      <point x="64" y="-192" type="qcurve"/>
      <point x="52" y="-179" type="line"/>
      <point x="74" y="-160"/>
      <point x="86" y="-141"/>
      <point x="86" y="-132" type="qcurve"/>
      <point x="86" y="-124"/>
      <point x="80" y="-114"/>
      <point x="68" y="-109" type="qcurve"/>
      <point x="58" y="-104"/>
      <point x="48" y="-90"/>
      <point x="48" y="-80" type="qcurve"/>
      <point x="48" y="-71"/>
      <point x="62" y="-56"/>
      <point x="76" y="-56" type="qcurve"/>
      <point x="92" y="-56"/>
      <point x="112" y="-81"/>
      <point x="112" y="-102" type="qcurve"/>
      <point x="112" y="-128"/>
      <point x="94" y="-169"/>
    </contour>
  </outline>
</glyph>
<glyph name="scircumflex" format="2">
  <advance width="479"/>
  <unicode hex="015D"/>
  <outline>
    <contour>
      <point x="45" y="81" type="qcurve"/>
      <point x="62" y="96" type="line"/>
      <point x="90" y="59"/>
      <point x="186" y="12"/>
      <point x="250" y="12" type="qcurve"/>
      <point x="331" y="12"/>
      <point x="403" y="86"/>
      <point x="403" y="133" type="qcurve"/>
      <point x="403" y="182"/>
      <point x="320" y="238"/>
      <point x="241" y="256" type="qcurve"/>
      <point x="154" y="276"/>
      <point x="65" y="344"/>
      <point x="65" y="393" type="qcurve"/>
      <point x="65" y="455"/>
      <point x="160" y="530"/>
      <point x="240" y="530" type="qcurve"/>
      <point x="293" y="530"/>
      <point x="387" y="486"/>
      <point x="422" y="445" type="qcurve"/>
      <point x="406" y="427" type="line"/>
      <point x="373" y="465"/>
      <point x="290" y="508"/>
      <point x="240" y="508" type="qcurve"/>
      <point x="167" y="508"/>
      <point x="87" y="443"/>
      <point x="87" y="394" type="qcurve"/>
      <point x="87" y="354"/>
      <point x="167" y="297"/>
      <point x="245" y="279" type="qcurve"/>
      <point x="336" y="258"/>
      <point x="425" y="193"/>
      <point x="425" y="133" type="qcurve"/>
      <point x="425" y="68"/>
      <point x="331" y="-10"/>
      <point x="248" y="-10" type="qcurve"/>
      <point x="182" y="-10"/>
      <point x="74" y="40"/>
    </contour>
    <contour>
      <point x="356" y="620" type="line"/>
      <point x="240" y="712" type="line"/>
      <point x="255" y="712" type="line"/>
      <point x="138" y="620" type="line"/>
      <point x="126" y="633" type="line"/>
      <point x="233" y="725" type="line"/>
      <point x="261" y="725" type="line"/>
      <point x="368" y="633" type="line"/>
    </contour>
  </outline>
</glyph>
<glyph name="Scaron" format="2">
  <advance width="567"/>
  <unicode hex="0160"/>
  <outline>
    <contour>
      <point x="43" y="115" type="qcurve"/>
      <point x="61" y="131" type="line"/>
      <point x="99" y="72"/>
      <point x="221" y="12"/>
      <point x="303" y="12" type="qcurve"/>
      <point x="387" y="12"/>
      <point x="504" y="102"/>
      <point x="504" y="172" type="qcurve"/>
      <point x="504" y="244"/>
      <point x="370" y="312"/>
      <point x="264" y="342" type="qcurve"/>
      <point x="170" y="368"/>
      <point x="65" y="451"/>
      <point x="65" y="526" type="qcurve"/>
      <point x="65" y="605"/>
      <point x="196" y="710"/>
      <point x="292" y="710" type="qcurve"/>
      <point x="373" y="710"/>
      <point x="477" y="658"/>
      <point x="511" y="611" type="qcurve"/>
      <point x="494" y="596" type="line"/>
      <point x="461" y="640"/>
      <point x="366" y="688"/>
      <point x="292" y="688" type="qcurve"/>
      <point x="206" y="688"/>
      <point x="88" y="597"/>
      <point x="88" y="526" type="qcurve"/>
      <point x="88" y="458"/>
      <point x="188" y="385"/>
      <point x="272" y="363" type="qcurve"/>
      <point x="391" y="333"/>
      <point x="527" y="251"/>
      <point x="527" y="172" type="qcurve"/>
      <point x="527" y="94"/>
      <point x="398" y="-10"/>
      <point x="303" y="-10" type="qcurve"/>
      <point x="214" y="-10"/>
      <point x="83" y="55"/>
    </contour>
    <contour>
      <point x="409" y="850" type="line"/>
      <point x="293" y="758" type="line"/>
      <point x="308" y="758" type="line"/>
      <point x="191" y="850" type="line"/>
      <point x="179" y="837" type="line"/>
      <point x="286" y="745" type="line"/>
      <point x="314" y="745" type="line"/>
      <point x="421" y="837" type="line"/>
    </contour>
  </outline>
</glyph>
<glyph name="uni0163" format="2">
  <advance width="350"/>
  <unicode hex="0163"/>
  <outline>
    <contour>
      <point x="185" y="659" type="line"/>
      <point x="185" y="0" type="line"/>
      <point x="163" y="0" type="line"/>
      <point x="163" y="659" type="line"/>
    </contour>
    <contour>
      <point x="335" y="525" type="line"/>
      <point x="335" y="503" type="line"/>
      <point x="20" y="503" type="line"/>
      <point x="20" y="525" type="line"/>
    </contour>
    <contour>
      <point x="127" y="-81" type="line"/>
      <point x="109" y="-78" type="line"/>
      <point x="163" y="0" type="line"/>
      <point x="185" y="0" type="line"/>
    </contour>
    <contour>
      <point x="242" y="-139" type="qcurve"/>
      <point x="242" y="-157"/>
      <point x="224" y="-193"/>
      <point x="202" y="-202" type="qcurve"/>
      <point x="180" y="-211"/>
      <point x="132" y="-221"/>
      <point x="96" y="-227" type="qcurve"/>
      <point x="92" y="-210" type="line"/>
      <point x="137" y="-203"/>
      <point x="222" y="-179"/>
      <point x="222" y="-138" type="qcurve"/>
      <point x="222" y="-116"/>
      <point x="180" y="-88"/>
      <point x="122" y="-88" type="qcurve"/>
      <point x="109" y="-80" type="line"/>
      <point x="109" y="-78" type="line"/>
      <point x="128" y="-71" type="line"/>
      <point x="191" y="-72"/>
      <point x="242" y="-108"/>
    </contour>
  </outline>
</glyph>
<glyph name="Tbar" format="2">
  <advance width="488"/>
  <unicode hex="0166"/>
  <outline>
    <contour>
      <point x="255" y="0" type="line"/>
      <point x="233" y="0" type="line"/>
      <point x="233" y="688" type="line"/>
      <point x="255" y="688" type="line"/>
    </contour>
    <contour>
      <point x="468" y="678" type="line"/>
      <point x="20" y="678" type="line"/>
      <point x="20" y="700" type="line"/>
      <point x="468" y="700" type="line"/>
    </contour>
    <contour>
      <point x="388" y="359" type="line"/>
      <point x="120" y="359" type="line"/>
      <point x="120" y="380" type="line"/>
      <point x="388" y="380" type="line"/>
    </contour>
  </outline>
</glyph>
<glyph name="Ubreve" format="2">
  <advance width="744"/>
  <unicode hex="016C"/>
  <outline>
    <contour>
      <point x="612" y="700" type="line"/>
      <point x="634" y="700" type="line"/>
      <point x="634" y="269" type="line"/>
      <point x="634" y="149"/>
      <point x="484" y="-6"/>
      <point x="368" y="-6" type="qcurve"/>
      <point x="255" y="-6"/>
      <point x="111" y="149"/>
      <point x="110" y="269" type="qcurve"/>
      <point x="110" y="700" type="line"/>
      <point x="132" y="700" type="line"/>
      <point x="132" y="278" type="line"/>
      <point x="132" y="163"/>
      <point x="263" y="16"/>
      <point x="368" y="16" type="qcurve"/>
      <point x="476" y="16"/>
      <point x="612" y="163"/>
      <point x="612" y="278" type="qcurve"/>
    </contour>
    <contour>
      <point x="372" y="787" type="qcurve"/>
      <point x="321" y="787"/>
      <point x="252" y="851"/>
      <point x="240" y="907" type="qcurve"/>
      <point x="262" y="909" type="line"/>
      <point x="272" y="861"/>
      <point x="332" y="808"/>
      <point x="372" y="808" type="qcurve"/>
      <point x="411" y="808"/>
      <point x="473" y="861"/>
      <point x="482" y="909" type="qcurve"/>
      <point x="504" y="907" type="line"/>
      <point x="493" y="851"/>
      <point x="422" y="787"/>
    </contour>
  </outline>
</glyph>
<glyph name="ubreve" format="2">
  <advance width="538"/>
  <unicode hex="016D"/>
  <outline>
    <contour>
      <point x="265" y="12" type="qcurve"/>
      <point x="338" y="12"/>
      <point x="444" y="117"/>
      <point x="444" y="149" type="qcurve"/>
      <point x="444" y="525" type="line"/>
      <point x="466" y="525" type="line"/>
      <point x="466" y="0" type="line"/>
      <point x="446" y="0" type="line"/>
      <point x="444" y="121" type="line"/>
      <point x="453" y="123" type="line"/>
      <point x="435" y="69"/>
      <point x="330" y="-10"/>
      <point x="263" y="-10" type="qcurve"/>
      <point x="172" y="-10"/>
      <point x="73" y="88"/>
      <point x="73" y="197" type="qcurve"/>
      <point x="73" y="525" type="line"/>
      <point x="95" y="525" type="line"/>
      <point x="95" y="197" type="line"/>
      <point x="95" y="99"/>
      <point x="183" y="12"/>
    </contour>
    <contour>
      <point x="269" y="612" type="qcurve"/>
      <point x="218" y="612"/>
      <point x="149" y="676"/>
      <point x="137" y="732" type="qcurve"/>
      <point x="159" y="734" type="line"/>
      <point x="169" y="686"/>
      <point x="229" y="633"/>
      <point x="269" y="633" type="qcurve"/>
      <point x="308" y="633"/>
      <point x="370" y="686"/>
      <point x="379" y="734" type="qcurve"/>
      <point x="401" y="732" type="line"/>
      <point x="390" y="676"/>
      <point x="319" y="612"/>
    </contour>
  </outline>
</glyph>
<glyph name="Uring" format="2">
  <advance width="744"/>
  <unicode hex="016E"/>
  <outline>
    <contour>
      <point x="612" y="700" type="line"/>
      <point x="634" y="700" type="line"/>
      <point x="634" y="269" type="line"/>
      <point x="634" y="149"/>
      <point x="484" y="-6"/>
      <point x="368" y="-6" type="qcurve"/>
      <point x="255" y="-6"/>
      <point x="111" y="149"/>
      <point x="110" y="269" type="qcurve"/>
      <point x="110" y="700" type="line"/>
      <point x="132" y="700" type="line"/>
      <point x="132" y="278" type="line"/>
      <point x="132" y="163"/>
      <point x="263" y="16"/>
      <point x="368" y="16" type="qcurve"/>
      <point x="476" y="16"/>
      <point x="612" y="163"/>
      <point x="612" y="278" type="qcurve"/>
    </contour>
    <contour>
      <point x="464" y="858" type="qcurve"/>
      <point x="464" y="823"/>
      <point x="409" y="770"/>
      <point x="372" y="770" type="qcurve"/>
      <point x="335" y="770"/>
      <point x="280" y="822"/>
      <point x="280" y="858" type="qcurve"/>
      <point x="280" y="895"/>
      <point x="334" y="948"/>
      <point x="372" y="948" type="qcurve"/>
      <point x="410" y="948"/>
      <point x="464" y="895"/>
    </contour>
    <contour>
      <point x="301" y="858" type="qcurve"/>
      <point x="301" y="831"/>
      <point x="343" y="790"/>
      <point x="372" y="790" type="qcurve"/>
      <point x="402" y="790"/>
      <point x="443" y="831"/>
      <point x="443" y="858" type="qcurve"/>
      <point x="443" y="890"/>
      <point x="402" y="928"/>
      <point x="372" y="928" type="qcurve"/>
      <point x="341" y="928"/>
      <point x="301" y="889"/>
    </contour>
  </outline>
</glyph>
<glyph name="uhungarumlaut" format="2">
  <advance width="538"/>
  <unicode hex="0171"/>
  <outline>
    <contour>
      <point x="265" y="12" type="qcurve"/>
      <point x="338" y="12"/>
      <point x="444" y="117"/>
      <point x="444" y="149" type="qcurve"/>
      <point x="444" y="525" type="line"/>
      <point x="466" y="525" type="line"/>
      <point x="466" y="0" type="line"/>
      <point x="446" y="0" type="line"/>
      <point x="444" y="121" type="line"/>
      <point x="453" y="123" type="line"/>
      <point x="435" y="69"/>
      <point x="330" y="-10"/>
      <point x="263" y="-10" type="qcurve"/>
      <point x="172" y="-10"/>
      <point x="73" y="88"/>
      <point x="73" y="197" type="qcurve"/>
      <point x="73" y="525" type="line"/>
      <point x="95" y="525" type="line"/>
      <point x="95" y="197" type="line"/>
      <point x="95" y="99"/>
      <point x="183" y="12"/>
    </contour>
    <contour>
      <point x="333" y="684" type="line"/>
      <point x="189" y="580" type="line"/>
      <point x="179" y="595" type="line"/>
      <point x="319" y="705" type="line"/>
    </contour>
    <contour>
      <point x="453" y="684" type="line"/>
      <point x="309" y="580" type="line"/>
      <point x="299" y="595" type="line"/>
      <point x="439" y="705" type="line"/>
    </contour>
  </outline>
</glyph>
<glyph name="uogonek" format="2">
  <advance width="538"/>
  <unicode hex="0173"/>
  <outline>
    <contour>
      <point x="265" y="12" type="qcurve"/>
      <point x="338" y="12"/>
      <point x="444" y="117"/>
      <point x="444" y="149" type="qcurve"/>
      <point x="444" y="525" type="line"/>
      <point x="466" y="525" type="line"/>
      <point x="466" y="0" type="line"/>
      <point x="446" y="0" type="line"/>
      <point x="444" y="121" type="line"/>
      <point x="453" y="123" type="line"/>
      <point x="435" y="69"/>
      <point x="330" y="-10"/>
      <point x="263" y="-10" type="qcurve"/>
      <point x="172" y="-10"/>
      <point x="73" y="88"/>
      <point x="73" y="197" type="qcurve"/>
      <point x="73" y="525" type="line"/>
      <point x="95" y="525" type="line"/>
      <point x="95" y="197" type="line"/>
      <point x="95" y="99"/>
      <point x="183" y="12"/>
    </contour>
    <contour>
      <point x="406" y="-230" type="qcurve"/>
      <point x="364" y="-230"/>
      <point x="311" y="-173"/>
      <point x="311" y="-130" type="qcurve"/>
      <point x="311" y="-70"/>
      <point x="404" y="8"/>
      <point x="461" y="18" type="qcurve"/>
      <point x="466" y="8" type="line"/>
      <point x="466" y="0" type="line"/>
      <point x="410" y="-10"/>
      <point x="333" y="-77"/>
      <point x="333" y="-130" type="qcurve"/>
      <point x="333" y="-163"/>
      <point x="375" y="-208"/>
      <point x="406" y="-208" type="qcurve"/>
      <point x="430" y="-208"/>
      <point x="465" y="-183"/>
      <point x="476" y="-163" type="qcurve"/>
      <point x="491" y="-176" type="line"/>
      <point x="479" y="-200"/>
      <point x="434" y="-230"/>
    </contour>
  </outline>
</glyph>
<glyph name="Wcircumflex" format="2">
  <advance width="849"/>
  <unicode hex="0174"/>
  <outline>
    <contour>
      <point x="216" y="0" type="line"/>
      <point x="20" y="700" type="line"/>
      <point x="44" y="700" type="line"/>
      <point x="186" y="193" type="line"/>
      <point x="207" y="117"/>
      <point x="213" y="91"/>
      <point x="236" y="15" type="qcurve"/>
      <point x="224" y="15" type="line"/>
      <point x="254" y="88"/>
      <point x="284" y="167"/>
      <point x="297" y="202" type="qcurve"/>
      <point x="417" y="520" type="line"/>
      <point x="432" y="520" type="line"/>
      <point x="551" y="202" type="line"/>
      <point x="564" y="167"/>
      <point x="596" y="88"/>
      <point x="625" y="15" type="qcurve"/>
      <point x="612" y="15" type="line"/>
      <point x="635" y="91"/>
      <point x="642" y="117"/>
      <point x="663" y="193" type="qcurve"/>
      <point x="805" y="700" type="line"/>
      <point x="829" y="700" type="line"/>
      <point x="633" y="0" type="line"/>
      <point x="607" y="0" type="line"/>
      <point x="415" y="499" type="line"/>
      <point x="434" y="499" type="line"/>
      <point x="242" y="0" type="line"/>
    </contour>
    <contour>
      <point x="534" y="770" type="line"/>
      <point x="418" y="862" type="line"/>
      <point x="432" y="862" type="line"/>
      <point x="316" y="770" type="line"/>
      <point x="304" y="783" type="line"/>
      <point x="410" y="875" type="line"/>
      <point x="438" y="875" type="line"/>
      <point x="546" y="783" type="line"/>
    </contour>
  </outline>
</glyph>
<glyph name="Ycircumflex" format="2">
  <advance width="592"/>
  <unicode hex="0176"/>
  <outline>
    <contour>
      <point x="546" y="700" type="line"/>
      <point x="572" y="700" type="line"/>
      <point x="302" y="300" type="line"/>
      <point x="311" y="339" type="line"/>
      <point x="311" y="0" type="line"/>
      <point x="289" y="0" type="line"/>
      <point x="289" y="339" type="line"/>
      <point x="297" y="300" type="line"/>
      <point x="20" y="700" type="line"/>
      <point x="46" y="700" type="line"/>
      <point x="305" y="327" type="line"/>
      <point x="294" y="327" type="line"/>
    </contour>
    <contour>
      <point x="405" y="770" type="line"/>
      <point x="289" y="862" type="line"/>
      <point x="304" y="862" type="line"/>
      <point x="187" y="770" type="line"/>
      <point x="175" y="783" type="line"/>
      <point x="282" y="875" type="line"/>
      <point x="310" y="875" type="line"/>
      <point x="417" y="783" type="line"/>
    </contour>
  </outline>
</glyph>
<glyph name="ycircumflex" format="2">
  <advance width="501"/>
  <unicode hex="0177"/>
  <outline>
    <contour>
      <point x="268" y="22" type="qcurve"/>
      <point x="257" y="-8" type="line"/>
      <point x="15" y="525" type="line"/>
      <point x="40" y="525" type="line"/>
      <point x="237" y="90" type="line"/>
      <point x="241" y="82"/>
      <point x="263" y="32"/>
    </contour>
    <contour>
      <point x="182" y="-230" type="line"/>
      <point x="157" y="-230" type="line"/>
      <point x="237" y="-29" type="line"/>
      <point x="255" y="16" type="line"/>
      <point x="257" y="20"/>
      <point x="259" y="24"/>
      <point x="261" y="28" type="qcurve"/>
      <point x="461" y="525" type="line"/>
      <point x="486" y="525" type="line"/>
      <point x="269" y="-13" type="line"/>
    </contour>
    <contour>
      <point x="360" y="620" type="line"/>
      <point x="244" y="712" type="line"/>
      <point x="258" y="712" type="line"/>
      <point x="142" y="620" type="line"/>
      <point x="130" y="633" type="line"/>
      <point x="236" y="725" type="line"/>
      <point x="264" y="725" type="line"/>
      <point x="372" y="633" type="line"/>
    </contour>
  </outline>
</glyph>
<glyph name="Zacute" format="2">
  <advance width="634"/>
  <unicode hex="0179"/>
  <outline>
    <contour>
      <point x="86" y="700" type="line"/>
      <point x="563" y="700" type="line"/>
      <point x="563" y="677" type="line"/>
      <point x="78" y="10" type="line"/>
      <point x="75" y="22" type="line"/>
      <point x="574" y="22" type="line"/>
      <point x="574" y="0" type="line"/>
      <point x="60" y="0" type="line"/>
      <point x="60" y="24" type="line"/>
      <point x="545" y="692" type="line"/>
      <point x="557" y="678" type="line"/>
      <point x="86" y="678" type="line"/>
    </contour>
    <contour>
      <point x="428" y="869" type="line"/>
      <point x="282" y="770" type="line"/>
      <point x="272" y="785" type="line"/>
      <point x="414" y="890" type="line"/>
    </contour>
  </outline>
</glyph>
<glyph name="Zcaron" format="2">
  <advance width="634"/>
  <unicode hex="017D"/>
  <outline>
    <contour>
      <point x="86" y="700" type="line"/>
      <point x="563" y="700" type="line"/>
      <point x="563" y="677" type="line"/>
      <point x="78" y="10" type="line"/>
      <point x="75" y="22" type="line"/>
      <point x="574" y="22" type="line"/>
      <point x="574" y="0" type="line"/>
      <point x="60" y="0" type="line"/>
      <point x="60" y="24" type="line"/>
      <point x="545" y="692" type="line"/>
      <point x="557" y="678" type="line"/>
      <point x="86" y="678" type="line"/>
    </contour>
    <contour>
      <point x="426" y="850" type="line"/>
      <point x="310" y="758" type="line"/>
      <point x="325" y="758" type="line"/>
      <point x="208" y="850" type="line"/>
      <point x="196" y="837" type="line"/>
      <point x="303" y="745" type="line"/>
      <point x="331" y="745" type="line"/>
      <point x="438" y="837" type="line"/>
    </contour>
  </outline>
</glyph>
<glyph name="uni018F" format="2">
  <advance width="795"/>
  <unicode hex="018F"/>
  <outline>
    <contour>
      <point x="743" y="344" type="qcurve"/>
      <point x="743" y="189"/>
      <point x="545" y="-10"/>
      <point x="398" y="-10" type="qcurve"/>
      <point x="248" y="-10"/>
      <point x="55" y="199"/>
      <point x="58" y="353" type="qcurve"/>
      <point x="58" y="365" type="line"/>
      <point x="731" y="365" type="line"/>
      <point x="731" y="343" type="line"/>
      <point x="80" y="343" type="line"/>
      <point x="80" y="206"/>
      <point x="254" y="12"/>
      <point x="399" y="12" type="qcurve"/>
      <point x="536" y="12"/>
      <point x="720" y="202"/>
      <point x="720" y="348" type="qcurve"/>
      <point x="720" y="494"/>
      <point x="521" y="688"/>
      <point x="373" y="688" type="qcurve"/>
      <point x="308" y="688"/>
      <point x="189" y="634"/>
      <point x="146" y="593" type="qcurve"/>
      <point x="131" y="609" type="line"/>
      <point x="175" y="653"/>
      <point x="307" y="710"/>
      <point x="375" y="710" type="qcurve"/>
      <point x="532" y="710"/>
      <point x="743" y="501"/>
    </contour>
  </outline>
</glyph>
<glyph name="Uhorn" format="2">
  <advance width="749"/>
  <unicode hex="01AF"/>
  <outline>
    <contour>
      <point x="612" y="700" type="line"/>
      <point x="634" y="700" type="line"/>
      <point x="634" y="269" type="line"/>
      <point x="634" y="149"/>
      <point x="484" y="-6"/>
      <point x="368" y="-6" type="qcurve"/>
      <point x="255" y="-6"/>
      <point x="111" y="149"/>
      <point x="110" y="269" type="qcurve"/>
      <point x="110" y="700" type="line"/>
      <point x="132" y="700" type="line"/>
      <point x="132" y="278" type="line"/>
      <point x="132" y="163"/>
      <point x="263" y="16"/>
      <point x="368" y="16" type="qcurve"/>
      <point x="476" y="16"/>
      <point x="612" y="163"/>
      <point x="612" y="278" type="qcurve"/>
    </contour>
    <contour>
      <point x="612" y="679" type="qcurve"/>
      <point x="612" y="700" type="line"/>
      <point x="661" y="700"/>
      <point x="708" y="749"/>
      <point x="708" y="799" type="qcurve"/>
      <point x="730" y="799" type="line"/>
      <point x="730" y="744"/>
      <point x="668" y="679"/>
    </contour>
  </outline>
</glyph>
<glyph name="uni01C5" format="2">
  <advance width="1165"/>
  <unicode hex="01C5"/>
  <outline>
    <contour>
      <point x="110" y="700" type="line"/>
      <point x="357" y="700" type="line"/>
      <point x="485" y="700"/>
      <point x="682" y="502"/>
      <point x="682" y="350" type="qcurve"/>
      <point x="682" y="199"/>
      <point x="485" y="0"/>
      <point x="357" y="0" type="qcurve"/>
      <point x="110" y="0" type="line"/>
    </contour>
    <contour>
      <point x="122" y="22" type="line"/>
      <point x="352" y="22" type="line"/>
      <point x="473" y="22"/>
      <point x="659" y="211"/>
      <point x="659" y="350" type="qcurve"/>
      <point x="659" y="490"/>
      <point x="473" y="678"/>
      <point x="352" y="678" type="qcurve"/>
      <point x="121" y="678" type="line"/>
      <point x="132" y="689" type="line"/>
      <point x="132" y="13" type="line"/>
    </contour>
    <contour>
      <point x="783" y="22" type="line"/>
      <point x="1130" y="22" type="line"/>
      <point x="1130" y="0" type="line"/>
      <point x="771" y="0" type="line"/>
      <point x="771" y="26" type="line"/>
      <point x="1097" y="521" type="line"/>
      <point x="1095" y="503" type="line"/>
      <point x="771" y="503" type="line"/>
      <point x="771" y="525" type="line"/>
      <point x="1109" y="525" type="line"/>
      <point x="1109" y="497" type="line"/>
      <point x="787" y="10" type="line"/>
    </contour>
    <contour>
      <point x="958" y="608" type="line"/>
      <point x="944" y="608" type="line"/>
      <point x="1060" y="700" type="line"/>
      <point x="1072" y="687" type="line"/>
      <point x="964" y="595" type="line"/>
      <point x="936" y="595" type="line"/>
      <point x="830" y="687" type="line"/>
      <point x="842" y="700" type="line"/>
    </contour>
  </outline>
</glyph>
<glyph name="uni01C6" format="2">
  <advance width="1053"/>
  <unicode hex="01C6"/>
  <outline>
    <contour>
      <point x="510" y="740" type="line"/>
      <point x="532" y="740" type="line"/>
      <point x="532" y="0" type="line"/>
      <point x="510" y="0" type="line"/>
      <point x="510" y="172" type="line"/>
      <point x="519" y="175" type="line"/>
      <point x="499" y="94"/>
      <point x="375" y="-10"/>
      <point x="294" y="-10" type="qcurve"/>
      <point x="184" y="-10"/>
      <point x="40" y="141"/>
      <point x="40" y="258" type="qcurve"/>
      <point x="40" y="376"/>
      <point x="187" y="530"/>
      <point x="290" y="530" type="qcurve"/>
      <point x="370" y="530"/>
      <point x="502" y="427"/>
      <point x="516" y="350" type="qcurve"/>
      <point x="510" y="353" type="line"/>
    </contour>
    <contour>
      <point x="62" y="258" type="qcurve"/>
      <point x="62" y="152"/>
      <point x="190" y="12"/>
      <point x="293" y="12" type="qcurve"/>
      <point x="385" y="12"/>
      <point x="510" y="150"/>
      <point x="510" y="260" type="qcurve"/>
      <point x="510" y="368"/>
      <point x="385" y="508"/>
      <point x="291" y="508" type="qcurve"/>
      <point x="190" y="508"/>
      <point x="62" y="367"/>
    </contour>
    <contour>
      <point x="671" y="22" type="line"/>
      <point x="1018" y="22" type="line"/>
      <point x="1018" y="0" type="line"/>
      <point x="659" y="0" type="line"/>
      <point x="659" y="26" type="line"/>
      <point x="985" y="521" type="line"/>
      <point x="983" y="503" type="line"/>
      <point x="659" y="503" type="line"/>
      <point x="659" y="525" type="line"/>
      <point x="997" y="525" type="line"/>
      <point x="997" y="497" type="line"/>
      <point x="675" y="10" type="line"/>
    </contour>
    <contour>
      <point x="846" y="608" type="line"/>
      <point x="832" y="608" type="line"/>
      <point x="948" y="700" type="line"/>
      <point x="960" y="687" type="line"/>
      <point x="852" y="595" type="line"/>
      <point x="824" y="595" type="line"/>
      <point x="718" y="687" type="line"/>
      <point x="730" y="700" type="line"/>
    </contour>
  </outline>
</glyph>
<glyph name="uni01C9" format="2">
  <advance width="347"/>
  <unicode hex="01C9"/>
  <outline>
    <contour>
      <point x="94" y="0" type="line"/>
      <point x="72" y="0" type="line"/>
      <point x="72" y="740" type="line"/>
      <point x="94" y="740" type="line"/>
    </contour>
    <contour>
      <point x="258" y="525" type="line"/>
      <point x="258" y="-60" type="line"/>
      <point x="258" y="-125"/>
      <point x="192" y="-194"/>
      <point x="132" y="-194" type="qcurve"/>
      <point x="124" y="-173" type="line"/>
      <point x="186" y="-173"/>
      <point x="236" y="-108"/>
      <point x="236" y="-56" type="qcurve"/>
      <point x="236" y="525" type="line"/>
    </contour>
    <contour>
      <point x="285" y="695" type="qcurve"/>
      <point x="285" y="682"/>
      <point x="271" y="666"/>
      <point x="257" y="666" type="qcurve"/>
      <point x="243" y="666"/>
      <point x="229" y="682"/>
      <point x="229" y="695" type="qcurve"/>
      <point x="229" y="707"/>
      <point x="243" y="724"/>
      <point x="257" y="724" type="qcurve"/>
      <point x="270" y="724"/>
      <point x="285" y="708"/>
    </contour>
  </outline>
</glyph>
<glyph name="uni01CB" format="2">
  <advance width="911"/>
  <unicode hex="01CB"/>
  <outline>
    <contour>
      <point x="598" y="241" type="qcurve"/>
      <point x="598" y="700" type="line"/>
      <point x="620" y="700" type="line"/>
      <point x="620" y="0" type="line"/>
      <point x="600" y="0" type="line"/>
      <point x="115" y="686" type="line"/>
      <point x="130" y="686" type="line"/>
      <point x="131" y="661"/>
      <point x="133" y="525"/>
      <point x="132" y="470" type="qcurve"/>
      <point x="132" y="0" type="line"/>
      <point x="110" y="0" type="line"/>
      <point x="110" y="700" type="line"/>
      <point x="132" y="700" type="line"/>
      <point x="605" y="31" type="line"/>
      <point x="601" y="31" type="line"/>
      <point x="601" y="75"/>
      <point x="599" y="177"/>
    </contour>
    <contour>
      <point x="822" y="525" type="line"/>
      <point x="822" y="-60" type="line"/>
      <point x="822" y="-125"/>
      <point x="756" y="-194"/>
      <point x="696" y="-194" type="qcurve"/>
      <point x="688" y="-173" type="line"/>
      <point x="750" y="-173"/>
      <point x="800" y="-108"/>
      <point x="800" y="-56" type="qcurve"/>
      <point x="800" y="525" type="line"/>
    </contour>
    <contour>
      <point x="849" y="695" type="qcurve"/>
      <point x="849" y="682"/>
      <point x="835" y="666"/>
      <point x="821" y="666" type="qcurve"/>
      <point x="807" y="666"/>
      <point x="793" y="682"/>
      <point x="793" y="695" type="qcurve"/>
      <point x="793" y="707"/>
      <point x="807" y="724"/>
      <point x="821" y="724" type="qcurve"/>
      <point x="834" y="724"/>
      <point x="849" y="708"/>
    </contour>
  </outline>
</glyph>
<glyph name="uni01CF" format="2">
  <advance width="386"/>
  <unicode hex="01CF"/>
  <outline>
    <contour>
      <point x="204" y="700" type="qcurve"/>
      <point x="204" y="0" type="line"/>
      <point x="182" y="0" type="line"/>
      <point x="182" y="700" type="line"/>
      <point x="210" y="700"/>
      <point x="176" y="700"/>
    </contour>
    <contour>
      <point x="336" y="700" type="line"/>
      <point x="336" y="678" type="line"/>
      <point x="50" y="678" type="line"/>
      <point x="50" y="700" type="line"/>
    </contour>
    <contour>
      <point x="336" y="22" type="line"/>
      <point x="336" y="0" type="line"/>
      <point x="50" y="0" type="line"/>
      <point x="50" y="22" type="line"/>
    </contour>
    <contour>
      <point x="302" y="850" type="line"/>
      <point x="186" y="758" type="line"/>
      <point x="201" y="758" type="line"/>
      <point x="84" y="850" type="line"/>
      <point x="72" y="837" type="line"/>
      <point x="179" y="745" type="line"/>
      <point x="207" y="745" type="line"/>
      <point x="314" y="837" type="line"/>
    </contour>
  </outline>
</glyph>
<glyph name="uni01D1" format="2">
  <advance width="798"/>
  <unicode hex="01D1"/>
  <outline>
    <contour>
      <point x="399" y="710" type="qcurve"/>
      <point x="550" y="710"/>
      <point x="743" y="508"/>
      <point x="743" y="349" type="qcurve"/>
      <point x="743" y="191"/>
      <point x="550" y="-10"/>
      <point x="399" y="-10" type="qcurve"/>
      <point x="248" y="-10"/>
      <point x="55" y="191"/>
      <point x="55" y="349" type="qcurve"/>
      <point x="55" y="507"/>
      <point x="248" y="710"/>
    </contour>
    <contour>
      <point x="399" y="12" type="qcurve"/>
      <point x="539" y="12"/>
      <point x="720" y="202"/>
      <point x="720" y="349" type="qcurve"/>
      <point x="720" y="496"/>
      <point x="539" y="688"/>
      <point x="399" y="688" type="qcurve"/>
      <point x="260" y="688"/>
      <point x="78" y="496"/>
      <point x="78" y="349" type="qcurve"/>
      <point x="78" y="202"/>
      <point x="260" y="12"/>
    </contour>
    <contour>
      <point x="508" y="850" type="line"/>
      <point x="392" y="758" type="line"/>
      <point x="407" y="758" type="line"/>
      <point x="290" y="850" type="line"/>
      <point x="278" y="837" type="line"/>
      <point x="385" y="745" type="line"/>
      <point x="413" y="745" type="line"/>
      <point x="520" y="837" type="line"/>
    </contour>
  </outline>
</glyph>
<glyph name="gcaron" format="2">
  <advance width="603"/>
  <unicode hex="01E7"/>
  <outline>
    <contour>
      <point x="113" y="-166" type="qcurve"/>
      <point x="124" y="-146" type="line"/>
      <point x="155" y="-179"/>
      <point x="240" y="-218"/>
      <point x="293" y="-218" type="qcurve"/>
      <point x="379" y="-218"/>
      <point x="510" y="-85"/>
      <point x="510" y="30" type="qcurve"/>
      <point x="510" y="172" type="line"/>
      <point x="519" y="175" type="line"/>
      <point x="499" y="94"/>
      <point x="375" y="-10"/>
      <point x="294" y="-10" type="qcurve"/>
      <point x="184" y="-10"/>
      <point x="40" y="141"/>
      <point x="40" y="258" type="qcurve"/>
      <point x="40" y="376"/>
      <point x="187" y="530"/>
      <point x="290" y="530" type="qcurve"/>
      <point x="370" y="530"/>
      <point x="502" y="427"/>
      <point x="516" y="350" type="qcurve"/>
      <point x="510" y="353" type="line"/>
      <point x="512" y="525" type="line"/>
      <point x="532" y="525" type="line"/>
      <point x="532" y="21" type="line"/>
      <point x="532" y="-101"/>
      <point x="392" y="-240"/>
      <point x="294" y="-240" type="qcurve"/>
      <point x="240" y="-240"/>
      <point x="145" y="-202"/>
    </contour>
    <contour>
      <point x="510" y="260" type="qcurve"/>
      <point x="510" y="368"/>
      <point x="385" y="508"/>
      <point x="291" y="508" type="qcurve"/>
      <point x="190" y="508"/>
      <point x="62" y="367"/>
      <point x="62" y="258" type="qcurve"/>
      <point x="62" y="152"/>
      <point x="191" y="12"/>
      <point x="293" y="12" type="qcurve"/>
      <point x="385" y="12"/>
      <point x="510" y="150"/>
    </contour>
    <contour>
      <point x="309" y="608" type="line"/>
      <point x="294" y="608" type="line"/>
      <point x="410" y="700" type="line"/>
      <point x="422" y="687" type="line"/>
      <point x="315" y="595" type="line"/>
      <point x="287" y="595" type="line"/>
      <point x="180" y="687" type="line"/>
      <point x="192" y="700" type="line"/>
    </contour>
  </outline>
</glyph>
<glyph name="uni01F2" format="2">
  <advance width="1231"/>
  <unicode hex="01F2"/>
  <outline>
    <contour>
      <point x="110" y="700" type="line"/>
      <point x="357" y="700" type="line"/>
      <point x="485" y="700"/>
      <point x="682" y="502"/>
      <point x="682" y="350" type="qcurve"/>
      <point x="682" y="199"/>
      <point x="485" y="0"/>
      <point x="357" y="0" type="qcurve"/>
      <point x="110" y="0" type="line"/>
    </contour>
    <contour>
      <point x="122" y="22" type="line"/>
      <point x="352" y="22" type="line"/>
      <point x="473" y="22"/>
      <point x="659" y="211"/>
      <point x="659" y="350" type="qcurve"/>
      <point x="659" y="490"/>
      <point x="473" y="678"/>
      <point x="352" y="678" type="qcurve"/>
      <point x="121" y="678" type="line"/>
      <point x="132" y="689" type="line"/>
      <point x="132" y="13" type="line"/>
    </contour>
    <contour>
      <point x="794" y="22" type="line"/>
      <point x="1141" y="22" type="line"/>
      <point x="1141" y="0" type="line"/>
      <point x="782" y="0" type="line"/>
      <point x="782" y="26" type="line"/>
      <point x="1108" y="521" type="line"/>
      <point x="1106" y="503" type="line"/>
      <point x="782" y="503" type="line"/>
      <point x="782" y="525" type="line"/>
      <point x="1120" y="525" type="line"/>
      <point x="1120" y="497" type="line"/>
      <point x="798" y="10" type="line"/>
    </contour>
  </outline>
</glyph>
<glyph name="Aringacute" format="2">
  <advance width="611"/>
  <unicode hex="01FA"/>
  <outline>
    <contour>
      <point x="304" y="682" type="qcurve"/>
      <point x="305" y="682" type="line"/>
      <point x="302" y="672"/>
      <point x="262" y="570"/>
      <point x="237" y="503" type="qcurve"/>
      <point x="46" y="0" type="line"/>
      <point x="20" y="0" type="line"/>
      <point x="289" y="700" type="line"/>
      <point x="322" y="700" type="line"/>
      <point x="591" y="0" type="line"/>
      <point x="565" y="0" type="line"/>
      <point x="372" y="504" type="line"/>
      <point x="348" y="568"/>
      <point x="308" y="672"/>
    </contour>
    <contour>
      <point x="299" y="230" type="line"/>
      <point x="120" y="230" type="line"/>
      <point x="128" y="253" type="line"/>
      <point x="299" y="253" type="line"/>
    </contour>
    <contour>
      <point x="493" y="230" type="line"/>
      <point x="299" y="230" type="line"/>
      <point x="299" y="253" type="line"/>
      <point x="485" y="253" type="line"/>
    </contour>
    <contour>
      <point x="397" y="768" type="qcurve"/>
      <point x="397" y="733"/>
      <point x="342" y="680"/>
      <point x="305" y="680" type="qcurve"/>
      <point x="268" y="680"/>
      <point x="213" y="732"/>
      <point x="213" y="768" type="qcurve"/>
      <point x="213" y="805"/>
      <point x="267" y="858"/>
      <point x="305" y="858" type="qcurve"/>
      <point x="343" y="858"/>
      <point x="397" y="805"/>
    </contour>
    <contour>
      <point x="234" y="768" type="qcurve"/>
      <point x="234" y="741"/>
      <point x="276" y="700"/>
      <point x="305" y="700" type="qcurve"/>
      <point x="335" y="700"/>
      <point x="376" y="741"/>
      <point x="376" y="768" type="qcurve"/>
      <point x="376" y="800"/>
      <point x="335" y="838"/>
      <point x="305" y="838" type="qcurve"/>
      <point x="274" y="838"/>
      <point x="234" y="799"/>
    </contour>
    <contour>
      <point x="389" y="1007" type="line"/>
      <point x="243" y="908" type="line"/>
      <point x="233" y="923" type="line"/>
      <point x="375" y="1028" type="line"/>
    </contour>
  </outline>
</glyph>
<glyph name="AEacute" format="2">
  <advance width="927"/>
  <unicode hex="01FC"/>
  <outline>
    <contour>
      <point x="164" y="216" type="line"/>
      <point x="178" y="238" type="line"/>
      <point x="502" y="238" type="line"/>
      <point x="486" y="220" type="line"/>
      <point x="486" y="691" type="line"/>
      <point x="495" y="691" type="line"/>
      <point x="28" y="0" type="line"/>
      <point x="0" y="0" type="line"/>
      <point x="476" y="700" type="line"/>
      <point x="861" y="700" type="line"/>
      <point x="861" y="678" type="line"/>
      <point x="499" y="678" type="line"/>
      <point x="508" y="687" type="line"/>
      <point x="508" y="357" type="line"/>
      <point x="498" y="372" type="line"/>
      <point x="804" y="372" type="line"/>
      <point x="804" y="350" type="line"/>
      <point x="499" y="350" type="line"/>
      <point x="508" y="367" type="line"/>
      <point x="508" y="9" type="line"/>
      <point x="497" y="22" type="line"/>
      <point x="861" y="22" type="line"/>
      <point x="861" y="0" type="line"/>
      <point x="486" y="0" type="line"/>
      <point x="486" y="228" type="line"/>
      <point x="502" y="216" type="line"/>
    </contour>
    <contour>
      <point x="759" y="869" type="line"/>
      <point x="613" y="770" type="line"/>
      <point x="603" y="785" type="line"/>
      <point x="745" y="890" type="line"/>
    </contour>
  </outline>
</glyph>
<glyph name="Oslashacute" format="2">
  <advance width="798"/>
  <unicode hex="01FE"/>
  <outline>
    <contour>
      <point x="114" y="-18" type="line"/>
      <point x="95" y="-4" type="line"/>
      <point x="684" y="718" type="line"/>
      <point x="703" y="704" type="line"/>
    </contour>
    <contour>
      <point x="399" y="710" type="qcurve"/>
      <point x="550" y="710"/>
      <point x="743" y="508"/>
      <point x="743" y="349" type="qcurve"/>
      <point x="743" y="191"/>
      <point x="550" y="-10"/>
      <point x="399" y="-10" type="qcurve"/>
      <point x="248" y="-10"/>
      <point x="55" y="191"/>
      <point x="55" y="349" type="qcurve"/>
      <point x="55" y="507"/>
      <point x="248" y="710"/>
    </contour>
    <contour>
      <point x="399" y="12" type="qcurve"/>
      <point x="539" y="12"/>
      <point x="720" y="202"/>
      <point x="720" y="349" type="qcurve"/>
      <point x="720" y="496"/>
      <point x="539" y="688"/>
      <point x="399" y="688" type="qcurve"/>
      <point x="260" y="688"/>
      <point x="78" y="496"/>
      <point x="78" y="349" type="qcurve"/>
      <point x="78" y="202"/>
      <point x="260" y="12"/>
    </contour>
    <contour>
      <point x="502" y="869" type="line"/>
      <point x="356" y="770" type="line"/>
      <point x="346" y="785" type="line"/>
      <point x="488" y="890" type="line"/>
    </contour>
  </outline>
</glyph>
<glyph name="uni0200" format="2">
  <advance width="611"/>
  <unicode hex="0200"/>
  <outline>
    <contour>
      <point x="304" y="682" type="qcurve"/>
      <point x="305" y="682" type="line"/>
      <point x="302" y="672"/>
      <point x="262" y="570"/>
      <point x="237" y="503" type="qcurve"/>
      <point x="46" y="0" type="line"/>
      <point x="20" y="0" type="line"/>
      <point x="289" y="700" type="line"/>
      <point x="322" y="700" type="line"/>
      <point x="591" y="0" type="line"/>
      <point x="565" y="0" type="line"/>
      <point x="372" y="504" type="line"/>
      <point x="348" y="568"/>
      <point x="308" y="672"/>
    </contour>
    <contour>
      <point x="299" y="230" type="line"/>
      <point x="120" y="230" type="line"/>
      <point x="128" y="253" type="line"/>
      <point x="299" y="253" type="line"/>
    </contour>
    <contour>
      <point x="493" y="230" type="line"/>
      <point x="299" y="230" type="line"/>
      <point x="299" y="253" type="line"/>
      <point x="485" y="253" type="line"/>
    </contour>
    <contour>
      <point x="272" y="785" type="line"/>
      <point x="262" y="770" type="line"/>
      <point x="116" y="869" type="line"/>
      <point x="130" y="890" type="line"/>
    </contour>
    <contour>
      <point x="409" y="785" type="line"/>
      <point x="399" y="770" type="line"/>
      <point x="253" y="869" type="line"/>
      <point x="267" y="890" type="line"/>
    </contour>
  </outline>
</glyph>
<glyph name="uni0202" format="2">
  <advance width="611"/>
  <unicode hex="0202"/>
  <outline>
    <contour>
      <point x="304" y="682" type="qcurve"/>
      <point x="305" y="682" type="line"/>
      <point x="302" y="672"/>
      <point x="262" y="570"/>
      <point x="237" y="503" type="qcurve"/>
      <point x="46" y="0" type="line"/>
      <point x="20" y="0" type="line"/>
      <point x="289" y="700" type="line"/>
      <point x="322" y="700" type="line"/>
      <point x="591" y="0" type="line"/>
      <point x="565" y="0" type="line"/>
      <point x="372" y="504" type="line"/>
      <point x="348" y="568"/>
      <point x="308" y="672"/>
    </contour>
    <contour>
      <point x="299" y="230" type="line"/>
      <point x="120" y="230" type="line"/>
      <point x="128" y="253" type="line"/>
      <point x="299" y="253" type="line"/>
    </contour>
    <contour>
      <point x="493" y="230" type="line"/>
      <point x="299" y="230" type="line"/>
      <point x="299" y="253" type="line"/>
      <point x="485" y="253" type="line"/>
    </contour>
    <contour>
      <point x="306" y="875" type="qcurve"/>
      <point x="357" y="875"/>
      <point x="426" y="811"/>
      <point x="438" y="755" type="qcurve"/>
      <point x="416" y="753" type="line"/>
      <point x="406" y="801"/>
      <point x="346" y="854"/>
      <point x="306" y="854" type="qcurve"/>
      <point x="267" y="854"/>
      <point x="205" y="801"/>
      <point x="196" y="753" type="qcurve"/>
      <point x="174" y="755" type="line"/>
      <point x="185" y="811"/>
      <point x="256" y="875"/>
    </contour>
  </outline>
</glyph>
<glyph name="uni0203" format="2">
  <advance width="602"/>
  <unicode hex="0203"/>
  <outline>
    <contour>
      <point x="512" y="525" type="line"/>
      <point x="532" y="525" type="line"/>
      <point x="532" y="0" type="line"/>
      <point x="510" y="0" type="line"/>
      <point x="510" y="172" type="line"/>
      <point x="519" y="175" type="line"/>
      <point x="501" y="94"/>
      <point x="377" y="-10"/>
      <point x="294" y="-10" type="qcurve"/>
      <point x="184" y="-10"/>
      <point x="40" y="141"/>
      <point x="40" y="258" type="qcurve"/>
      <point x="40" y="376"/>
      <point x="187" y="530"/>
      <point x="290" y="530" type="qcurve"/>
      <point x="374" y="530"/>
      <point x="502" y="430"/>
      <point x="516" y="350" type="qcurve"/>
      <point x="510" y="353" type="line"/>
    </contour>
    <contour>
      <point x="63" y="258" type="qcurve"/>
      <point x="63" y="152"/>
      <point x="191" y="12"/>
      <point x="294" y="12" type="qcurve"/>
      <point x="386" y="12"/>
      <point x="511" y="150"/>
      <point x="511" y="260" type="qcurve"/>
      <point x="511" y="368"/>
      <point x="386" y="508"/>
      <point x="292" y="508" type="qcurve"/>
      <point x="191" y="508"/>
      <point x="63" y="367"/>
    </contour>
    <contour>
      <point x="298" y="700" type="qcurve"/>
      <point x="349" y="700"/>
      <point x="418" y="636"/>
      <point x="430" y="580" type="qcurve"/>
      <point x="408" y="578" type="line"/>
      <point x="398" y="626"/>
      <point x="338" y="679"/>
      <point x="298" y="679" type="qcurve"/>
      <point x="259" y="679"/>
      <point x="197" y="626"/>
      <point x="188" y="578" type="qcurve"/>
      <point x="166" y="580" type="line"/>
      <point x="177" y="636"/>
      <point x="248" y="700"/>
    </contour>
  </outline>
</glyph>
<glyph name="uni0204" format="2">
  <advance width="566"/>
  <unicode hex="0204"/>
  <outline>
    <contour>
      <point x="132" y="0" type="line"/>
      <point x="110" y="0" type="line"/>
      <point x="110" y="700" type="line"/>
      <point x="132" y="700" type="line"/>
    </contour>
    <contour>
      <point x="495" y="0" type="line"/>
      <point x="124" y="0" type="line"/>
      <point x="124" y="22" type="line"/>
      <point x="495" y="22" type="line"/>
    </contour>
    <contour>
      <point x="443" y="351" type="line"/>
      <point x="123" y="351" type="line"/>
      <point x="123" y="373" type="line"/>
      <point x="443" y="373" type="line"/>
    </contour>
    <contour>
      <point x="501" y="678" type="line"/>
      <point x="123" y="678" type="line"/>
      <point x="123" y="700" type="line"/>
      <point x="501" y="700" type="line"/>
    </contour>
    <contour>
      <point x="281" y="785" type="line"/>
      <point x="271" y="770" type="line"/>
      <point x="125" y="869" type="line"/>
      <point x="139" y="890" type="line"/>
    </contour>
    <contour>
      <point x="418" y="785" type="line"/>
      <point x="408" y="770" type="line"/>
      <point x="262" y="869" type="line"/>
      <point x="276" y="890" type="line"/>
    </contour>
  </outline>
</glyph>
<glyph name="uni0206" format="2">
  <advance width="566"/>
  <unicode hex="0206"/>
  <outline>
    <contour>
      <point x="132" y="0" type="line"/>
      <point x="110" y="0" type="line"/>
      <point x="110" y="700" type="line"/>
      <point x="132" y="700" type="line"/>
    </contour>
    <contour>
      <point x="495" y="0" type="line"/>
      <point x="124" y="0" type="line"/>
      <point x="124" y="22" type="line"/>
      <point x="495" y="22" type="line"/>
    </contour>
    <contour>
      <point x="443" y="351" type="line"/>
      <point x="123" y="351" type="line"/>
      <point x="123" y="373" type="line"/>
      <point x="443" y="373" type="line"/>
    </contour>
    <contour>
      <point x="501" y="678" type="line"/>
      <point x="123" y="678" type="line"/>
      <point x="123" y="700" type="line"/>
      <point x="501" y="700" type="line"/>
    </contour>
    <contour>
      <point x="306" y="875" type="qcurve"/>
      <point x="357" y="875"/>
      <point x="426" y="811"/>
      <point x="438" y="755" type="qcurve"/>
      <point x="416" y="753" type="line"/>
      <point x="406" y="801"/>
      <point x="346" y="854"/>
      <point x="306" y="854" type="qcurve"/>
      <point x="267" y="854"/>
      <point x="205" y="801"/>
      <point x="196" y="753" type="qcurve"/>
      <point x="174" y="755" type="line"/>
      <point x="185" y="811"/>
      <point x="256" y="875"/>
    </contour>
  </outline>
</glyph>
<glyph name="uni0209" format="2">
  <advance width="182"/>
  <unicode hex="0209"/>
  <outline>
    <contour>
      <point x="92" y="525" type="line"/>
      <point x="92" y="0" type="line"/>
      <point x="70" y="0" type="line"/>
      <point x="70" y="525" type="line"/>
    </contour>
    <contour>
      <point x="63" y="586" type="line"/>
      <point x="53" y="571" type="line"/>
      <point x="-91" y="675" type="line"/>
      <point x="-77" y="696" type="line"/>
    </contour>
    <contour>
      <point x="186" y="582" type="line"/>
      <point x="176" y="567" type="line"/>
      <point x="32" y="671" type="line"/>
      <point x="46" y="692" type="line"/>
    </contour>
  </outline>
</glyph>
<glyph name="uni0210" format="2">
  <advance width="609"/>
  <unicode hex="0210"/>
  <outline>
    <contour>
      <point x="545" y="507" type="qcurve"/>
      <point x="545" y="411"/>
      <point x="444" y="291"/>
      <point x="361" y="291" type="qcurve"/>
      <point x="121" y="291" type="line"/>
      <point x="121" y="313" type="line"/>
      <point x="367" y="313" type="line"/>
      <point x="437" y="313"/>
      <point x="522" y="421"/>
      <point x="522" y="507" type="qcurve"/>
      <point x="522" y="582"/>
      <point x="437" y="678"/>
      <point x="367" y="678" type="qcurve"/>
      <point x="119" y="678" type="line"/>
      <point x="132" y="690" type="line"/>
      <point x="132" y="0" type="line"/>
      <point x="110" y="0" type="line"/>
      <point x="110" y="700" type="line"/>
      <point x="361" y="700" type="line"/>
      <point x="444" y="700"/>
      <point x="545" y="593"/>
    </contour>
    <contour>
      <point x="368" y="298" type="line"/>
      <point x="391" y="305" type="line"/>
      <point x="569" y="0" type="line"/>
      <point x="543" y="0" type="line"/>
    </contour>
    <contour>
      <point x="274" y="785" type="line"/>
      <point x="264" y="770" type="line"/>
      <point x="118" y="869" type="line"/>
      <point x="132" y="890" type="line"/>
    </contour>
    <contour>
      <point x="411" y="785" type="line"/>
      <point x="401" y="770" type="line"/>
      <point x="255" y="869" type="line"/>
      <point x="269" y="890" type="line"/>
    </contour>
  </outline>
</glyph>
<glyph name="uni0211" format="2">
  <advance width="311"/>
  <unicode hex="0211"/>
  <outline>
    <contour>
      <point x="316" y="522" type="qcurve"/>
      <point x="309" y="499" type="line"/>
      <point x="293" y="504"/>
      <point x="264" y="508"/>
      <point x="253" y="508" type="qcurve"/>
      <point x="172" y="508"/>
      <point x="92" y="392"/>
      <point x="92" y="338" type="qcurve"/>
      <point x="92" y="0" type="line"/>
      <point x="70" y="0" type="line"/>
      <point x="70" y="525" type="line"/>
      <point x="90" y="525" type="line"/>
      <point x="91" y="398" type="line"/>
      <point x="85" y="396" type="line"/>
      <point x="95" y="445"/>
      <point x="183" y="530"/>
      <point x="258" y="530" type="qcurve"/>
      <point x="275" y="530"/>
      <point x="304" y="526"/>
    </contour>
    <contour>
      <point x="163" y="639" type="line"/>
      <point x="153" y="624" type="line"/>
      <point x="9" y="728" type="line"/>
      <point x="23" y="749" type="line"/>
    </contour>
    <contour>
      <point x="285" y="635" type="line"/>
      <point x="275" y="620" type="line"/>
      <point x="131" y="724" type="line"/>
      <point x="145" y="745" type="line"/>
    </contour>
  </outline>
</glyph>
<glyph name="uni0213" format="2">
  <advance width="311"/>
  <unicode hex="0213"/>
  <outline>
    <contour>
      <point x="316" y="522" type="qcurve"/>
      <point x="309" y="499" type="line"/>
      <point x="293" y="504"/>
      <point x="264" y="508"/>
      <point x="253" y="508" type="qcurve"/>
      <point x="172" y="508"/>
      <point x="92" y="392"/>
      <point x="92" y="338" type="qcurve"/>
      <point x="92" y="0" type="line"/>
      <point x="70" y="0" type="line"/>
      <point x="70" y="525" type="line"/>
      <point x="90" y="525" type="line"/>
      <point x="91" y="398" type="line"/>
      <point x="85" y="396" type="line"/>
      <point x="95" y="445"/>
      <point x="183" y="530"/>
      <point x="258" y="530" type="qcurve"/>
      <point x="275" y="530"/>
      <point x="304" y="526"/>
    </contour>
    <contour>
      <point x="188" y="700" type="qcurve"/>
      <point x="239" y="700"/>
      <point x="308" y="636"/>
      <point x="320" y="580" type="qcurve"/>
      <point x="298" y="578" type="line"/>
      <point x="288" y="626"/>
      <point x="228" y="679"/>
      <point x="188" y="679" type="qcurve"/>
      <point x="149" y="679"/>
      <point x="87" y="626"/>
      <point x="78" y="578" type="qcurve"/>
      <point x="56" y="580" type="line"/>
      <point x="67" y="636"/>
      <point x="138" y="700"/>
    </contour>
  </outline>
</glyph>
<glyph name="uni0215" format="2">
  <advance width="538"/>
  <unicode hex="0215"/>
  <outline>
    <contour>
      <point x="265" y="12" type="qcurve"/>
      <point x="338" y="12"/>
      <point x="444" y="117"/>
      <point x="444" y="149" type="qcurve"/>
      <point x="444" y="525" type="line"/>
      <point x="466" y="525" type="line"/>
      <point x="466" y="0" type="line"/>
      <point x="446" y="0" type="line"/>
      <point x="444" y="121" type="line"/>
      <point x="453" y="123" type="line"/>
      <point x="435" y="69"/>
      <point x="330" y="-10"/>
      <point x="263" y="-10" type="qcurve"/>
      <point x="172" y="-10"/>
      <point x="73" y="88"/>
      <point x="73" y="197" type="qcurve"/>
      <point x="73" y="525" type="line"/>
      <point x="95" y="525" type="line"/>
      <point x="95" y="197" type="line"/>
      <point x="95" y="99"/>
      <point x="183" y="12"/>
    </contour>
    <contour>
      <point x="224" y="639" type="line"/>
      <point x="214" y="624" type="line"/>
      <point x="70" y="728" type="line"/>
      <point x="84" y="749" type="line"/>
    </contour>
    <contour>
      <point x="346" y="635" type="line"/>
      <point x="336" y="620" type="line"/>
      <point x="192" y="724" type="line"/>
      <point x="206" y="745" type="line"/>
    </contour>
  </outline>
</glyph>
<glyph name="uni0216" format="2">
  <advance width="744"/>
  <unicode hex="0216"/>
  <outline>
    <contour>
      <point x="612" y="700" type="line"/>
      <point x="634" y="700" type="line"/>
      <point x="634" y="269" type="line"/>
      <point x="634" y="149"/>
      <point x="484" y="-6"/>
      <point x="368" y="-6" type="qcurve"/>
      <point x="255" y="-6"/>
      <point x="111" y="149"/>
      <point x="110" y="269" type="qcurve"/>
      <point x="110" y="700" type="line"/>
      <point x="132" y="700" type="line"/>
      <point x="132" y="278" type="line"/>
      <point x="132" y="163"/>
      <point x="263" y="16"/>
      <point x="368" y="16" type="qcurve"/>
      <point x="476" y="16"/>
      <point x="612" y="163"/>
      <point x="612" y="278" type="qcurve"/>
    </contour>
    <contour>
      <point x="372" y="875" type="qcurve"/>
      <point x="423" y="875"/>
      <point x="492" y="811"/>
      <point x="504" y="755" type="qcurve"/>
      <point x="482" y="753" type="line"/>
      <point x="472" y="801"/>
      <point x="412" y="854"/>
      <point x="372" y="854" type="qcurve"/>
      <point x="333" y="854"/>
      <point x="271" y="801"/>
      <point x="262" y="753" type="qcurve"/>
      <point x="240" y="755" type="line"/>
      <point x="251" y="811"/>
      <point x="322" y="875"/>
    </contour>
  </outline>
</glyph>
<glyph name="uni021B" format="2">
  <advance width="350"/>
  <unicode hex="021B"/>
  <outline>
    <contour>
      <point x="185" y="659" type="line"/>
      <point x="185" y="0" type="line"/>
      <point x="163" y="0" type="line"/>
      <point x="163" y="659" type="line"/>
    </contour>
    <contour>
      <point x="335" y="525" type="line"/>
      <point x="335" y="503" type="line"/>
      <point x="20" y="503" type="line"/>
      <point x="20" y="525" type="line"/>
    </contour>
    <contour>
      <point x="158" y="-192" type="qcurve"/>
      <point x="145" y="-179" type="line"/>
      <point x="167" y="-160"/>
      <point x="179" y="-141"/>
      <point x="179" y="-132" type="qcurve"/>
      <point x="179" y="-124"/>
      <point x="173" y="-114"/>
      <point x="162" y="-109" type="qcurve"/>
      <point x="152" y="-104"/>
      <point x="142" y="-90"/>
      <point x="142" y="-80" type="qcurve"/>
      <point x="142" y="-71"/>
      <point x="156" y="-56"/>
      <point x="169" y="-56" type="qcurve"/>
      <point x="186" y="-56"/>
      <point x="205" y="-81"/>
      <point x="205" y="-102" type="qcurve"/>
      <point x="205" y="-128"/>
      <point x="187" y="-169"/>
    </contour>
  </outline>
</glyph>
<glyph name="uni022C" format="2">
  <advance width="798"/>
  <unicode hex="022C"/>
  <outline>
    <contour>
      <point x="399" y="710" type="qcurve"/>
      <point x="550" y="710"/>
      <point x="743" y="508"/>
      <point x="743" y="349" type="qcurve"/>
      <point x="743" y="191"/>
      <point x="550" y="-10"/>
      <point x="399" y="-10" type="qcurve"/>
      <point x="248" y="-10"/>
      <point x="55" y="191"/>
      <point x="55" y="349" type="qcurve"/>
      <point x="55" y="507"/>
      <point x="248" y="710"/>
    </contour>
    <contour>
      <point x="399" y="12" type="qcurve"/>
      <point x="539" y="12"/>
      <point x="720" y="202"/>
      <point x="720" y="349" type="qcurve"/>
      <point x="720" y="496"/>
      <point x="539" y="688"/>
      <point x="399" y="688" type="qcurve"/>
      <point x="260" y="688"/>
      <point x="78" y="496"/>
      <point x="78" y="349" type="qcurve"/>
      <point x="78" y="202"/>
      <point x="260" y="12"/>
    </contour>
    <contour>
      <point x="295" y="775" type="qcurve"/>
      <point x="275" y="778" type="line"/>
      <point x="275" y="808"/>
      <point x="313" y="850"/>
      <point x="337" y="850" type="qcurve"/>
      <point x="358" y="850"/>
      <point x="396" y="827"/>
      <point x="414" y="814" type="qcurve"/>
      <point x="421" y="809"/>
      <point x="453" y="789"/>
      <point x="467" y="789" type="qcurve"/>
      <point x="482" y="789"/>
      <point x="506" y="814"/>
      <point x="507" y="844" type="qcurve"/>
      <point x="527" y="841" type="line"/>
      <point x="527" y="808"/>
      <point x="490" y="769"/>
      <point x="468" y="769" type="qcurve"/>
      <point x="445" y="769"/>
      <point x="407" y="793"/>
      <point x="390" y="805" type="qcurve"/>
      <point x="382" y="810"/>
      <point x="353" y="830"/>
      <point x="337" y="830" type="qcurve"/>
      <point x="322" y="830"/>
      <point x="295" y="801"/>
    </contour>
    <contour>
      <point x="536" y="940" type="line"/>
      <point x="266" y="940" type="line"/>
      <point x="266" y="962" type="line"/>
      <point x="536" y="962" type="line"/>
    </contour>
  </outline>
</glyph>
<glyph name="uni0231" format="2">
  <advance width="615"/>
  <unicode hex="0231"/>
  <outline>
    <contour>
      <point x="308" y="530" type="qcurve"/>
      <point x="427" y="530"/>
      <point x="575" y="380"/>
      <point x="575" y="263" type="qcurve"/>
      <point x="575" y="144"/>
      <point x="427" y="-10"/>
      <point x="308" y="-10" type="qcurve"/>
      <point x="190" y="-10"/>
      <point x="40" y="144"/>
      <point x="40" y="263" type="qcurve"/>
      <point x="40" y="380"/>
      <point x="190" y="530"/>
    </contour>
    <contour>
      <point x="308" y="12" type="qcurve"/>
      <point x="414" y="12"/>
      <point x="553" y="153"/>
      <point x="553" y="263" type="qcurve"/>
      <point x="553" y="369"/>
      <point x="414" y="508"/>
      <point x="308" y="508" type="qcurve"/>
      <point x="201" y="508"/>
      <point x="62" y="369"/>
      <point x="62" y="263" type="qcurve"/>
      <point x="62" y="153"/>
      <point x="201" y="12"/>
    </contour>
    <contour>
      <point x="338" y="668" type="qcurve"/>
      <point x="338" y="655"/>
      <point x="324" y="639"/>
      <point x="310" y="639" type="qcurve"/>
      <point x="296" y="639"/>
      <point x="282" y="655"/>
      <point x="282" y="668" type="qcurve"/>
      <point x="282" y="680"/>
      <point x="296" y="697"/>
      <point x="310" y="697" type="qcurve"/>
      <point x="323" y="697"/>
      <point x="338" y="681"/>
    </contour>
    <contour>
      <point x="445" y="800" type="line"/>
      <point x="175" y="800" type="line"/>
      <point x="175" y="822" type="line"/>
      <point x="445" y="822" type="line"/>
    </contour>
  </outline>
</glyph>
<glyph name="uni0233" format="2">
  <advance width="501"/>
  <unicode hex="0233"/>
  <outline>
    <contour>
      <point x="268" y="22" type="qcurve"/>
      <point x="257" y="-8" type="line"/>
      <point x="15" y="525" type="line"/>
      <point x="40" y="525" type="line"/>
      <point x="237" y="90" type="line"/>
      <point x="241" y="82"/>
      <point x="263" y="32"/>
    </contour>
    <contour>
      <point x="182" y="-230" type="line"/>
      <point x="157" y="-230" type="line"/>
      <point x="237" y="-29" type="line"/>
      <point x="255" y="16" type="line"/>
      <point x="257" y="20"/>
      <point x="259" y="24"/>
      <point x="261" y="28" type="qcurve"/>
      <point x="461" y="525" type="line"/>
      <point x="486" y="525" type="line"/>
      <point x="269" y="-13" type="line"/>
    </contour>
    <contour>
      <point x="386" y="618" type="line"/>
      <point x="116" y="618" type="line"/>
      <point x="116" y="640" type="line"/>
      <point x="386" y="640" type="line"/>
    </contour>
  </outline>
</glyph>
<glyph name="uni0237" format="2">
  <advance width="226"/>
  <unicode hex="0237"/>
  <outline>
    <contour>
      <point x="150" y="525" type="line"/>
      <point x="150" y="-60" type="line"/>
      <point x="150" y="-125"/>
      <point x="84" y="-194"/>
      <point x="24" y="-194" type="qcurve"/>
      <point x="16" y="-173" type="line"/>
      <point x="78" y="-173"/>
      <point x="128" y="-108"/>
      <point x="128" y="-56" type="qcurve"/>
      <point x="128" y="525" type="line"/>
    </contour>
  </outline>
</glyph>
<glyph name="uni0259" format="2">
  <advance width="535"/>
  <unicode hex="0259"/>
  <outline>
    <contour>
      <point x="63" y="442" type="qcurve"/>
      <point x="51" y="460" type="line"/>
      <point x="88" y="494"/>
      <point x="181" y="535"/>
      <point x="238" y="535" type="qcurve"/>
      <point x="352" y="535"/>
      <point x="495" y="381"/>
      <point x="495" y="262" type="qcurve"/>
      <point x="495" y="145"/>
      <point x="358" y="-5"/>
      <point x="250" y="-5" type="qcurve"/>
      <point x="151" y="-5"/>
      <point x="25" y="124"/>
      <point x="25" y="234" type="qcurve"/>
      <point x="26" y="260" type="line"/>
      <point x="483" y="260" type="line"/>
      <point x="483" y="238" type="line"/>
      <point x="37" y="238" type="line"/>
      <point x="49" y="255" type="line"/>
      <point x="47" y="230" type="line"/>
      <point x="47" y="135"/>
      <point x="164" y="17"/>
      <point x="247" y="17" type="qcurve"/>
      <point x="349" y="17"/>
      <point x="472" y="155"/>
      <point x="473" y="262" type="qcurve"/>
      <point x="472" y="372"/>
      <point x="341" y="513"/>
      <point x="238" y="513" type="qcurve"/>
      <point x="186" y="513"/>
      <point x="98" y="475"/>
    </contour>
  </outline>
</glyph>
<glyph name="uni02BE" format="2">
  <advance width="212"/>
  <unicode hex="02BE"/>
  <outline>
    <contour>
      <point x="52" y="543" type="qcurve"/>
      <point x="52" y="565" type="line"/>
      <point x="85" y="565"/>
      <point x="133" y="610"/>
      <point x="133" y="641" type="qcurve"/>
      <point x="133" y="676"/>
      <point x="85" y="719"/>
      <point x="52" y="719" type="qcurve"/>
      <point x="52" y="740" type="line"/>
      <point x="93" y="740"/>
      <point x="155" y="681"/>
      <point x="155" y="641" type="qcurve"/>
      <point x="155" y="602"/>
      <point x="93" y="543"/>
    </contour>
  </outline>
</glyph>
<glyph name="uni02C8" format="2">
  <advance width="231"/>
  <unicode hex="02C8"/>
  <outline>
    <contour>
      <point x="128" y="712" type="line"/>
      <point x="128" y="368" type="line"/>
      <point x="104" y="368" type="line"/>
      <point x="104" y="712" type="line"/>
    </contour>
  </outline>
</glyph>
<glyph name="uni02CB" format="2">
  <advance width="205"/>
  <unicode hex="02CB"/>
  <outline>
    <contour>
      <point x="149" y="442" type="line"/>
      <point x="111" y="700" type="line"/>
      <point x="84" y="700" type="line"/>
      <point x="131" y="442" type="line"/>
    </contour>
  </outline>
</glyph>
<glyph name="breve" format="2">
  <advance width="344"/>
  <unicode hex="02D8"/>
  <outline>
    <contour>
      <point x="172" y="615" type="qcurve"/>
      <point x="121" y="615"/>
      <point x="52" y="679"/>
      <point x="40" y="735" type="qcurve"/>
      <point x="62" y="737" type="line"/>
      <point x="72" y="689"/>
      <point x="132" y="636"/>
      <point x="172" y="636" type="qcurve"/>
      <point x="211" y="636"/>
      <point x="273" y="689"/>
      <point x="282" y="737" type="qcurve"/>
      <point x="304" y="735" type="line"/>
      <point x="293" y="679"/>
      <point x="222" y="615"/>
    </contour>
  </outline>
</glyph>
<glyph name="acutecomb" format="2">
  <advance width="269"/>
  <unicode hex="0301"/>
  <outline>
    <contour>
      <point x="209" y="701" type="line"/>
      <point x="65" y="597" type="line"/>
      <point x="55" y="612" type="line"/>
      <point x="195" y="722" type="line"/>
    </contour>
  </outline>
</glyph>
<glyph name="uni0304" format="2">
  <advance width="424"/>
  <unicode hex="0304"/>
  <outline>
    <contour>
      <point x="347" y="629" type="line"/>
      <point x="77" y="629" type="line"/>
      <point x="77" y="651" type="line"/>
      <point x="347" y="651" type="line"/>
    </contour>
  </outline>
</glyph>
<glyph name="uni0311" format="2">
  <unicode hex="0311"/>
  <outline>
    <contour>
      <point x="227" y="710" type="qcurve"/>
      <point x="278" y="710"/>
      <point x="347" y="646"/>
      <point x="359" y="590" type="qcurve"/>
      <point x="337" y="588" type="line"/>
      <point x="327" y="636"/>
      <point x="267" y="689"/>
      <point x="227" y="689" type="qcurve"/>
      <point x="188" y="689"/>
      <point x="126" y="636"/>
      <point x="117" y="588" type="qcurve"/>
      <point x="95" y="590" type="line"/>
      <point x="106" y="646"/>
      <point x="177" y="710"/>
    </contour>
  </outline>
</glyph>
<glyph name="uni0324" format="2">
  <unicode hex="0324"/>
  <outline>
    <contour>
      <point x="285" y="-150" type="qcurve"/>
      <point x="264" y="-150"/>
      <point x="245" y="-132"/>
      <point x="245" y="-114" type="qcurve"/>
      <point x="245" y="-104" type="line"/>
      <point x="245" y="-85"/>
      <point x="265" y="-68"/>
      <point x="286" y="-68" type="qcurve"/>
      <point x="307" y="-68"/>
      <point x="327" y="-84"/>
      <point x="327" y="-104" type="qcurve"/>
      <point x="327" y="-114" type="line"/>
      <point x="327" y="-133"/>
      <point x="308" y="-150"/>
    </contour>
    <contour>
      <point x="103" y="-150" type="qcurve"/>
      <point x="82" y="-150"/>
      <point x="63" y="-132"/>
      <point x="63" y="-114" type="qcurve"/>
      <point x="63" y="-104" type="line"/>
      <point x="63" y="-85"/>
      <point x="83" y="-68"/>
      <point x="103" y="-68" type="qcurve"/>
      <point x="125" y="-68"/>
      <point x="145" y="-85"/>
      <point x="145" y="-104" type="qcurve"/>
      <point x="145" y="-114" type="line"/>
      <point x="145" y="-133"/>
      <point x="126" y="-150"/>
    </contour>
  </outline>
</glyph>
<glyph name="uni0328" format="2">
  <advance width="295"/>
  <unicode hex="0328"/>
  <outline>
    <contour>
      <point x="151" y="-230" type="qcurve"/>
      <point x="109" y="-230"/>
      <point x="56" y="-173"/>
      <point x="56" y="-130" type="qcurve"/>
      <point x="56" y="-70"/>
      <point x="149" y="8"/>
      <point x="206" y="18" type="qcurve"/>
      <point x="211" y="8" type="line"/>
      <point x="211" y="0" type="line"/>
      <point x="155" y="-10"/>
      <point x="78" y="-77"/>
      <point x="78" y="-130" type="qcurve"/>
      <point x="78" y="-163"/>
      <point x="120" y="-208"/>
      <point x="151" y="-208" type="qcurve"/>
      <point x="175" y="-208"/>
      <point x="210" y="-183"/>
      <point x="221" y="-163" type="qcurve"/>
      <point x="236" y="-176" type="line"/>
      <point x="224" y="-200"/>
      <point x="179" y="-230"/>
    </contour>
  </outline>
</glyph>
<glyph name="uni032E" format="2">
  <unicode hex="032E"/>
  <outline>
    <contour>
      <point x="173" y="-133" type="qcurve"/>
      <point x="122" y="-133"/>
      <point x="53" y="-69"/>
      <point x="41" y="-13" type="qcurve"/>
      <point x="63" y="-11" type="line"/>
      <point x="73" y="-59"/>
      <point x="133" y="-112"/>
      <point x="173" y="-112" type="qcurve"/>
      <point x="212" y="-112"/>
      <point x="274" y="-59"/>
      <point x="283" y="-11" type="qcurve"/>
      <point x="305" y="-13" type="line"/>
      <point x="294" y="-69"/>
      <point x="223" y="-133"/>
    </contour>
  </outline>
</glyph>
<glyph name="uni0331" format="2">
  <unicode hex="0331"/>
  <outline>
    <contour>
      <point x="345" y="-106" type="line"/>
      <point x="74" y="-106" type="line"/>
      <point x="74" y="-84" type="line"/>
      <point x="345" y="-84" type="line"/>
    </contour>
  </outline>
</glyph>
<glyph name="uni0335" format="2">
  <unicode hex="0335"/>
  <outline>
    <contour>
      <point x="318" y="288" type="line"/>
      <point x="50" y="288" type="line"/>
      <point x="50" y="309" type="line"/>
      <point x="318" y="309" type="line"/>
    </contour>
  </outline>
</glyph>
<glyph name="uni1E08" format="2">
  <advance width="690"/>
  <unicode hex="1E08"/>
  <outline>
    <contour>
      <point x="624" y="99" type="qcurve"/>
      <point x="639" y="81" type="line"/>
      <point x="594" y="38"/>
      <point x="471" y="-10"/>
      <point x="399" y="-10" type="qcurve"/>
      <point x="248" y="-10"/>
      <point x="55" y="189"/>
      <point x="55" y="346" type="qcurve"/>
      <point x="55" y="505"/>
      <point x="248" y="710"/>
      <point x="399" y="710" type="qcurve"/>
      <point x="478" y="710"/>
      <point x="608" y="647"/>
      <point x="655" y="594" type="qcurve"/>
      <point x="637" y="578" type="line"/>
      <point x="593" y="628"/>
      <point x="472" y="688"/>
      <point x="399" y="688" type="qcurve"/>
      <point x="260" y="688"/>
      <point x="78" y="494"/>
      <point x="78" y="346" type="qcurve"/>
      <point x="78" y="200"/>
      <point x="260" y="12"/>
      <point x="399" y="12" type="qcurve"/>
      <point x="467" y="12"/>
      <point x="582" y="58"/>
    </contour>
    <contour>
      <point x="381" y="-81" type="line"/>
      <point x="363" y="-78" type="line"/>
      <point x="417" y="0" type="line"/>
      <point x="439" y="0" type="line"/>
    </contour>
    <contour>
      <point x="496" y="-139" type="qcurve"/>
      <point x="496" y="-157"/>
      <point x="478" y="-193"/>
      <point x="456" y="-202" type="qcurve"/>
      <point x="434" y="-211"/>
      <point x="386" y="-221"/>
      <point x="350" y="-227" type="qcurve"/>
      <point x="346" y="-210" type="line"/>
      <point x="391" y="-203"/>
      <point x="476" y="-179"/>
      <point x="476" y="-138" type="qcurve"/>
      <point x="476" y="-116"/>
      <point x="434" y="-88"/>
      <point x="376" y="-88" type="qcurve"/>
      <point x="363" y="-80" type="line"/>
      <point x="363" y="-78" type="line"/>
      <point x="382" y="-71" type="line"/>
      <point x="445" y="-72"/>
      <point x="496" y="-108"/>
    </contour>
    <contour>
      <point x="529" y="868" type="line"/>
      <point x="383" y="769" type="line"/>
      <point x="373" y="784" type="line"/>
      <point x="515" y="889" type="line"/>
    </contour>
  </outline>
</glyph>
<glyph name="uni1E09" format="2">
  <advance width="526"/>
  <unicode hex="1E09"/>
  <outline>
    <contour>
      <point x="306" y="508" type="qcurve"/>
      <point x="200" y="508"/>
      <point x="63" y="370"/>
      <point x="62" y="263" type="qcurve"/>
      <point x="63" y="153"/>
      <point x="200" y="12"/>
      <point x="306" y="12" type="qcurve"/>
      <point x="362" y="12"/>
      <point x="455" y="55"/>
      <point x="488" y="93" type="qcurve"/>
      <point x="504" y="77" type="line"/>
      <point x="468" y="37"/>
      <point x="368" y="-10"/>
      <point x="306" y="-10" type="qcurve"/>
      <point x="189" y="-10"/>
      <point x="40" y="144"/>
      <point x="40" y="263" type="qcurve"/>
      <point x="40" y="380"/>
      <point x="189" y="530"/>
      <point x="306" y="530" type="qcurve"/>
      <point x="369" y="530"/>
      <point x="471" y="483"/>
      <point x="506" y="443" type="qcurve"/>
      <point x="490" y="426" type="line"/>
      <point x="457" y="464"/>
      <point x="363" y="508"/>
    </contour>
    <contour>
      <point x="279" y="-81" type="line"/>
      <point x="261" y="-78" type="line"/>
      <point x="315" y="0" type="line"/>
      <point x="337" y="0" type="line"/>
    </contour>
    <contour>
      <point x="394" y="-139" type="qcurve"/>
      <point x="394" y="-157"/>
      <point x="376" y="-193"/>
      <point x="354" y="-202" type="qcurve"/>
      <point x="332" y="-211"/>
      <point x="284" y="-221"/>
      <point x="248" y="-227" type="qcurve"/>
      <point x="244" y="-210" type="line"/>
      <point x="289" y="-203"/>
      <point x="374" y="-179"/>
      <point x="374" y="-138" type="qcurve"/>
      <point x="374" y="-116"/>
      <point x="332" y="-88"/>
      <point x="274" y="-88" type="qcurve"/>
      <point x="261" y="-80" type="line"/>
      <point x="261" y="-78" type="line"/>
      <point x="280" y="-71" type="line"/>
      <point x="343" y="-72"/>
      <point x="394" y="-108"/>
    </contour>
    <contour>
      <point x="378" y="701" type="line"/>
      <point x="234" y="597" type="line"/>
      <point x="224" y="612" type="line"/>
      <point x="364" y="722" type="line"/>
    </contour>
  </outline>
</glyph>
<glyph name="uni1E0C" format="2">
  <advance width="737"/>
  <unicode hex="1E0C"/>
  <outline>
    <contour>
      <point x="110" y="700" type="line"/>
      <point x="357" y="700" type="line"/>
      <point x="485" y="700"/>
      <point x="682" y="502"/>
      <point x="682" y="350" type="qcurve"/>
      <point x="682" y="199"/>
      <point x="485" y="0"/>
      <point x="357" y="0" type="qcurve"/>
      <point x="110" y="0" type="line"/>
    </contour>
    <contour>
      <point x="122" y="22" type="line"/>
      <point x="352" y="22" type="line"/>
      <point x="473" y="22"/>
      <point x="659" y="211"/>
      <point x="659" y="350" type="qcurve"/>
      <point x="659" y="490"/>
      <point x="473" y="678"/>
      <point x="352" y="678" type="qcurve"/>
      <point x="121" y="678" type="line"/>
      <point x="132" y="689" type="line"/>
      <point x="132" y="13" type="line"/>
    </contour>
    <contour>
      <point x="393" y="-141" type="qcurve"/>
      <point x="393" y="-154"/>
      <point x="379" y="-170"/>
      <point x="365" y="-170" type="qcurve"/>
      <point x="351" y="-170"/>
      <point x="337" y="-154"/>
      <point x="337" y="-141" type="qcurve"/>
      <point x="337" y="-129"/>
      <point x="351" y="-112"/>
      <point x="365" y="-112" type="qcurve"/>
      <point x="378" y="-112"/>
      <point x="393" y="-128"/>
    </contour>
  </outline>
</glyph>
<glyph name="uni1E0E" format="2">
  <advance width="737"/>
  <unicode hex="1E0E"/>
  <outline>
    <contour>
      <point x="110" y="700" type="line"/>
      <point x="357" y="700" type="line"/>
      <point x="485" y="700"/>
      <point x="682" y="502"/>
      <point x="682" y="350" type="qcurve"/>
      <point x="682" y="199"/>
      <point x="485" y="0"/>
      <point x="357" y="0" type="qcurve"/>
      <point x="110" y="0" type="line"/>
    </contour>
    <contour>
      <point x="122" y="22" type="line"/>
      <point x="352" y="22" type="line"/>
      <point x="473" y="22"/>
      <point x="659" y="211"/>
      <point x="659" y="350" type="qcurve"/>
      <point x="659" y="490"/>
      <point x="473" y="678"/>
      <point x="352" y="678" type="qcurve"/>
      <point x="121" y="678" type="line"/>
      <point x="132" y="689" type="line"/>
      <point x="132" y="13" type="line"/>
    </contour>
    <contour>
      <point x="515" y="-160" type="line"/>
      <point x="260" y="-160" type="line"/>
      <point x="260" y="-150" type="line"/>
      <point x="260" y="-138" type="line"/>
      <point x="515" y="-138" type="line"/>
      <point x="515" y="-149" type="line"/>
    </contour>
  </outline>
</glyph>
<glyph name="uni1E0F" format="2">
  <advance width="604"/>
  <unicode hex="1E0F"/>
  <outline>
    <contour>
      <point x="510" y="740" type="line"/>
      <point x="532" y="740" type="line"/>
      <point x="532" y="0" type="line"/>
      <point x="510" y="0" type="line"/>
      <point x="510" y="172" type="line"/>
      <point x="519" y="175" type="line"/>
      <point x="499" y="94"/>
      <point x="375" y="-10"/>
      <point x="294" y="-10" type="qcurve"/>
      <point x="184" y="-10"/>
      <point x="40" y="141"/>
      <point x="40" y="258" type="qcurve"/>
      <point x="40" y="376"/>
      <point x="187" y="530"/>
      <point x="290" y="530" type="qcurve"/>
      <point x="370" y="530"/>
      <point x="502" y="427"/>
      <point x="516" y="350" type="qcurve"/>
      <point x="510" y="353" type="line"/>
    </contour>
    <contour>
      <point x="62" y="258" type="qcurve"/>
      <point x="62" y="152"/>
      <point x="190" y="12"/>
      <point x="293" y="12" type="qcurve"/>
      <point x="385" y="12"/>
      <point x="510" y="150"/>
      <point x="510" y="260" type="qcurve"/>
      <point x="510" y="368"/>
      <point x="385" y="508"/>
      <point x="291" y="508" type="qcurve"/>
      <point x="190" y="508"/>
      <point x="62" y="367"/>
    </contour>
    <contour>
      <point x="442" y="-170" type="line"/>
      <point x="171" y="-170" type="line"/>
      <point x="171" y="-148" type="line"/>
      <point x="442" y="-148" type="line"/>
    </contour>
  </outline>
</glyph>
<glyph name="uni1E16" format="2">
  <advance width="566"/>
  <unicode hex="1E16"/>
  <outline>
    <contour>
      <point x="132" y="0" type="line"/>
      <point x="110" y="0" type="line"/>
      <point x="110" y="700" type="line"/>
      <point x="132" y="700" type="line"/>
    </contour>
    <contour>
      <point x="495" y="0" type="line"/>
      <point x="124" y="0" type="line"/>
      <point x="124" y="22" type="line"/>
      <point x="495" y="22" type="line"/>
    </contour>
    <contour>
      <point x="443" y="351" type="line"/>
      <point x="123" y="351" type="line"/>
      <point x="123" y="373" type="line"/>
      <point x="443" y="373" type="line"/>
    </contour>
    <contour>
      <point x="501" y="678" type="line"/>
      <point x="123" y="678" type="line"/>
      <point x="123" y="700" type="line"/>
      <point x="501" y="700" type="line"/>
    </contour>
    <contour>
      <point x="441" y="793" type="line"/>
      <point x="171" y="793" type="line"/>
      <point x="171" y="815" type="line"/>
      <point x="441" y="815" type="line"/>
    </contour>
    <contour>
      <point x="441" y="1009" type="line"/>
      <point x="297" y="905" type="line"/>
      <point x="287" y="920" type="line"/>
      <point x="427" y="1030" type="line"/>
    </contour>
  </outline>
</glyph>
<glyph name="uni1E1C" format="2">
  <advance width="566"/>
  <unicode hex="1E1C"/>
  <outline>
    <contour>
      <point x="132" y="0" type="line"/>
      <point x="110" y="0" type="line"/>
      <point x="110" y="700" type="line"/>
      <point x="132" y="700" type="line"/>
    </contour>
    <contour>
      <point x="495" y="0" type="line"/>
      <point x="124" y="0" type="line"/>
      <point x="124" y="22" type="line"/>
      <point x="495" y="22" type="line"/>
    </contour>
    <contour>
      <point x="443" y="351" type="line"/>
      <point x="123" y="351" type="line"/>
      <point x="123" y="373" type="line"/>
      <point x="443" y="373" type="line"/>
    </contour>
    <contour>
      <point x="501" y="678" type="line"/>
      <point x="123" y="678" type="line"/>
      <point x="123" y="700" type="line"/>
      <point x="501" y="700" type="line"/>
    </contour>
    <contour>
      <point x="286" y="-81" type="line"/>
      <point x="268" y="-78" type="line"/>
      <point x="322" y="0" type="line"/>
      <point x="344" y="0" type="line"/>
    </contour>
    <contour>
      <point x="401" y="-139" type="qcurve"/>
      <point x="401" y="-157"/>
      <point x="383" y="-193"/>
      <point x="361" y="-202" type="qcurve"/>
      <point x="339" y="-211"/>
      <point x="291" y="-221"/>
      <point x="255" y="-227" type="qcurve"/>
      <point x="251" y="-210" type="line"/>
      <point x="296" y="-203"/>
      <point x="381" y="-179"/>
      <point x="381" y="-138" type="qcurve"/>
      <point x="381" y="-116"/>
      <point x="339" y="-88"/>
      <point x="281" y="-88" type="qcurve"/>
      <point x="268" y="-80" type="line"/>
      <point x="268" y="-78" type="line"/>
      <point x="287" y="-71" type="line"/>
      <point x="350" y="-72"/>
      <point x="401" y="-108"/>
    </contour>
    <contour>
      <point x="303" y="769" type="qcurve"/>
      <point x="252" y="769"/>
      <point x="183" y="833"/>
      <point x="171" y="889" type="qcurve"/>
      <point x="193" y="891" type="line"/>
      <point x="203" y="843"/>
      <point x="263" y="790"/>
      <point x="303" y="790" type="qcurve"/>
      <point x="342" y="790"/>
      <point x="404" y="843"/>
      <point x="413" y="891" type="qcurve"/>
      <point x="435" y="889" type="line"/>
      <point x="424" y="833"/>
      <point x="353" y="769"/>
    </contour>
  </outline>
</glyph>
